<?xml version="1.0" standalone="no"?>
<!DOCTYPE svg PUBLIC "-//W3C//DTD SVG 1.1//EN" "http://www.w3.org/Graphics/SVG/1.1/DTD/svg11.dtd" >
<svg xmlns="http://www.w3.org/2000/svg" xmlns:xlink="http://www.w3.org/1999/xlink" version="1.1">
<metadata>
Created by FontForge 20200314 at Mon Jul 16 02:46:34 2012
 By Unknown
Copyright (c) 2012 by Letterhead Studio Moscow especially for Vogue Russia. All rights reserved.
</metadata>
<defs>
<font id="VogueHighlineSans" horiz-adv-x="563" >
  <font-face 
    font-family="Vogue Highline Sans"
    font-weight="400"
    font-stretch="normal"
    units-per-em="1000"
    panose-1="2 0 5 3 0 0 0 2 0 4"
    ascent="769"
    descent="-231"
    x-height="500"
    cap-height="700"
    bbox="-22 -305 1126 992"
    underline-thickness="50"
    underline-position="-100"
    unicode-range="U+0020-FE69"
  />
<missing-glyph horiz-adv-x="136" 
 />
    <glyph glyph-name="fi" unicode="fi" horiz-adv-x="547" 
d="M400 629q0 22 15.5 38t37.5 16t37.5 -16t15.5 -38t-15.5 -37t-37.5 -15t-37.5 15t-15.5 37zM496 500v-500h-87v428h-213v-428h-88v428h-98v72h98v52q0 83 40 123t106 40q51 0 101 -22v-75q-44 25 -89 25q-70 0 -70 -88v-55h300z" />
    <glyph glyph-name="fl" unicode="fl" horiz-adv-x="547" 
d="M409 500v210h87v-710h-87v428h-213v-428h-88v428h-98v72h98v52q0 83 40 123t106 40q51 0 101 -22v-75q-44 25 -89 25q-70 0 -70 -88v-55h213z" />
    <glyph glyph-name=".notdef" horiz-adv-x="136" 
 />
    <glyph glyph-name=".null" horiz-adv-x="0" 
 />
    <glyph glyph-name="nonmarkingreturn" horiz-adv-x="333" 
 />
    <glyph glyph-name="space" unicode=" " horiz-adv-x="250" 
 />
    <glyph glyph-name="exclam" unicode="!" horiz-adv-x="219" 
d="M73 202l-28 498h129l-27 -498h-74zM48 55q0 25 17.5 43t42.5 18t43 -18t18 -43t-18 -42t-43 -17q-26 0 -43 17t-17 42z" />
    <glyph glyph-name="quotedbl" unicode="&#x22;" horiz-adv-x="359" 
d="M220 446l8 254h79l-44 -254h-43zM58 446l8 254h79l-44 -254h-43z" />
    <glyph glyph-name="numbersign" unicode="#" horiz-adv-x="678" 
d="M125 0l29 165h-108v67h119l41 238h-120v68h132l28 162h68l-28 -162h168l28 162h69l-28 -162h107v-68h-118l-42 -238h120v-67h-131l-29 -165h-68l28 165h-168l-28 -165h-69zM234 232h168l41 238h-168z" />
    <glyph glyph-name="dollar" unicode="$" horiz-adv-x="569" 
d="M54 520q0 76 55.5 129.5t147.5 63.5v87h73v-86q64 -5 113.5 -29.5t100.5 -70.5l-56 -66q-75 70 -158 81v-228q41 -11 66.5 -19.5t58.5 -25.5t52 -36t33 -50t14 -70q0 -83 -60.5 -143t-163.5 -70v-87h-73v86q-129 10 -222 106l56 66q77 -74 166 -85v248q-36 10 -61 19
t-54 25.5t-46.5 36t-29.5 50t-12 68.5zM458 200q0 40 -32.5 62t-95.5 40v-227q53 11 90.5 47.5t37.5 77.5zM140 523q0 -39 30 -62t87 -40v207q-49 -8 -83 -35.5t-34 -69.5z" />
    <glyph glyph-name="percent" unicode="%" horiz-adv-x="718" 
d="M534 48q40 0 65 26.5t25 66.5t-24.5 66.5t-65.5 26.5t-66 -26t-25 -67q0 -40 25 -66.5t66 -26.5zM534 283q63 0 101 -40t38 -102q0 -61 -38 -101t-101 -40t-101 40t-38 101q0 62 38 102t101 40zM183 699q63 0 101.5 -40.5t38.5 -101.5q0 -62 -38.5 -102t-101.5 -40
t-101 40t-38 102q0 61 38 101.5t101 40.5zM183 464q41 0 66 26.5t25 66.5t-25 66t-66 26t-66 -26t-25 -66t25 -66.5t66 -26.5zM127 0h-67l533 700h66z" />
    <glyph glyph-name="ampersand" unicode="&#x26;" horiz-adv-x="710" 
d="M572 0l-79 72q-94 -87 -210 -87q-113 0 -173.5 54t-60.5 137q0 59 41.5 98.5t114.5 77.5q-102 102 -102 179q0 74 63 129t162 55q98 0 149.5 -50t51.5 -128q0 -36 -17.5 -67.5t-51.5 -56.5t-61 -40t-68 -35l171 -157q39 52 88 154h98q-4 -8 -27 -50.5t-33.5 -60.5
t-30.5 -49t-38 -53l129 -122h-116zM297 50q80 0 148 72l-190 176q-24 -14 -38.5 -23.5t-33.5 -26t-28 -36t-9 -41.5q0 -52 41 -86.5t110 -34.5zM190 532q0 -57 94 -147q44 20 73.5 37.5t56.5 49t27 65.5q0 49 -33.5 78.5t-85.5 29.5q-53 0 -92.5 -30.5t-39.5 -82.5z" />
    <glyph glyph-name="quotesingle" unicode="'" horiz-adv-x="199" 
d="M58 446l8 254h79l-44 -254h-43z" />
    <glyph glyph-name="parenleft" unicode="(" horiz-adv-x="426" 
d="M137 297q0 -120 58.5 -227t183.5 -181l-35 -49q-291 151 -291 457t291 457l35 -49q-125 -74 -183.5 -181.5t-58.5 -226.5z" />
    <glyph glyph-name="parenright" unicode=")" horiz-adv-x="419" 
d="M287 297q0 119 -58.5 226.5t-182.5 181.5l34 49q292 -152 292 -457t-292 -457l-34 49q125 74 183 181t58 227z" />
    <glyph glyph-name="asterisk" unicode="*" horiz-adv-x="474" 
d="M245 564l125 92l37 -60l-147 -61l147 -61l-37 -60l-125 92l20 -152h-70l21 152l-125 -92l-36 60l146 61l-146 61l36 60l125 -92l-21 153h70z" />
    <glyph glyph-name="plus" unicode="+" horiz-adv-x="635" 
d="M57 253v66h226v225h67v-225h227v-66h-227v-226h-67v226h-226z" />
    <glyph glyph-name="comma" unicode="," horiz-adv-x="302" 
d="M57 -148l56 281h108l-106 -281h-58z" />
    <glyph glyph-name="hyphen" unicode="-" horiz-adv-x="399" 
d="M55 255v74h287v-74h-287z" />
    <glyph glyph-name="period" unicode="." horiz-adv-x="250" 
d="M57 55q0 25 17.5 43t42.5 18t43.5 -18t18.5 -43t-18 -42t-44 -17t-43 17t-17 42z" />
    <glyph glyph-name="slash" unicode="/" horiz-adv-x="454" 
d="M67 -100h-67l385 850h69z" />
    <glyph glyph-name="zero" unicode="0" horiz-adv-x="589" 
d="M293 67q59 0 99.5 69.5t40.5 213.5q0 143 -40.5 212t-99.5 69q-60 0 -100 -68.5t-40 -212.5t40 -213.5t100 -69.5zM293 715q110 0 175.5 -92t65.5 -273q0 -182 -65 -273.5t-176 -91.5t-176 91.5t-65 273.5q0 181 65.5 273t175.5 92z" />
    <glyph glyph-name="one" unicode="1" horiz-adv-x="559" 
d="M515 91v-91h-455v91h177v498l-163 -92l-38 70l251 143h50v-619h178z" />
    <glyph glyph-name="two" unicode="2" horiz-adv-x="572" 
d="M105 522l-62 56q96 137 238 137q101 0 160 -57.5t59 -146.5q0 -28 -8 -56.5t-17 -51t-35 -55.5t-43 -53.5t-60.5 -62.5t-67.5 -64.5t-84 -76.5h328v-91h-466v77q56 56 127.5 123t104 98t66 69.5t45.5 67t12 59.5q0 54 -32 89.5t-88 35.5q-59 0 -99 -21.5t-78 -75.5z" />
    <glyph glyph-name="three" unicode="3" horiz-adv-x="555" 
d="M276 631q-49 0 -89 -24.5t-60 -66.5l-71 38q34 67 91.5 102t128.5 35q95 0 153.5 -52t58.5 -126q0 -59 -35.5 -105.5t-95.5 -62.5q71 -15 111.5 -61t40.5 -113q0 -86 -67.5 -148t-169.5 -62q-71 0 -132 35t-94 101l71 38q18 -40 62 -66t90 -26q55 0 97.5 37t42.5 88
q0 62 -48.5 97t-123.5 35h-60v84h76q57 0 96 36t39 93q0 37 -31 65.5t-81 28.5z" />
    <glyph glyph-name="four" unicode="4" horiz-adv-x="589" 
d="M455 0h-101v176h-318l-21 46l358 488h82v-463h116v-71h-116v-176zM354 583l-242 -336h242v336z" />
    <glyph glyph-name="five" unicode="5" horiz-adv-x="554" 
d="M242 67q60 0 103.5 41t43.5 106q0 67 -34 108t-104 41q-65 0 -125 -50l-58 34l88 353h330v-92h-269l-54 -201q47 31 116 31q106 0 164.5 -67.5t58.5 -156.5q0 -92 -72 -160.5t-178 -68.5q-70 0 -127 35t-89 101l71 38q44 -92 135 -92z" />
    <glyph glyph-name="six" unicode="6" horiz-adv-x="582" 
d="M291 -15q-121 0 -185 82.5t-64 207.5q0 198 105 316.5t306 118.5v-87q-134 0 -219 -67.5t-102 -183.5q46 80 166 80q107 0 174 -67t67 -167q0 -103 -72 -168t-176 -65zM142 221q0 -67 43.5 -111.5t105.5 -44.5t106.5 44.5t44.5 111.5q0 66 -44.5 111.5t-106.5 45.5
q-61 0 -105 -45.5t-44 -111.5z" />
    <glyph glyph-name="seven" unicode="7" horiz-adv-x="551" 
d="M517 640l-293 -640h-110l277 603h-357v97h483v-60z" />
    <glyph glyph-name="eight" unicode="8" horiz-adv-x="572" 
d="M48 185q0 71 40.5 117.5t105.5 63.5q-55 15 -89 57t-34 108q0 75 60.5 129.5t151.5 54.5q96 0 155 -54.5t59 -129.5q0 -66 -35 -108.5t-90 -57.5q65 -17 105 -63t40 -117q0 -86 -65 -143t-169 -57t-169.5 57t-65.5 143zM149 193q0 -56 38 -93t96 -37q59 0 96.5 37
t37.5 93q0 57 -38 96.5t-96 39.5q-59 0 -96.5 -40t-37.5 -96zM167 523q0 -48 33 -83.5t83 -35.5t83 35.5t33 83.5t-33 80t-83 32t-83 -32t-33 -80z" />
    <glyph glyph-name="nine" unicode="9" horiz-adv-x="588" 
d="M290 710q121 0 185 -82.5t64 -207.5q0 -198 -105 -316.5t-306 -118.5v87q134 0 219 67.5t102 183.5q-46 -80 -166 -80q-107 0 -174 67t-67 167q0 103 72 168t176 65zM439 474q0 67 -43.5 111.5t-105.5 44.5t-106.5 -44.5t-44.5 -111.5q0 -66 44.5 -111.5t106.5 -45.5
q61 0 105 45.5t44 111.5z" />
    <glyph glyph-name="colon" unicode=":" horiz-adv-x="261" 
d="M50 55q0 25 17.5 43t42.5 18t43.5 -18t18.5 -43t-18 -42t-44 -17t-43 17t-17 42zM50 439q0 26 17.5 43.5t42.5 17.5q26 0 44 -18t18 -43t-18 -42.5t-44 -17.5t-43 17.5t-17 42.5z" />
    <glyph glyph-name="semicolon" unicode=";" horiz-adv-x="290" 
d="M44 -148l57 281h108l-106 -281h-59zM87 439q0 25 17.5 43t42.5 18q26 0 44 -18t18 -43t-18 -42.5t-44 -17.5q-25 0 -42.5 17.5t-17.5 42.5z" />
    <glyph glyph-name="less" unicode="&#x3c;" horiz-adv-x="630" 
d="M566 36l-516 210v63l516 208v-65l-434 -175l434 -176v-65z" />
    <glyph glyph-name="equal" unicode="=" horiz-adv-x="631" 
d="M50 379v66h519v-66h-519zM50 123v65h519v-65h-519z" />
    <glyph glyph-name="greater" unicode="&#x3e;" horiz-adv-x="619" 
d="M556 246l-517 -210v65l434 176l-434 175v65l517 -208v-63z" />
    <glyph glyph-name="question" unicode="?" horiz-adv-x="532" 
d="M307 254q0 -6 -1 -16t-1.5 -18.5t-0.5 -17.5h-94q0 40 1 59q1 41 15 73t34 50t43.5 35t43 29.5t32.5 32t13 44.5q0 52 -38 83t-92 31q-50 0 -88 -19.5t-74 -66.5l-53 55q85 107 227 107q103 0 161 -49.5t58 -131.5q0 -37 -18 -65.5t-44 -47.5t-52.5 -39t-47 -52.5
t-24.5 -75.5zM186 55q0 25 17.5 43t42.5 18t43 -18t18 -43t-18 -42t-43 -17q-26 0 -43 17t-17 42z" />
    <glyph glyph-name="at" unicode="@" horiz-adv-x="980" 
d="M679 55q80 9 121.5 80.5t41.5 165.5q0 60 -22 113.5t-64.5 97t-113 69t-159.5 25.5q-166 0 -271.5 -107.5t-105.5 -264.5q0 -154 108 -252.5t279 -99.5v-56q-195 0 -318.5 115t-123.5 293q0 181 120.5 304.5t311.5 123.5q99 0 180 -31t131.5 -82t77.5 -115t27 -133
q0 -141 -81.5 -222t-210.5 -81v57q-63 -64 -156 -64q-97 0 -157 68t-60 169q0 102 60 171t157 69q92 0 156 -69v55h72v-399zM476 65q69 0 122 53v219q-53 55 -122 55q-66 0 -111.5 -48.5t-45.5 -115.5q0 -68 45.5 -115.5t111.5 -47.5z" />
    <glyph glyph-name="A" unicode="A" horiz-adv-x="699" 
d="M307 707h106q47 -117 140.5 -353.5t140.5 -353.5h-103l-60 150h-343l-59 -150h-103q47 117 140.5 353.5t140.5 353.5zM360 591q-10 -26 -62 -156t-79 -200h282q-10 26 -62 156t-79 200z" />
    <glyph glyph-name="B" unicode="B" horiz-adv-x="614" 
d="M371 0h-311v700h289q80 0 133.5 -50t53.5 -123q0 -56 -29.5 -100t-78.5 -63q69 -18 109 -67t40 -109q0 -81 -59 -134.5t-147 -53.5zM338 318h-178v-236h178q59 0 98.5 33t39.5 88q0 49 -39.5 82t-98.5 33zM160 617v-220h174q47 0 78 32t31 78q0 49 -35.5 79.5t-88.5 30.5
h-159z" />
    <glyph glyph-name="C" unicode="C" horiz-adv-x="730" 
d="M137 350q0 -112 75 -189t188 -77q68 0 124.5 30.5t91.5 83.5l82 -58q-50 -72 -128.5 -113.5t-169.5 -41.5q-152 0 -258.5 106.5t-106.5 258.5t106.5 258.5t258.5 106.5q91 0 169.5 -41.5t128.5 -113.5l-82 -59q-35 53 -91.5 83.5t-124.5 30.5q-113 0 -188 -77t-75 -188z
" />
    <glyph glyph-name="D" unicode="D" horiz-adv-x="677" 
d="M60 700h238q153 0 248.5 -101.5t95.5 -248.5q0 -149 -95.5 -249.5t-248.5 -100.5h-238v700zM297 602h-137v-505h137q105 0 174 73t69 178q0 106 -69 180t-174 74z" />
    <glyph glyph-name="E" unicode="E" horiz-adv-x="569" 
d="M160 400h295v-88h-295v-222h375v-90h-475v700h469v-91h-369v-209z" />
    <glyph glyph-name="F" unicode="F" horiz-adv-x="549" 
d="M160 302v-302h-100v700h469v-92h-369v-214h305v-92h-305z" />
    <glyph glyph-name="G" unicode="G" horiz-adv-x="738" 
d="M698 560l-82 -59q-35 53 -91.5 83.5t-124.5 30.5q-113 0 -188 -77t-75 -188q0 -113 75 -190t188 -77q122 0 197 93v110h-217v78h319v-223q-50 -72 -129 -114t-170 -42q-152 0 -258.5 106.5t-106.5 258.5t106.5 258.5t258.5 106.5q91 0 169.5 -41.5t128.5 -113.5z" />
    <glyph glyph-name="H" unicode="H" horiz-adv-x="687" 
d="M526 0v316h-366v-316h-100v700h100v-292h366v292h101v-700h-101z" />
    <glyph glyph-name="I" unicode="I" horiz-adv-x="221" 
d="M160 700v-700h-100v700h100z" />
    <glyph glyph-name="J" unicode="J" horiz-adv-x="434" 
d="M275 193v507h102v-508q0 -32 -1.5 -53t-12 -53.5t-29.5 -51.5t-57 -34t-92 -15q-102 0 -180 68l45 71q60 -50 121 -50q55 0 79.5 30t24.5 89z" />
    <glyph glyph-name="K" unicode="K" horiz-adv-x="625" 
d="M490 0l-305 359l288 341h115l-292 -341l318 -359h-124zM60 0v700h100v-700h-100z" />
    <glyph glyph-name="L" unicode="L" horiz-adv-x="544" 
d="M531 91v-91h-471v700h100v-609h371z" />
    <glyph glyph-name="M" unicode="M" horiz-adv-x="800" 
d="M408 205h-17l-240 329v-534h-91v707h69l270 -371l271 371h70v-707h-92v534z" />
    <glyph glyph-name="N" unicode="N" horiz-adv-x="687" 
d="M627 700v-707h-49l-418 509v-502h-100v707h48l418 -511v504h101z" />
    <glyph glyph-name="O" unicode="O" horiz-adv-x="789" 
d="M394 -15q-151 0 -255 106.5t-104 258.5t104 258.5t255 106.5q150 0 255 -106.5t105 -258.5t-105 -258.5t-255 -106.5zM651 350q0 112 -72.5 188.5t-184.5 76.5t-184 -76.5t-72 -188.5q0 -113 72 -190t184 -77q113 0 185 77t72 190z" />
    <glyph glyph-name="P" unicode="P" horiz-adv-x="608" 
d="M347 257h-187v-257h-100v700h287q97 0 163.5 -65t66.5 -158t-66.5 -156.5t-163.5 -63.5zM160 608v-259h178q58 0 97.5 36.5t39.5 91.5t-40 93t-97 38h-178z" />
    <glyph glyph-name="Q" unicode="Q" horiz-adv-x="792" 
d="M394 -15q-151 0 -255 106.5t-104 258.5t104 258.5t255 106.5q150 0 255 -106.5t105 -258.5q0 -127 -77 -226l105 -93l-65 -77l-112 100q-95 -69 -211 -69zM394 615q-112 0 -184.5 -76.5t-72.5 -188.5q0 -113 72.5 -190t184.5 -77q77 0 136 37l-77 70l66 74l84 -75
q48 70 48 161q0 112 -72.5 188.5t-184.5 76.5z" />
    <glyph glyph-name="R" unicode="R" horiz-adv-x="627" 
d="M489 0l-184 257h-145v-257h-100v700h287q97 0 163.5 -65t66.5 -158q0 -76 -48 -132.5t-122 -71.5l193 -273h-111zM160 608v-260h178q58 0 98 37t40 92t-40.5 93t-97.5 38h-178z" />
    <glyph glyph-name="S" unicode="S" horiz-adv-x="588" 
d="M146 523q0 -42 42 -67.5t102 -40t120 -34t102 -64.5t42 -117q0 -91 -72 -153t-191 -62q-152 0 -256 107l56 76q92 -87 200 -87q65 0 116 35t51 84q0 35 -30 58.5t-75 33.5t-97 26t-97 35t-75 62t-30 105q0 84 67 139.5t174 55.5q79 0 135.5 -24t113.5 -77l-56 -76
q-45 43 -90 63t-104 20q-61 0 -104.5 -24t-43.5 -74z" />
    <glyph glyph-name="T" unicode="T" horiz-adv-x="620" 
d="M368 608v-608h-101v608h-235v92h571v-92h-235z" />
    <glyph glyph-name="U" unicode="U" horiz-adv-x="673" 
d="M153 700v-442q0 -74 51 -127t132 -53q83 0 132.5 50.5t49.5 129.5v442h101v-437q0 -119 -77 -198.5t-206 -79.5q-131 0 -207.5 78.5t-76.5 199.5v437h101z" />
    <glyph glyph-name="V" unicode="V" horiz-adv-x="678" 
d="M111 700l227 -579l227 579h107l-280 -707h-107l-280 707h106z" />
    <glyph glyph-name="W" unicode="W" horiz-adv-x="968" 
d="M436 707h95l166 -562l159 555h106l-214 -707h-97l-168 564l-167 -564h-97l-214 707h106l159 -555z" />
    <glyph glyph-name="X" unicode="X" horiz-adv-x="668" 
d="M15 0l257 357l-247 343h123l185 -258l186 258h123l-248 -343l258 -357h-123l-196 271l-195 -271h-123z" />
    <glyph glyph-name="Y" unicode="Y" horiz-adv-x="651" 
d="M5 700h112l207 -358l208 358h113l-270 -454v-246h-100v246z" />
    <glyph glyph-name="Z" unicode="Z" horiz-adv-x="581" 
d="M550 700v-66l-387 -543h396v-91h-538v65l387 543h-375v92h517z" />
    <glyph glyph-name="bracketleft" unicode="[" horiz-adv-x="314" 
d="M64 -169v922h240v-67h-156v-788h156v-67h-240z" />
    <glyph glyph-name="backslash" unicode="\" horiz-adv-x="454" 
d="M454 -100h-69l-385 850h67z" />
    <glyph glyph-name="bracketright" unicode="]" horiz-adv-x="314" 
d="M248 753v-922h-238v67h154v788h-154v67h238z" />
    <glyph glyph-name="asciicircum" unicode="^" horiz-adv-x="502" 
d="M387 424l-137 202l-138 -202h-77l188 285h51l190 -285h-77z" />
    <glyph glyph-name="underscore" unicode="_" horiz-adv-x="676" 
d="M35 -179v68h642v-68h-642z" />
    <glyph glyph-name="grave" unicode="`" horiz-adv-x="360" 
d="M208 580l-151 165h106l107 -165h-62z" />
    <glyph glyph-name="a" unicode="a" horiz-adv-x="531" 
d="M200 -15q-74 0 -117 39t-43 107q0 53 24 88t72.5 53.5t108 26t144.5 7.5v17q0 121 -131 121q-86 0 -161 -65l-40 55q93 81 212 81q110 0 158.5 -54.5t48.5 -136.5v-324h-87v93q-30 -48 -80.5 -78t-108.5 -30zM230 59q86 0 159 109v81q-43 0 -67.5 -0.5t-60 -3.5
t-55.5 -10.5t-40.5 -19t-29.5 -31.5t-9 -46q0 -42 25.5 -60.5t77.5 -18.5z" />
    <glyph glyph-name="b" unicode="b" horiz-adv-x="596" 
d="M311 514q109 0 180 -76.5t71 -187.5t-71 -188t-180 -77q-57 0 -109 28.5t-77 74.5v-88h-78v710h87v-288q26 43 73 67.5t104 24.5zM475 250q0 75 -51.5 128t-126.5 53q-51 0 -95.5 -26.5t-67.5 -69.5v-173q24 -42 68.5 -68.5t94.5 -26.5q75 0 126.5 53.5t51.5 129.5z" />
    <glyph glyph-name="c" unicode="c" horiz-adv-x="543" 
d="M33 250q0 110 75.5 187.5t184.5 77.5q67 0 122.5 -30.5t91.5 -83.5l-63 -49q-62 81 -150 81q-71 0 -124.5 -55t-53.5 -128q0 -74 53.5 -129t124.5 -55q88 0 150 81l63 -48q-36 -53 -91.5 -83.5t-122.5 -30.5q-109 0 -184.5 77.5t-75.5 187.5z" />
    <glyph glyph-name="d" unicode="d" horiz-adv-x="596" 
d="M284 514q56 0 103.5 -24.5t73.5 -67.5v288h88v-710h-79v88q-26 -46 -78 -74.5t-108 -28.5q-109 0 -180 77t-71 188t71 187.5t180 76.5zM120 250q0 -76 51 -129.5t126 -53.5q51 0 95.5 26t68.5 69v173q-23 43 -68 69.5t-96 26.5q-75 0 -126 -53t-51 -128z" />
    <glyph glyph-name="e" unicode="e" 
d="M33 250q0 111 73 188t182 77t175 -69t66 -193q0 -9 -3 -33h-405q9 -69 60.5 -115.5t119.5 -46.5q93 0 164 78l42 -50q-81 -101 -215 -101q-109 0 -184 77.5t-75 187.5zM288 445q-70 0 -117 -46.5t-53 -119.5h331q-4 75 -47.5 120.5t-113.5 45.5z" />
    <glyph glyph-name="f" unicode="f" horiz-adv-x="359" 
d="M196 555v-55h158v-72h-158v-428h-88v428h-98v72h98v52q0 83 40 123t106 40q51 0 101 -22v-75q-44 25 -89 25q-70 0 -70 -88z" />
    <glyph glyph-name="g" unicode="g" horiz-adv-x="595" 
d="M284 -14q-109 0 -180 76.5t-71 187.5t71 188t180 77q56 0 107.5 -29.5t78.5 -75.5v90h79v-475q0 -115 -74.5 -177.5t-179.5 -62.5q-122 0 -230 74l37 59q92 -66 188 -66q70 0 120.5 41t50.5 120v63q-26 -43 -73 -66.5t-104 -23.5zM120 250q0 -77 51 -130t126 -53
q51 0 96 26.5t68 69.5v173q-24 43 -68.5 69t-95.5 26q-74 0 -125.5 -53t-51.5 -128z" />
    <glyph glyph-name="h" unicode="h" horiz-adv-x="543" 
d="M414 0v279q0 147 -121 147q-82 0 -159 -94v-332h-87v710h87v-294q89 97 189 97q83 0 131 -52t48 -149v-312h-88z" />
    <glyph glyph-name="i" unicode="i" horiz-adv-x="187" 
d="M50 0v500h87v-500h-87zM40 629q0 22 16 38t38 16q21 0 36.5 -16t15.5 -38t-15.5 -37t-36.5 -15q-22 0 -38 15t-16 37z" />
    <glyph glyph-name="j" unicode="j" horiz-adv-x="187" 
d="M50 -204v704h87v-704h-87zM40 629q0 22 16 38t38 16q21 0 36.5 -16t15.5 -38t-15.5 -37t-36.5 -15q-22 0 -38 15t-16 37z" />
    <glyph glyph-name="k" unicode="k" horiz-adv-x="499" 
d="M387 0l-214 264l204 236h97l-204 -236l214 -264h-97zM50 710h87v-710h-87v710z" />
    <glyph glyph-name="l" unicode="l" horiz-adv-x="185" 
d="M47 710h87v-710h-87v710z" />
    <glyph glyph-name="m" unicode="m" horiz-adv-x="804" 
d="M135 316v-316h-88v500h81v-90q70 103 167 103q116 0 135 -121q65 121 180 121q74 0 113.5 -50.5t39.5 -129.5v-333h-88v306q0 115 -87 115q-50 0 -81 -26t-58 -79v-316h-88v306q0 115 -87 115q-49 0 -80.5 -26t-58.5 -79z" />
    <glyph glyph-name="n" unicode="n" horiz-adv-x="542" 
d="M414 0v279q0 75 -34 111.5t-86 36.5q-80 0 -160 -100v-327h-87v500h78v-91q90 104 198 104q82 0 130.5 -52.5t48.5 -148.5v-312h-88z" />
    <glyph glyph-name="o" unicode="o" horiz-adv-x="584" 
d="M292 -15q-109 0 -184.5 77.5t-75.5 187.5t75.5 187.5t184.5 77.5t184 -77.5t75 -187.5t-75 -187.5t-184 -77.5zM464 250q0 75 -49 128t-123 53t-123.5 -53t-49.5 -128q0 -77 49.5 -130t123.5 -53t123 53t49 130z" />
    <glyph glyph-name="p" unicode="p" horiz-adv-x="596" 
d="M311 -14q-58 0 -104.5 23.5t-72.5 66.5v-280h-87v704h78v-90q26 46 77.5 75.5t108.5 29.5q109 0 180 -77t71 -188t-71 -187.5t-180 -76.5zM475 250q0 75 -51.5 128t-126.5 53q-50 0 -94.5 -26.5t-68.5 -68.5v-173q23 -43 67.5 -69.5t95.5 -26.5q75 0 126.5 53t51.5 130z
" />
    <glyph glyph-name="q" unicode="q" horiz-adv-x="596" 
d="M470 410v90h79v-704h-88v280q-26 -43 -73 -66.5t-104 -23.5q-109 0 -180 76.5t-71 187.5t71 188t180 77q56 0 108 -29.5t78 -75.5zM120 250q0 -77 51 -130t126 -53q51 0 96 26.5t68 69.5v173q-24 43 -68.5 69t-95.5 26q-74 0 -125.5 -53t-51.5 -128z" />
    <glyph glyph-name="r" unicode="r" horiz-adv-x="316" 
d="M303 513v-89q-111 0 -166 -104v-320h-87v500h81v-88q55 101 172 101z" />
    <glyph glyph-name="s" unicode="s" horiz-adv-x="477" 
d="M364 140q0 25 -23 39.5t-58 19.5t-75 15t-75 22.5t-58 44.5t-23 81q0 64 50 108.5t143 44.5q114 0 193 -78l-44 -53q-36 35 -70 48t-79 13q-48 0 -78.5 -25.5t-30.5 -56.5q0 -33 32 -50t78 -24t92.5 -17.5t78.5 -42t32 -85.5q0 -74 -53.5 -116.5t-154.5 -42.5
q-126 0 -213 80l43 59q82 -69 170 -69q59 0 91 25t32 60z" />
    <glyph glyph-name="t" unicode="t" horiz-adv-x="375" 
d="M196 428v-259q0 -60 16.5 -84.5t55.5 -24.5q45 0 87 18v-70q-52 -20 -118 -20q-68 0 -98.5 45t-30.5 149v246h-98v72h98v117h88v-117h158v-72h-158z" />
    <glyph glyph-name="u" unicode="u" horiz-adv-x="539" 
d="M124 500v-291q0 -138 120 -138q84 0 159 101v328h89v-500h-79v90q-89 -103 -197 -103q-83 0 -131 51.5t-48 148.5v313h87z" />
    <glyph glyph-name="v" unicode="v" horiz-adv-x="526" 
d="M309 -7h-93l-211 507h94l163 -403l163 403h95z" />
    <glyph glyph-name="w" unicode="w" horiz-adv-x="760" 
d="M418 507l125 -383l123 376h88l-167 -507h-82l-126 384l-125 -384h-82l-167 507h88l123 -376l124 383h78z" />
    <glyph glyph-name="x" unicode="x" horiz-adv-x="535" 
d="M267 309l134 191h110l-191 -245l201 -255h-111l-143 196l-142 -196h-112l196 255l-186 245h111z" />
    <glyph glyph-name="y" unicode="y" horiz-adv-x="520" 
d="M126 -204l86 204l-207 500h95l160 -388l159 388h96l-296 -704h-93z" />
    <glyph glyph-name="z" unicode="z" horiz-adv-x="510" 
d="M163 77h319v-77h-455v53l310 369h-304v78h440v-54z" />
    <glyph glyph-name="braceleft" unicode="{" horiz-adv-x="400" 
d="M34 319h30q42 0 62 37t20 98v87q0 53 6 82.5t28.5 57t67 45t120.5 32.5l10 -60q-53 -14 -82 -26t-43.5 -31.5t-17.5 -37.5t-3 -56v-117q0 -50 -25 -88t-71 -52q46 -14 71 -52t25 -88v-117q0 -37 3.5 -56.5t18.5 -38t43.5 -30t80.5 -25.5l-10 -59q-94 19 -142 44t-64 58
t-16 91v129q0 49 -22 82t-60 33h-30v58z" />
    <glyph glyph-name="bar" unicode="|" horiz-adv-x="206" 
d="M63 -128v886h78v-886h-78z" />
    <glyph glyph-name="braceright" unicode="}" horiz-adv-x="400" 
d="M334 319h30v-58h-30q-38 0 -60 -32.5t-22 -82.5v-129q0 -58 -16 -91t-64 -58t-142 -44l-10 59q52 14 81 26t43.5 31t18 38t3.5 55v117q0 50 25 88t71 52q-46 14 -71 52t-25 88v117q0 38 -3.5 56.5t-18 38t-43.5 31.5t-81 25l10 60q76 -15 120 -32.5t66.5 -45t29 -57
t6.5 -82.5v-87q0 -135 82 -135z" />
    <glyph glyph-name="asciitilde" unicode="~" horiz-adv-x="640" 
d="M59 249v67q56 55 126 55q45 0 134 -33t133 -33q69 0 127 58v-66q-57 -57 -127 -57q-46 0 -135 33t-133 33q-68 0 -125 -57z" />
    <glyph glyph-name="uni00A0" unicode="&#xa0;" horiz-adv-x="250" 
 />
    <glyph glyph-name="exclamdown" unicode="&#xa1;" horiz-adv-x="219" 
d="M146 309l28 -498h-129l27 498h74zM171 456q0 -25 -17.5 -43t-42.5 -18t-43 18t-18 43t18 42t43 17q26 0 43 -17t17 -42z" />
    <glyph glyph-name="cent" unicode="&#xa2;" horiz-adv-x="534" 
d="M32 250q0 110 75.5 187.5t184.5 77.5h4l17 85h76l-19 -97q83 -27 136 -102q-7 -5 -31.5 -24.5t-31.5 -24.5q-37 48 -90 69l-71 -355h10q89 0 151 81q5 -4 30 -23.5t33 -24.5q-37 -53 -92.5 -83.5t-121.5 -30.5q-6 0 -26 2l-17 -87h-76l21 104q-73 30 -117.5 97t-44.5 149
zM115 250q0 -51 26.5 -94t69.5 -68l68 344q-66 -5 -115 -59t-49 -123z" />
    <glyph glyph-name="sterling" unicode="&#xa3;" horiz-adv-x="578" 
d="M28 362v68h78v59q0 111 57.5 171t160.5 60q114 0 210 -86l-35 -56q-42 34 -80.5 51.5t-89.5 17.5q-62 0 -100.5 -43.5t-38.5 -114.5v-59h256v-68h-256v-286h345v-76h-429v362h-78z" />
    <glyph glyph-name="yen" unicode="&#xa5;" horiz-adv-x="624" 
d="M362 108v-108h-101v108h-207v63h207v72h-207v63h170l-212 394h114l185 -358l186 358h113l-212 -394h171v-63h-207v-72h207v-63h-207z" />
    <glyph glyph-name="brokenbar" unicode="&#xa6;" horiz-adv-x="206" 
d="M63 -128v358h78v-358h-78zM63 400v358h78v-358h-78z" />
    <glyph glyph-name="section" unicode="&#xa7;" horiz-adv-x="584" 
d="M280 19q41 0 75.5 19t34.5 54q0 32 -35.5 50t-86 27.5t-101.5 23.5t-86.5 48.5t-35.5 90.5q0 19 5 37t19 39.5t45 37.5t76 22q-88 33 -88 103q0 59 56.5 97.5t144.5 38.5q122 0 193 -70l-26 -58q-67 61 -168 61q-42 0 -76 -20t-34 -54q0 -32 35.5 -50t86 -28t101.5 -23.5
t86.5 -47.5t35.5 -89q0 -19 -5.5 -37.5t-19.5 -40t-45 -37.5t-75 -22q88 -36 88 -103q0 -59 -56 -97t-145 -38q-121 0 -193 69l26 58q67 -61 168 -61zM137 332q0 -26 28 -47t63.5 -31.5t75.5 -16.5q141 0 141 91q0 38 -49.5 61t-117.5 32q-70 0 -105.5 -24t-35.5 -65z" />
    <glyph glyph-name="dieresis" unicode="&#xa8;" horiz-adv-x="582" 
d="M354 638q0 23 16 39.5t39 16.5t39 -16.5t16 -39.5t-16 -38t-39 -15t-39 15t-16 38zM142 638q0 23 16 39.5t38 16.5q23 0 39 -16.5t16 -39.5t-16 -38t-39 -15t-38.5 15t-15.5 38z" />
    <glyph glyph-name="copyright" unicode="&#xa9;" horiz-adv-x="830" 
d="M414 715q151 0 256 -108t105 -257t-105 -257t-256 -108t-256 108t-105 257t105 257t256 108zM526 255l37 -38q-65 -62 -146 -62t-137 58.5t-56 141.5q0 82 56 140.5t137 58.5q46 0 79 -15.5t67 -48.5l-37 -37q-50 47 -108 47t-98.5 -43t-40.5 -102t41 -103t98 -44
q60 0 108 47zM414 30q133 0 223.5 94t90.5 226q0 131 -90.5 225t-223.5 94q-134 0 -225.5 -94t-91.5 -225q0 -132 91.5 -226t225.5 -94z" />
    <glyph glyph-name="ordfeminine" unicode="&#xaa;" horiz-adv-x="436" 
d="M94 597l-31 39q67 59 162 59q148 0 148 -125v-247h-63v55q-57 -65 -140 -65q-57 0 -90 27.5t-33 76.5q0 39 20.5 64.5t60 38t81.5 17t101 4.5v20q0 33 -20.5 59.5t-65.5 26.5q-29 0 -65.5 -13.5t-64.5 -36.5zM194 360q25 0 57.5 14.5t58.5 43.5v88q-37 0 -63.5 -2
t-59.5 -9t-51 -24.5t-18 -43.5q0 -67 76 -67z" />
    <glyph glyph-name="guillemotleft" unicode="&#xab;" horiz-adv-x="479" 
d="M215 244l201 212l33 -31l-151 -188l151 -188l-33 -31l-201 212v14zM30 244l201 212l33 -31l-151 -188l151 -188l-33 -31l-201 212v14z" />
    <glyph glyph-name="logicalnot" unicode="&#xac;" horiz-adv-x="425" 
d="M37 257v74h349v-229h-58v155h-291z" />
    <glyph glyph-name="uni00AD" unicode="&#xad;" horiz-adv-x="399" 
d="M55 255v74h287v-74h-287z" />
    <glyph glyph-name="registered" unicode="&#xae;" horiz-adv-x="830" 
d="M414 715q151 0 256 -108t105 -257t-105 -257t-256 -108t-256 108t-105 257t105 257t256 108zM414 30q133 0 223.5 94t90.5 226q0 131 -90.5 225t-223.5 94q-134 0 -225.5 -94t-91.5 -225q0 -132 91.5 -226t225.5 -94zM347 304v-141h-58v380h146q60 0 95.5 -33t35.5 -86
q0 -41 -26 -72t-68 -39l94 -150h-61l-87 141h-71zM430 491h-83v-134h86q35 0 55 21t20 47q0 29 -19 47.5t-59 18.5z" />
    <glyph glyph-name="macron" unicode="&#xaf;" horiz-adv-x="450" 
d="M74 605v57h301v-57h-301z" />
    <glyph glyph-name="degree" unicode="&#xb0;" horiz-adv-x="380" 
d="M189 423q-61 0 -106.5 45t-45.5 105q0 59 45.5 104t106.5 45t106.5 -45t45.5 -104q0 -60 -45.5 -105t-106.5 -45zM189 669q-39 0 -68 -29t-29 -67q0 -39 29 -68t68 -29t67.5 29t28.5 68q0 38 -28.5 67t-67.5 29z" />
    <glyph glyph-name="plusminus" unicode="&#xb1;" horiz-adv-x="640" 
d="M286 120v179h-227v65h227v179h67v-179h226v-65h-226v-179h-67zM566 0h-499v65h499v-65z" />
    <glyph glyph-name="twosuperior" unicode="&#xb2;" horiz-adv-x="357" 
d="M81 622l-29 34q52 61 129 61q58 0 88 -32.5t30 -84.5q0 -12 -3.5 -24t-8 -22.5t-15 -25.5t-18.5 -24.5t-25 -28.5t-27.5 -29.5t-34 -34.5t-36.5 -37h175v-50h-254v44q33 33 73.5 72.5t56.5 56t34 37.5t23 35t5 31q0 29 -18.5 49t-52.5 20q-52 0 -92 -47z" />
    <glyph glyph-name="threesuperior" unicode="&#xb3;" horiz-adv-x="342" 
d="M93 620l-40 21q16 36 47 56t68 20q53 0 82.5 -28.5t29.5 -69.5q0 -33 -19.5 -58.5t-52.5 -34.5q38 -8 60 -35.5t22 -65.5q0 -47 -34 -78.5t-90 -31.5q-82 0 -118 75l39 22q23 -49 72 -49q30 0 48.5 19t18.5 46q0 35 -19 54.5t-55 19.5h-33v44h42q27 0 44.5 18.5
t17.5 49.5q0 24 -14 39.5t-41 15.5q-24 0 -44.5 -13t-30.5 -36z" />
    <glyph glyph-name="acute" unicode="&#xb4;" horiz-adv-x="360" 
d="M270 745l-151 -165h-62l108 165h105z" />
    <glyph glyph-name="mu" unicode="&#xb5;" horiz-adv-x="605" 
d="M396 211v-68h-193v-143h-101v143h-87v68h87v70h-87v67h87v352h241q98 0 163 -59t65 -152q0 -95 -66 -151.5t-162 -56.5h-140v-70h193zM203 608v-260h129q58 0 98 37t40 92t-40.5 93t-97.5 38h-129z" />
    <glyph glyph-name="paragraph" unicode="&#xb6;" horiz-adv-x="543" 
d="M438 625h-45v-786h-63v410h-6q-117 0 -195.5 62t-78.5 162q0 86 58 147.5t149 71.5q69 8 161 8h74v-861h-54v786z" />
    <glyph glyph-name="periodcentered" unicode="&#xb7;" horiz-adv-x="263" 
d="M69 316q0 25 18 43t43 18t43 -18t18 -43t-18 -43t-43 -18q-26 0 -43.5 17.5t-17.5 43.5z" />
    <glyph glyph-name="cedilla" unicode="&#xb8;" horiz-adv-x="500" 
d="M288 9l-52 -68q21 8 47 8q34 0 55 -20.5t21 -54.5q0 -38 -32.5 -63.5t-91.5 -25.5q-54 0 -109 25l11 32q43 -19 84 -19q35 0 54.5 14.5t19.5 36.5q0 18 -12.5 30t-32.5 12q-32 0 -49 -10l-30 20l59 83h58z" />
    <glyph glyph-name="onesuperior" unicode="&#xb9;" horiz-adv-x="357" 
d="M306 374v-50h-247v50h98v273l-85 -48l-22 40l135 76h29v-341h92z" />
    <glyph glyph-name="ordmasculine" unicode="&#xba;" horiz-adv-x="482" 
d="M238 313q-82 0 -136.5 56t-54.5 136t54.5 136t136.5 56q83 0 137.5 -56t54.5 -136q0 -81 -54.5 -136.5t-137.5 -55.5zM238 373q58 0 94.5 38t36.5 94q0 55 -37 93t-94 38t-94 -38t-37 -93q0 -56 37 -94t94 -38z" />
    <glyph glyph-name="guillemotright" unicode="&#xbb;" horiz-adv-x="479" 
d="M63 456l201 -212v-14l-201 -212l-33 31l151 188l-151 188zM248 456l201 -212v-14l-201 -212l-33 31l151 188l-151 188z" />
    <glyph glyph-name="onequarter" unicode="&#xbc;" horiz-adv-x="817" 
d="M306 374v-50h-247v50h98v273l-85 -48l-22 40l135 76h29v-341h92zM202 0h-67l532 700h67zM702 0h-57v94h-180l-9 30l196 269h50v-260h64v-39h-64v-94zM645 316l-133 -183h133v183z" />
    <glyph glyph-name="onehalf" unicode="&#xbd;" horiz-adv-x="838" 
d="M50 639l135 76h29v-341h92v-50h-247v50h98v273l-85 -48zM135 0l532 700h67l-532 -700h-67zM507 332q52 61 129 61q58 0 88 -32t30 -83q0 -14 -3 -27t-12 -28t-17 -26.5t-26 -31.5t-30 -32.5t-38.5 -39t-42.5 -43.5h176v-50h-254v44q33 34 73 73t56.5 55.5t34 37t23 35
t5.5 31.5q0 29 -19 49t-52 20q-53 0 -93 -47z" />
    <glyph glyph-name="threequarters" unicode="&#xbe;" horiz-adv-x="776" 
d="M162 0h-67l532 700h66zM93 620l-40 21q16 36 47 56t68 20q53 0 82.5 -28.5t29.5 -69.5q0 -33 -19.5 -58.5t-52.5 -34.5q38 -8 60 -35.5t22 -65.5q0 -47 -34 -78.5t-90 -31.5q-82 0 -118 75l39 22q23 -49 72 -49q30 0 48.5 19t18.5 46q0 35 -19 54.5t-55 19.5h-33v44h42
q27 0 44.5 18.5t17.5 49.5q0 24 -14 39.5t-41 15.5q-24 0 -44.5 -13t-30.5 -36zM661 0h-57v94h-180l-9 30l196 269h50v-260h64v-39h-64v-94zM604 316l-133 -183h133v183z" />
    <glyph glyph-name="questiondown" unicode="&#xbf;" horiz-adv-x="522" 
d="M203 256q0 6 1 16t1.5 18.5t0.5 17.5h94q0 -40 -1 -59q-1 -41 -15 -73t-34 -50t-43.5 -35t-43 -29.5t-32.5 -32t-13 -44.5q0 -52 38 -83t92 -31q50 0 88 19.5t74 66.5l53 -55q-85 -107 -227 -107q-103 0 -161 49.5t-58 131.5q0 37 18 65.5t44 47.5t52.5 39t47 52.5
t24.5 75.5zM324 455q0 -25 -17.5 -43t-42.5 -18t-43 18t-18 43t18 42t43 17q26 0 43 -17t17 -42z" />
    <glyph glyph-name="Agrave" unicode="&#xc0;" horiz-adv-x="699" 
d="M307 707h106q47 -117 140.5 -353.5t140.5 -353.5h-103l-60 150h-343l-59 -150h-103q47 117 140.5 353.5t140.5 353.5zM360 591q-10 -26 -62 -156t-79 -200h282q-10 26 -62 156t-79 200zM394 780l-151 165h106l107 -165h-62z" />
    <glyph glyph-name="Aacute" unicode="&#xc1;" horiz-adv-x="699" 
d="M307 707h106q47 -117 140.5 -353.5t140.5 -353.5h-103l-60 150h-343l-59 -150h-103q47 117 140.5 353.5t140.5 353.5zM360 591q-10 -26 -62 -156t-79 -200h282q-10 26 -62 156t-79 200zM480 945l-151 -165h-62l108 165h105z" />
    <glyph glyph-name="Acircumflex" unicode="&#xc2;" horiz-adv-x="699" 
d="M307 707h106q47 -117 140.5 -353.5t140.5 -353.5h-103l-60 150h-343l-59 -150h-103q47 117 140.5 353.5t140.5 353.5zM360 591q-10 -26 -62 -156t-79 -200h282q-10 26 -62 156t-79 200zM403 945l126 -165h-63l-108 113l-107 -113h-62l126 165h88z" />
    <glyph glyph-name="Atilde" unicode="&#xc3;" horiz-adv-x="699" 
d="M307 707h106q47 -117 140.5 -353.5t140.5 -353.5h-103l-60 150h-343l-59 -150h-103q47 117 140.5 353.5t140.5 353.5zM360 591q-10 -26 -62 -156t-79 -200h282q-10 26 -62 156t-79 200zM266 920q34 0 87.5 -28t78.5 -28q46 0 70 59h50q-13 -58 -45 -89.5t-75 -31.5
q-38 0 -92 27.5t-74 27.5q-47 0 -68 -59h-52q13 58 45.5 90t74.5 32z" />
    <glyph glyph-name="Adieresis" unicode="&#xc4;" horiz-adv-x="699" 
d="M307 707h106q47 -117 140.5 -353.5t140.5 -353.5h-103l-60 150h-343l-59 -150h-103q47 117 140.5 353.5t140.5 353.5zM360 591q-10 -26 -62 -156t-79 -200h282q-10 26 -62 156t-79 200zM409 838q0 23 16 39.5t39 16.5t39 -16.5t16 -39.5t-16 -38t-39 -15t-39 15t-16 38z
M197 838q0 23 16 39.5t38 16.5q23 0 39 -16.5t16 -39.5t-16 -38t-39 -15t-38.5 15t-15.5 38z" />
    <glyph glyph-name="Aring" unicode="&#xc5;" horiz-adv-x="699" 
d="M307 707h106q47 -117 140.5 -353.5t140.5 -353.5h-103l-60 150h-343l-59 -150h-103q47 117 140.5 353.5t140.5 353.5zM360 591q-10 -26 -62 -156t-79 -200h282q-10 26 -62 156t-79 200zM422 886q0 26 -18 43.5t-45 17.5q-26 0 -44 -17.5t-18 -43.5q0 -27 18 -45t44 -18
t44.5 18t18.5 45zM469 886q0 -45 -32.5 -76t-77.5 -31t-77.5 31t-32.5 76q0 43 33 74.5t77 31.5q45 0 77.5 -31.5t32.5 -74.5z" />
    <glyph glyph-name="AE" unicode="&#xc6;" horiz-adv-x="1051" 
d="M642 400h295v-88h-295v-222h375v-90h-476v154h-319l-116 -154h-101l507 700h499v-91h-369v-209zM541 590l-269 -357h269v357z" />
    <glyph glyph-name="Ccedilla" unicode="&#xc7;" horiz-adv-x="730" 
d="M137 350q0 -112 75 -189t188 -77q68 0 124.5 30.5t91.5 83.5l82 -58q-51 -72 -130 -113.5t-172 -41.5l-40 -53q21 8 47 8q34 0 55 -20.5t21 -54.5q0 -38 -32.5 -63.5t-91.5 -25.5q-54 0 -109 25l11 32q43 -19 84 -19q35 0 54.5 14.5t19.5 36.5q0 18 -12.5 30t-32.5 12
q-32 0 -49 -10l-30 20l51 73q-132 20 -219.5 122t-87.5 238q0 152 106.5 258.5t258.5 106.5q91 0 169.5 -41.5t128.5 -113.5l-82 -59q-35 53 -91.5 83.5t-124.5 30.5q-113 0 -188 -77t-75 -188z" />
    <glyph glyph-name="Egrave" unicode="&#xc8;" horiz-adv-x="569" 
d="M160 400h295v-88h-295v-222h375v-90h-475v700h469v-91h-369v-209zM311 780l-151 165h106l107 -165h-62z" />
    <glyph glyph-name="Eacute" unicode="&#xc9;" horiz-adv-x="569" 
d="M160 400h295v-88h-295v-222h375v-90h-475v700h469v-91h-369v-209zM431 945l-151 -165h-62l108 165h105z" />
    <glyph glyph-name="Ecircumflex" unicode="&#xca;" horiz-adv-x="569" 
d="M160 400h295v-88h-295v-222h375v-90h-475v700h469v-91h-369v-209zM339 945l126 -165h-63l-108 113l-107 -113h-62l126 165h88z" />
    <glyph glyph-name="Edieresis" unicode="&#xcb;" horiz-adv-x="569" 
d="M160 400h295v-88h-295v-222h375v-90h-475v700h469v-91h-369v-209zM353 838q0 23 16 39.5t39 16.5t39 -16.5t16 -39.5t-16 -38t-39 -15t-39 15t-16 38zM141 838q0 23 16 39.5t38 16.5q23 0 39 -16.5t16 -39.5t-16 -38t-39 -15t-38.5 15t-15.5 38z" />
    <glyph glyph-name="Igrave" unicode="&#xcc;" horiz-adv-x="221" 
d="M141 780l-141 165h104l99 -165h-62zM160 700v-700h-100v700h100z" />
    <glyph glyph-name="Iacute" unicode="&#xcd;" horiz-adv-x="221" 
d="M221 945l-142 -165h-62l98 165h106zM160 700v-700h-100v700h100z" />
    <glyph glyph-name="Icircumflex" unicode="&#xce;" horiz-adv-x="221" 
d="M154 945l79 -165h-62l-61 113l-60 -113h-62l79 165h87zM160 700v-700h-100v700h100z" />
    <glyph glyph-name="Idieresis" unicode="&#xcf;" horiz-adv-x="221" 
d="M134 831q0 22 12.5 36.5t29.5 14.5q19 0 31.5 -14.5t12.5 -36.5q0 -21 -12.5 -35.5t-31.5 -14.5q-17 0 -29.5 14.5t-12.5 35.5zM0 831q0 22 12 36.5t30 14.5q19 0 31.5 -14.5t12.5 -36.5q0 -21 -12.5 -35.5t-31.5 -14.5q-18 0 -30 14.5t-12 35.5zM160 700v-700h-100v700
h100z" />
    <glyph glyph-name="Eth" unicode="&#xd0;" horiz-adv-x="689" 
d="M64 319h-60v65h60v316h206q171 0 276 -96.5t105 -253.5q0 -159 -104.5 -254.5t-276.5 -95.5h-206v319zM165 384h135v-65h-135v-219h139q106 0 175.5 71.5t69.5 176.5t-70 177.5t-175 72.5h-139v-214z" />
    <glyph glyph-name="Ntilde" unicode="&#xd1;" horiz-adv-x="687" 
d="M627 700v-707h-49l-418 509v-502h-100v707h48l418 -511v504h101zM260 920q34 0 87.5 -28t78.5 -28q46 0 70 59h50q-13 -58 -45 -89.5t-75 -31.5q-38 0 -92 27.5t-74 27.5q-47 0 -68 -59h-52q13 58 45.5 90t74.5 32z" />
    <glyph glyph-name="Ograve" unicode="&#xd2;" horiz-adv-x="789" 
d="M394 -15q-151 0 -255 106.5t-104 258.5t104 258.5t255 106.5q150 0 255 -106.5t105 -258.5t-105 -258.5t-255 -106.5zM651 350q0 112 -72.5 188.5t-184.5 76.5t-184 -76.5t-72 -188.5q0 -113 72 -190t184 -77q113 0 185 77t72 190zM436 780l-151 165h106l107 -165h-62z
" />
    <glyph glyph-name="Oacute" unicode="&#xd3;" horiz-adv-x="789" 
d="M394 -15q-151 0 -255 106.5t-104 258.5t104 258.5t255 106.5q150 0 255 -106.5t105 -258.5t-105 -258.5t-255 -106.5zM651 350q0 112 -72.5 188.5t-184.5 76.5t-184 -76.5t-72 -188.5q0 -113 72 -190t184 -77q113 0 185 77t72 190zM522 945l-151 -165h-62l108 165h105z
" />
    <glyph glyph-name="Ocircumflex" unicode="&#xd4;" horiz-adv-x="789" 
d="M394 -15q-151 0 -255 106.5t-104 258.5t104 258.5t255 106.5q150 0 255 -106.5t105 -258.5t-105 -258.5t-255 -106.5zM651 350q0 112 -72.5 188.5t-184.5 76.5t-184 -76.5t-72 -188.5q0 -113 72 -190t184 -77q113 0 185 77t72 190zM438 945l126 -165h-63l-108 113
l-107 -113h-62l126 165h88z" />
    <glyph glyph-name="Otilde" unicode="&#xd5;" horiz-adv-x="789" 
d="M394 -15q-151 0 -255 106.5t-104 258.5t104 258.5t255 106.5q150 0 255 -106.5t105 -258.5t-105 -258.5t-255 -106.5zM651 350q0 112 -72.5 188.5t-184.5 76.5t-184 -76.5t-72 -188.5q0 -113 72 -190t184 -77q113 0 185 77t72 190zM311 920q34 0 87.5 -28t78.5 -28
q46 0 70 59h50q-13 -58 -45 -89.5t-75 -31.5q-39 0 -92 27.5t-74 27.5q-47 0 -68 -59h-52q13 58 45.5 90t74.5 32z" />
    <glyph glyph-name="Odieresis" unicode="&#xd6;" horiz-adv-x="789" 
d="M394 -15q-151 0 -255 106.5t-104 258.5t104 258.5t255 106.5q150 0 255 -106.5t105 -258.5t-105 -258.5t-255 -106.5zM651 350q0 112 -72.5 188.5t-184.5 76.5t-184 -76.5t-72 -188.5q0 -113 72 -190t184 -77q113 0 185 77t72 190zM446 838q0 23 16 39.5t39 16.5
t39 -16.5t16 -39.5t-16 -38t-39 -15t-39 15t-16 38zM234 838q0 23 16 39.5t38 16.5q23 0 39 -16.5t16 -39.5t-16 -38t-39 -15t-38.5 15t-15.5 38z" />
    <glyph glyph-name="multiply" unicode="&#xd7;" horiz-adv-x="640" 
d="M95 462l47 47l177 -176l175 176l48 -48l-176 -175l177 -177l-47 -47l-176 177l-176 -175l-47 47l175 176z" />
    <glyph glyph-name="Oslash" unicode="&#xd8;" horiz-adv-x="794" 
d="M397 -15q-123 0 -218 74l-55 -59h-87l93 103q-93 101 -93 247q0 152 104.5 258.5t255.5 106.5q122 0 216 -75l55 60h87l-93 -104q94 -105 94 -246q0 -152 -104.5 -258.5t-254.5 -106.5zM654 350q0 96 -59 169l-351 -385q66 -50 154 -50q110 0 183 76.5t73 189.5zM140 350
q0 -98 56 -170l351 384q-66 50 -152 50q-111 0 -183 -76t-72 -188z" />
    <glyph glyph-name="Ugrave" unicode="&#xd9;" horiz-adv-x="673" 
d="M153 700v-442q0 -74 51 -127t132 -53q83 0 132.5 50.5t49.5 129.5v442h101v-437q0 -119 -77 -198.5t-206 -79.5q-131 0 -207.5 78.5t-76.5 199.5v437h101zM364 780l-151 165h106l107 -165h-62z" />
    <glyph glyph-name="Uacute" unicode="&#xda;" horiz-adv-x="673" 
d="M153 700v-442q0 -74 51 -127t132 -53q83 0 132.5 50.5t49.5 129.5v442h101v-437q0 -119 -77 -198.5t-206 -79.5q-131 0 -207.5 78.5t-76.5 199.5v437h101zM457 945l-151 -165h-62l108 165h105z" />
    <glyph glyph-name="Ucircumflex" unicode="&#xdb;" horiz-adv-x="673" 
d="M153 700v-442q0 -74 51 -127t132 -53q83 0 132.5 50.5t49.5 129.5v442h101v-437q0 -119 -77 -198.5t-206 -79.5q-131 0 -207.5 78.5t-76.5 199.5v437h101zM380 945l126 -165h-63l-108 113l-107 -113h-62l126 165h88z" />
    <glyph glyph-name="Udieresis" unicode="&#xdc;" horiz-adv-x="673" 
d="M153 700v-442q0 -74 51 -127t132 -53q83 0 132.5 50.5t49.5 129.5v442h101v-437q0 -119 -77 -198.5t-206 -79.5q-131 0 -207.5 78.5t-76.5 199.5v437h101zM387 838q0 23 16 39.5t39 16.5t39 -16.5t16 -39.5t-16 -38t-39 -15t-39 15t-16 38zM175 838q0 23 16 39.5t38 16.5
q23 0 39 -16.5t16 -39.5t-16 -38t-39 -15t-38.5 15t-15.5 38z" />
    <glyph glyph-name="Yacute" unicode="&#xdd;" horiz-adv-x="651" 
d="M5 700h112l207 -358l208 358h113l-270 -454v-246h-100v246zM460 945l-151 -165h-62l108 165h105z" />
    <glyph glyph-name="Thorn" unicode="&#xde;" horiz-adv-x="606" 
d="M160 700v-133h187q95 0 162 -65.5t67 -157.5t-66.5 -155t-162.5 -63h-187v-126h-102v700h102zM160 476v-259h176q58 0 98 36.5t40 92.5q0 55 -40 92.5t-98 37.5h-176z" />
    <glyph glyph-name="germandbls" unicode="&#xdf;" horiz-adv-x="596" 
d="M522 530q0 -123 -149 -158q95 -15 145 -61t50 -114q0 -96 -75 -146.5t-249 -50.5v71q115 0 171.5 34t56.5 96q0 54 -54 88.5t-174 35.5v70q98 4 141.5 43t43.5 92q0 42 -37 80t-98 38q-74 0 -110 -45.5t-36 -126.5v-476h-87v475q0 112 60.5 178t174.5 66q110 0 168 -55.5
t58 -133.5z" />
    <glyph glyph-name="agrave" unicode="&#xe0;" horiz-adv-x="531" 
d="M200 -15q-74 0 -117 39t-43 107q0 53 24 88t72.5 53.5t108 26t144.5 7.5v17q0 121 -131 121q-86 0 -161 -65l-40 55q93 81 212 81q110 0 158.5 -54.5t48.5 -136.5v-324h-87v93q-30 -48 -80.5 -78t-108.5 -30zM230 59q86 0 159 109v81q-43 0 -67.5 -0.5t-60 -3.5
t-55.5 -10.5t-40.5 -19t-29.5 -31.5t-9 -46q0 -42 25.5 -60.5t77.5 -18.5zM299 580l-151 165h106l107 -165h-62z" />
    <glyph glyph-name="aacute" unicode="&#xe1;" horiz-adv-x="531" 
d="M200 -15q-74 0 -117 39t-43 107q0 53 24 88t72.5 53.5t108 26t144.5 7.5v17q0 121 -131 121q-86 0 -161 -65l-40 55q93 81 212 81q110 0 158.5 -54.5t48.5 -136.5v-324h-87v93q-30 -48 -80.5 -78t-108.5 -30zM230 59q86 0 159 109v81q-43 0 -67.5 -0.5t-60 -3.5
t-55.5 -10.5t-40.5 -19t-29.5 -31.5t-9 -46q0 -42 25.5 -60.5t77.5 -18.5zM403 745l-151 -165h-62l108 165h105z" />
    <glyph glyph-name="acircumflex" unicode="&#xe2;" horiz-adv-x="531" 
d="M200 -15q-74 0 -117 39t-43 107q0 53 24 88t72.5 53.5t108 26t144.5 7.5v17q0 121 -131 121q-86 0 -161 -65l-40 55q93 81 212 81q110 0 158.5 -54.5t48.5 -136.5v-324h-87v93q-30 -48 -80.5 -78t-108.5 -30zM230 59q86 0 159 109v81q-43 0 -67.5 -0.5t-60 -3.5
t-55.5 -10.5t-40.5 -19t-29.5 -31.5t-9 -46q0 -42 25.5 -60.5t77.5 -18.5zM315 745l126 -165h-63l-108 113l-107 -113h-62l126 165h88z" />
    <glyph glyph-name="atilde" unicode="&#xe3;" horiz-adv-x="531" 
d="M200 -15q-74 0 -117 39t-43 107q0 53 24 88t72.5 53.5t108 26t144.5 7.5v17q0 121 -131 121q-86 0 -161 -65l-40 55q93 81 212 81q110 0 158.5 -54.5t48.5 -136.5v-324h-87v93q-30 -48 -80.5 -78t-108.5 -30zM230 59q86 0 159 109v81q-43 0 -67.5 -0.5t-60 -3.5
t-55.5 -10.5t-40.5 -19t-29.5 -31.5t-9 -46q0 -42 25.5 -60.5t77.5 -18.5zM188 720q34 0 87.5 -28t78.5 -28q46 0 70 59h50q-13 -58 -45 -89.5t-75 -31.5q-38 0 -92 27.5t-74 27.5q-47 0 -68 -59h-52q13 58 45.5 90t74.5 32z" />
    <glyph glyph-name="adieresis" unicode="&#xe4;" horiz-adv-x="531" 
d="M200 -15q-74 0 -117 39t-43 107q0 53 24 88t72.5 53.5t108 26t144.5 7.5v17q0 121 -131 121q-86 0 -161 -65l-40 55q93 81 212 81q110 0 158.5 -54.5t48.5 -136.5v-324h-87v93q-30 -48 -80.5 -78t-108.5 -30zM230 59q86 0 159 109v81q-43 0 -67.5 -0.5t-60 -3.5
t-55.5 -10.5t-40.5 -19t-29.5 -31.5t-9 -46q0 -42 25.5 -60.5t77.5 -18.5zM324 638q0 23 16 39.5t39 16.5t39 -16.5t16 -39.5t-16 -38t-39 -15t-39 15t-16 38zM112 638q0 23 16 39.5t38 16.5q23 0 39 -16.5t16 -39.5t-16 -38t-39 -15t-38.5 15t-15.5 38z" />
    <glyph glyph-name="aring" unicode="&#xe5;" horiz-adv-x="531" 
d="M200 -15q-74 0 -117 39t-43 107q0 53 24 88t72.5 53.5t108 26t144.5 7.5v17q0 121 -131 121q-86 0 -161 -65l-40 55q93 81 212 81q110 0 158.5 -54.5t48.5 -136.5v-324h-87v93q-30 -48 -80.5 -78t-108.5 -30zM230 59q86 0 159 109v81q-43 0 -67.5 -0.5t-60 -3.5
t-55.5 -10.5t-40.5 -19t-29.5 -31.5t-9 -46q0 -42 25.5 -60.5t77.5 -18.5zM332 686q0 26 -18 43.5t-45 17.5q-26 0 -44 -17.5t-18 -43.5q0 -27 18 -45t44 -18t44.5 18t18.5 45zM379 686q0 -45 -32.5 -76t-77.5 -31t-77.5 31t-32.5 76q0 43 33 74.5t77 31.5q45 0 77.5 -31.5
t32.5 -74.5z" />
    <glyph glyph-name="ae" unicode="&#xe6;" horiz-adv-x="933" 
d="M205 -15q-79 0 -123 39t-44 107q0 35 11 60.5t35 42.5t52 27.5t72.5 15.5t85 6.5t99.5 1.5v41q0 118 -131 118q-91 0 -166 -65l-40 55q93 81 211 81q144 0 192 -100q34 47 85.5 73.5t113.5 26.5q110 0 175.5 -67t65.5 -190q0 -7 -3 -31h-408q4 -70 59.5 -119.5
t123.5 -49.5q93 0 164 78l38 -51q-81 -100 -211 -100q-72 0 -131 35.5t-93 95.5q-97 -131 -233 -131zM658 445q-69 0 -120 -46.5t-52 -114.5h336q-4 74 -48.5 117.5t-115.5 43.5zM229 49q89 0 164 116v69q-45 0 -73.5 -1t-63 -4t-54.5 -9.5t-39 -17t-27.5 -27.5t-8.5 -40
q0 -86 102 -86z" />
    <glyph glyph-name="ccedilla" unicode="&#xe7;" horiz-adv-x="543" 
d="M33 250q0 110 75.5 187.5t184.5 77.5q67 0 122.5 -30.5t91.5 -83.5l-63 -49q-62 81 -150 81q-71 0 -124.5 -55t-53.5 -128q0 -74 53.5 -129t124.5 -55q88 0 150 81l63 -48q-69 -101 -190 -112l-41 -55q21 8 47 8q34 0 55 -20.5t21 -54.5q0 -38 -32.5 -63.5t-91.5 -25.5
q-54 0 -109 25l11 32q43 -19 84 -19q35 0 54.5 14.5t19.5 36.5q0 18 -12.5 30t-32.5 12q-32 0 -49 -10l-30 20l49 70q-98 12 -162.5 87t-64.5 176z" />
    <glyph glyph-name="egrave" unicode="&#xe8;" 
d="M33 250q0 111 73 188t182 77t175 -69t66 -193q0 -9 -3 -33h-405q9 -69 60.5 -115.5t119.5 -46.5q93 0 164 78l42 -50q-81 -101 -215 -101q-109 0 -184 77.5t-75 187.5zM288 445q-70 0 -117 -46.5t-53 -119.5h331q-4 75 -47.5 120.5t-113.5 45.5zM326 580l-151 165h106
l107 -165h-62z" />
    <glyph glyph-name="eacute" unicode="&#xe9;" 
d="M33 250q0 111 73 188t182 77t175 -69t66 -193q0 -9 -3 -33h-405q9 -69 60.5 -115.5t119.5 -46.5q93 0 164 78l42 -50q-81 -101 -215 -101q-109 0 -184 77.5t-75 187.5zM288 445q-70 0 -117 -46.5t-53 -119.5h331q-4 75 -47.5 120.5t-113.5 45.5zM425 745l-151 -165h-62
l108 165h105z" />
    <glyph glyph-name="ecircumflex" unicode="&#xea;" 
d="M33 250q0 111 73 188t182 77t175 -69t66 -193q0 -9 -3 -33h-405q9 -69 60.5 -115.5t119.5 -46.5q93 0 164 78l42 -50q-81 -101 -215 -101q-109 0 -184 77.5t-75 187.5zM288 445q-70 0 -117 -46.5t-53 -119.5h331q-4 75 -47.5 120.5t-113.5 45.5zM325 745l126 -165h-63
l-108 113l-107 -113h-62l126 165h88z" />
    <glyph glyph-name="edieresis" unicode="&#xeb;" 
d="M33 250q0 111 73 188t182 77t175 -69t66 -193q0 -9 -3 -33h-405q9 -69 60.5 -115.5t119.5 -46.5q93 0 164 78l42 -50q-81 -101 -215 -101q-109 0 -184 77.5t-75 187.5zM288 445q-70 0 -117 -46.5t-53 -119.5h331q-4 75 -47.5 120.5t-113.5 45.5zM333 638q0 23 16 39.5
t39 16.5t39 -16.5t16 -39.5t-16 -38t-39 -15t-39 15t-16 38zM121 638q0 23 16 39.5t38 16.5q23 0 39 -16.5t16 -39.5t-16 -38t-39 -15t-38.5 15t-15.5 38z" />
    <glyph glyph-name="igrave" unicode="&#xec;" horiz-adv-x="187" 
d="M124 580l-124 165h105l82 -165h-63zM50 0v500h87v-500h-87z" />
    <glyph glyph-name="iacute" unicode="&#xed;" horiz-adv-x="187" 
d="M187 745l-125 -165h-62l81 165h106zM50 0v500h87v-500h-87z" />
    <glyph glyph-name="icircumflex" unicode="&#xee;" horiz-adv-x="187" 
d="M137 745l66 -165h-62l-47 113l-53 -113h-61l70 165h87zM50 0v500h87v-500h-87z" />
    <glyph glyph-name="idieresis" unicode="&#xef;" horiz-adv-x="187" 
d="M111 631q0 22 11.5 37t28.5 15t29 -15t12 -37q0 -21 -12 -36t-29 -15t-28.5 15t-11.5 36zM-4 631q0 22 10.5 37t27.5 15t29.5 -15t12.5 -37q0 -21 -12.5 -36t-29.5 -15t-27.5 14.5t-10.5 36.5zM50 0v500h87v-500h-87z" />
    <glyph glyph-name="eth" unicode="&#xf0;" horiz-adv-x="605" 
d="M374 721l-69 -81q129 -98 181.5 -183t52.5 -188q0 -129 -69 -206.5t-185 -77.5q-107 0 -178.5 69.5t-71.5 180.5q0 102 69 167t177 65q92 0 154 -59q-33 74 -174 181l-70 -82l-40 31l70 81l-80 57l39 53l84 -59l70 81zM451 228q0 69 -47 118t-118 49q-70 0 -117 -49
t-47 -118t47 -118t117 -49q71 0 118 49t47 118z" />
    <glyph glyph-name="ntilde" unicode="&#xf1;" horiz-adv-x="542" 
d="M414 0v279q0 75 -34 111.5t-86 36.5q-80 0 -160 -100v-327h-87v500h78v-91q90 104 198 104q82 0 130.5 -52.5t48.5 -148.5v-312h-88zM194 720q34 0 87.5 -28t78.5 -28q46 0 70 59h50q-13 -58 -45 -89.5t-75 -31.5q-38 0 -91.5 27.5t-74.5 27.5q-47 0 -68 -59h-52
q13 58 45.5 90t74.5 32z" />
    <glyph glyph-name="ograve" unicode="&#xf2;" horiz-adv-x="584" 
d="M292 -15q-109 0 -184.5 77.5t-75.5 187.5t75.5 187.5t184.5 77.5t184 -77.5t75 -187.5t-75 -187.5t-184 -77.5zM464 250q0 75 -49 128t-123 53t-123.5 -53t-49.5 -128q0 -77 49.5 -130t123.5 -53t123 53t49 130zM323 580l-151 165h106l107 -165h-62z" />
    <glyph glyph-name="oacute" unicode="&#xf3;" horiz-adv-x="584" 
d="M292 -15q-109 0 -184.5 77.5t-75.5 187.5t75.5 187.5t184.5 77.5t184 -77.5t75 -187.5t-75 -187.5t-184 -77.5zM464 250q0 75 -49 128t-123 53t-123.5 -53t-49.5 -128q0 -77 49.5 -130t123.5 -53t123 53t49 130zM423 745l-151 -165h-62l108 165h105z" />
    <glyph glyph-name="ocircumflex" unicode="&#xf4;" horiz-adv-x="584" 
d="M292 -15q-109 0 -184.5 77.5t-75.5 187.5t75.5 187.5t184.5 77.5t184 -77.5t75 -187.5t-75 -187.5t-184 -77.5zM464 250q0 75 -49 128t-123 53t-123.5 -53t-49.5 -128q0 -77 49.5 -130t123.5 -53t123 53t49 130zM335 745l126 -165h-63l-108 113l-107 -113h-62l126 165h88
z" />
    <glyph glyph-name="otilde" unicode="&#xf5;" horiz-adv-x="584" 
d="M292 -15q-109 0 -184.5 77.5t-75.5 187.5t75.5 187.5t184.5 77.5t184 -77.5t75 -187.5t-75 -187.5t-184 -77.5zM464 250q0 75 -49 128t-123 53t-123.5 -53t-49.5 -128q0 -77 49.5 -130t123.5 -53t123 53t49 130zM208 720q34 0 87.5 -28t78.5 -28q46 0 70 59h50
q-13 -58 -45 -89.5t-75 -31.5q-38 0 -92 27.5t-74 27.5q-47 0 -68 -59h-52q13 58 45.5 90t74.5 32z" />
    <glyph glyph-name="odieresis" unicode="&#xf6;" horiz-adv-x="584" 
d="M292 -15q-109 0 -184.5 77.5t-75.5 187.5t75.5 187.5t184.5 77.5t184 -77.5t75 -187.5t-75 -187.5t-184 -77.5zM464 250q0 75 -49 128t-123 53t-123.5 -53t-49.5 -128q0 -77 49.5 -130t123.5 -53t123 53t49 130zM343 638q0 23 16 39.5t39 16.5t39 -16.5t16 -39.5t-16 -38
t-39 -15t-39 15t-16 38zM131 638q0 23 16 39.5t38 16.5q23 0 39 -16.5t16 -39.5t-16 -38t-39 -15t-38.5 15t-15.5 38z" />
    <glyph glyph-name="divide" unicode="&#xf7;" horiz-adv-x="640" 
d="M270 111q0 20 14 34.5t35 14.5q20 0 34 -14.5t14 -34.5q0 -21 -14 -35.5t-34 -14.5q-21 0 -35 14.5t-14 35.5zM270 460q0 21 14 35.5t35 14.5q20 0 34 -14.5t14 -35.5q0 -20 -14.5 -34t-33.5 -14q-21 0 -35 14t-14 34zM579 253h-520v66h520v-66z" />
    <glyph glyph-name="oslash" unicode="&#xf8;" horiz-adv-x="580" 
d="M290 -15q-90 0 -157 53l-35 -38h-63l62 70q-67 75 -67 180q0 110 75.5 187.5t184.5 77.5q86 0 155 -54l35 39h65l-64 -72q68 -76 68 -178q0 -110 -75 -187.5t-184 -77.5zM461 250q0 62 -37 112l-236 -260q41 -35 107 -35q72 0 119 53.5t47 129.5zM117 250q0 -66 38 -113
l235 259q-42 35 -106 35q-71 0 -119 -53.5t-48 -127.5z" />
    <glyph glyph-name="ugrave" unicode="&#xf9;" horiz-adv-x="539" 
d="M124 500v-291q0 -138 120 -138q84 0 159 101v328h89v-500h-79v90q-89 -103 -197 -103q-83 0 -131 51.5t-48 148.5v313h87zM305 580l-151 165h106l107 -165h-62z" />
    <glyph glyph-name="uacute" unicode="&#xfa;" horiz-adv-x="539" 
d="M124 500v-291q0 -138 120 -138q84 0 159 101v328h89v-500h-79v90q-89 -103 -197 -103q-83 0 -131 51.5t-48 148.5v313h87zM400 745l-151 -165h-62l108 165h105z" />
    <glyph glyph-name="ucircumflex" unicode="&#xfb;" horiz-adv-x="539" 
d="M124 500v-291q0 -138 120 -138q84 0 159 101v328h89v-500h-79v90q-89 -103 -197 -103q-83 0 -131 51.5t-48 148.5v313h87zM310 745l126 -165h-63l-108 113l-107 -113h-62l126 165h88z" />
    <glyph glyph-name="udieresis" unicode="&#xfc;" horiz-adv-x="539" 
d="M124 500v-291q0 -138 120 -138q84 0 159 101v328h89v-500h-79v90q-89 -103 -197 -103q-83 0 -131 51.5t-48 148.5v313h87zM321 638q0 23 16 39.5t39 16.5t39 -16.5t16 -39.5t-16 -38t-39 -15t-39 15t-16 38zM109 638q0 23 16 39.5t38 16.5q23 0 39 -16.5t16 -39.5
t-16 -38t-39 -15t-38.5 15t-15.5 38z" />
    <glyph glyph-name="yacute" unicode="&#xfd;" horiz-adv-x="520" 
d="M126 -204l86 204l-207 500h95l160 -388l159 388h96l-296 -704h-93zM395 745l-151 -165h-62l108 165h105z" />
    <glyph glyph-name="thorn" unicode="&#xfe;" horiz-adv-x="602" 
d="M328 -15q-59 0 -110 30.5t-77 82.5v-302h-87v914h87v-309q26 51 77 82.5t110 31.5q107 0 174 -76.5t67 -188.5t-67 -188.5t-174 -76.5zM477 250q0 75 -51 128t-126 53q-51 0 -93 -26t-66 -69v-173q24 -44 66 -70t93 -26q75 0 126 53.5t51 129.5z" />
    <glyph glyph-name="ydieresis" unicode="&#xff;" horiz-adv-x="520" 
d="M126 -204l86 204l-207 500h95l160 -388l159 388h96l-296 -704h-93zM312 638q0 23 16 39.5t39 16.5t39 -16.5t16 -39.5t-16 -38t-39 -15t-39 15t-16 38zM100 638q0 23 16 39.5t38 16.5q23 0 39 -16.5t16 -39.5t-16 -38t-39 -15t-38.5 15t-15.5 38z" />
    <glyph glyph-name="Amacron" unicode="&#x100;" horiz-adv-x="699" 
d="M307 707h106q47 -117 140.5 -353.5t140.5 -353.5h-103l-60 150h-343l-59 -150h-103q47 117 140.5 353.5t140.5 353.5zM360 591q-10 -26 -62 -156t-79 -200h282q-10 26 -62 156t-79 200zM208 805v57h301v-57h-301z" />
    <glyph glyph-name="amacron" unicode="&#x101;" horiz-adv-x="531" 
d="M200 -15q-74 0 -117 39t-43 107q0 53 24 88t72.5 53.5t108 26t144.5 7.5v17q0 121 -131 121q-86 0 -161 -65l-40 55q93 81 212 81q110 0 158.5 -54.5t48.5 -136.5v-324h-87v93q-30 -48 -80.5 -78t-108.5 -30zM230 59q86 0 159 109v81q-43 0 -67.5 -0.5t-60 -3.5
t-55.5 -10.5t-40.5 -19t-29.5 -31.5t-9 -46q0 -42 25.5 -60.5t77.5 -18.5zM116 605v57h301v-57h-301z" />
    <glyph glyph-name="Aogonek" unicode="&#x104;" horiz-adv-x="688" 
d="M691 -181q-29 0 -57.5 4.5t-57.5 15t-46.5 31.5t-17.5 49q0 22 15 44.5t43 36.5l-55 150h-344l-59 -150h-102l280 707h107l280 -707h-31q-67 -31 -67 -72q0 -32 31 -52t81 -21v-36zM343 591l-141 -356h282z" />
    <glyph glyph-name="aogonek" unicode="&#x105;" horiz-adv-x="535" 
d="M500 -181q-29 0 -57.5 4.5t-57.5 15t-46.5 31.5t-17.5 49q0 23 17.5 45t54.5 36v99q-30 -50 -83 -82t-111 -32q-75 0 -118 39t-43 107q0 52 25 87t75.5 52.5t109.5 24t145 6.5v25q0 118 -131 118q-91 0 -166 -65l-40 55q93 81 211 81q113 0 163 -50t50 -130v-335h-24
q-67 -31 -67 -72q0 -32 30.5 -52t80.5 -21v-36zM229 49q89 0 164 116v86q-40 0 -67 -1t-61.5 -4.5t-56.5 -11t-42 -19.5t-30 -32t-10 -46q0 -88 103 -88z" />
    <glyph glyph-name="Cacute" unicode="&#x106;" horiz-adv-x="730" 
d="M137 350q0 -112 75 -189t188 -77q68 0 124.5 30.5t91.5 83.5l82 -58q-50 -72 -128.5 -113.5t-169.5 -41.5q-152 0 -258.5 106.5t-106.5 258.5t106.5 258.5t258.5 106.5q91 0 169.5 -41.5t128.5 -113.5l-82 -59q-35 53 -91.5 83.5t-124.5 30.5q-113 0 -188 -77t-75 -188z
M514 945l-151 -165h-62l108 165h105z" />
    <glyph glyph-name="cacute" unicode="&#x107;" horiz-adv-x="543" 
d="M33 250q0 110 75.5 187.5t184.5 77.5q67 0 122.5 -30.5t91.5 -83.5l-63 -49q-62 81 -150 81q-71 0 -124.5 -55t-53.5 -128q0 -74 53.5 -129t124.5 -55q88 0 150 81l63 -48q-36 -53 -91.5 -83.5t-122.5 -30.5q-109 0 -184.5 77.5t-75.5 187.5zM413 745l-151 -165h-62
l108 165h105z" />
    <glyph glyph-name="Ccaron" unicode="&#x10c;" horiz-adv-x="730" 
d="M137 350q0 -112 75 -189t188 -77q68 0 124.5 30.5t91.5 83.5l82 -58q-50 -72 -128.5 -113.5t-169.5 -41.5q-152 0 -258.5 106.5t-106.5 258.5t106.5 258.5t258.5 106.5q91 0 169.5 -41.5t128.5 -113.5l-82 -59q-35 53 -91.5 83.5t-124.5 30.5q-113 0 -188 -77t-75 -188z
M540 945l-126 -165h-88l-126 165h62l107 -112l108 112h63z" />
    <glyph glyph-name="ccaron" unicode="&#x10d;" horiz-adv-x="543" 
d="M33 250q0 110 75.5 187.5t184.5 77.5q67 0 122.5 -30.5t91.5 -83.5l-63 -49q-62 81 -150 81q-71 0 -124.5 -55t-53.5 -128q0 -74 53.5 -129t124.5 -55q88 0 150 81l63 -48q-36 -53 -91.5 -83.5t-122.5 -30.5q-109 0 -184.5 77.5t-75.5 187.5zM444 745l-126 -165h-88
l-126 165h62l107 -112l108 112h63z" />
    <glyph glyph-name="Dcaron" unicode="&#x10e;" horiz-adv-x="677" 
d="M60 700h238q153 0 248.5 -101.5t95.5 -248.5q0 -149 -95.5 -249.5t-248.5 -100.5h-238v700zM297 602h-137v-505h137q105 0 174 73t69 178q0 106 -69 180t-174 74zM458 945l-126 -165h-88l-126 165h62l107 -112l108 112h63z" />
    <glyph glyph-name="dcaron" unicode="&#x10f;" horiz-adv-x="835" 
d="M284 514q56 0 103.5 -24.5t73.5 -67.5v288h88v-710h-79v88q-26 -46 -78 -74.5t-108 -28.5q-109 0 -180 77t-71 188t71 187.5t180 76.5zM120 250q0 -76 51 -129.5t126 -53.5q51 0 95.5 26t68.5 69v173q-23 43 -68 69.5t-96 26.5q-75 0 -126 -53t-51 -128zM640 430l57 282
h108l-106 -282h-59z" />
    <glyph glyph-name="Emacron" unicode="&#x112;" horiz-adv-x="569" 
d="M160 400h295v-88h-295v-222h375v-90h-475v700h469v-91h-369v-209zM136 805v57h301v-57h-301z" />
    <glyph glyph-name="emacron" unicode="&#x113;" 
d="M33 250q0 111 73 188t182 77t175 -69t66 -193q0 -9 -3 -33h-405q9 -69 60.5 -115.5t119.5 -46.5q93 0 164 78l42 -50q-81 -101 -215 -101q-109 0 -184 77.5t-75 187.5zM288 445q-70 0 -117 -46.5t-53 -119.5h331q-4 75 -47.5 120.5t-113.5 45.5zM133 605v57h301v-57h-301
z" />
    <glyph glyph-name="Edotaccent" unicode="&#x116;" horiz-adv-x="569" 
d="M160 400h295v-88h-295v-222h375v-90h-475v700h469v-91h-369v-209zM235 831q0 22 14.5 36.5t35.5 14.5q22 0 36.5 -14.5t14.5 -36.5q0 -21 -14.5 -35t-36.5 -14q-21 0 -35.5 14t-14.5 35z" />
    <glyph glyph-name="edotaccent" unicode="&#x117;" 
d="M33 250q0 111 73 188t182 77t175 -69t66 -193q0 -9 -3 -33h-405q9 -69 60.5 -115.5t119.5 -46.5q93 0 164 78l42 -50q-81 -101 -215 -101q-109 0 -184 77.5t-75 187.5zM288 445q-70 0 -117 -46.5t-53 -119.5h331q-4 75 -47.5 120.5t-113.5 45.5zM233 631q0 22 14.5 36.5
t35.5 14.5q22 0 36.5 -14.5t14.5 -36.5q0 -21 -14.5 -35t-36.5 -14q-21 0 -35.5 14t-14.5 35z" />
    <glyph glyph-name="Eogonek" unicode="&#x118;" horiz-adv-x="569" 
d="M535 -181q-29 0 -57.5 4.5t-57.5 15t-46.5 31.5t-17.5 49q0 23 17.5 45t54.5 36h-368v700h469v-91h-369v-209h295v-88h-295v-222h375v-90h-45q-67 -31 -67 -72q0 -32 31 -52t81 -21v-36z" />
    <glyph glyph-name="eogonek" unicode="&#x119;" 
d="M429 -181q-29 0 -58 4.5t-58 15t-46.5 31.5t-17.5 49q0 39 42 66q-109 1 -183.5 78t-74.5 187q0 111 73 188t182 77t175 -69t66 -193q0 -9 -3 -33h-405q9 -69 60.5 -115.5t119.5 -46.5q93 0 164 78l42 -50q-52 -65 -128 -88q-62 -29 -62 -70q0 -32 30.5 -52t81.5 -21v-36
zM288 445q-70 0 -117 -46.5t-53 -119.5h331q-4 75 -47.5 120.5t-113.5 45.5z" />
    <glyph glyph-name="Ecaron" unicode="&#x11a;" horiz-adv-x="569" 
d="M160 400h295v-88h-295v-222h375v-90h-475v700h469v-91h-369v-209zM457 945l-126 -165h-88l-126 165h62l107 -112l108 112h63z" />
    <glyph glyph-name="ecaron" unicode="&#x11b;" 
d="M33 250q0 111 73 188t182 77t175 -69t66 -193q0 -9 -3 -33h-405q9 -69 60.5 -115.5t119.5 -46.5q93 0 164 78l42 -50q-81 -101 -215 -101q-109 0 -184 77.5t-75 187.5zM288 445q-70 0 -117 -46.5t-53 -119.5h331q-4 75 -47.5 120.5t-113.5 45.5zM453 745l-126 -165h-88
l-126 165h62l107 -112l108 112h63z" />
    <glyph glyph-name="uni0122" unicode="&#x122;" horiz-adv-x="738" 
d="M698 560l-82 -59q-35 53 -91.5 83.5t-124.5 30.5q-113 0 -188 -77t-75 -188q0 -113 75 -190t188 -77q122 0 197 93v110h-217v78h319v-223q-50 -72 -129 -114t-170 -42q-152 0 -258.5 106.5t-106.5 258.5t106.5 258.5t258.5 106.5q91 0 169.5 -41.5t128.5 -113.5z
M326 -305l49 228h88l-89 -228h-48z" />
    <glyph glyph-name="uni0123" unicode="&#x123;" horiz-adv-x="595" 
d="M284 -14q-109 0 -180 76.5t-71 187.5t71 188t180 77q56 0 107.5 -29.5t78.5 -75.5v90h79v-475q0 -115 -74.5 -177.5t-179.5 -62.5q-122 0 -230 74l37 59q92 -66 188 -66q70 0 120.5 41t50.5 120v63q-26 -43 -73 -66.5t-104 -23.5zM120 250q0 -77 51 -130t126 -53
q51 0 96 26.5t68 69.5v173q-24 43 -68.5 69t-95.5 26q-74 0 -125.5 -53t-51.5 -128zM370 829l-49 -228h-88l89 228h48z" />
    <glyph glyph-name="Imacron" unicode="&#x12a;" horiz-adv-x="221" 
d="M160 700v-700h-100v700h100zM0 804v58h221v-58h-221z" />
    <glyph glyph-name="imacron" unicode="&#x12b;" horiz-adv-x="187" 
d="M50 0v500h87v-500h-87zM0 605v57h187v-57h-187z" />
    <glyph glyph-name="Iogonek" unicode="&#x12e;" horiz-adv-x="221" 
d="M168 -181q-29 0 -58 4.5t-57.5 15t-46.5 31.5t-18 49q0 22 18 44.5t54 36.5v700h100v-700h-37q-67 -31 -67 -72q0 -32 30.5 -52t81.5 -21v-36z" />
    <glyph glyph-name="iogonek" unicode="&#x12f;" horiz-adv-x="187" 
d="M50 0v500h87v-500h-24q-67 -31 -67 -72q0 -32 30.5 -52t81.5 -21v-36q-29 0 -58 4.5t-57.5 15t-46.5 31.5t-18 49q0 22 18 44.5t54 36.5zM40 629q0 22 16 38t38 16q21 0 36.5 -16t15.5 -38t-15.5 -37t-36.5 -15q-22 0 -38 15t-16 37z" />
    <glyph glyph-name="dotlessi" unicode="&#x131;" horiz-adv-x="187" 
d="M50 0v500h87v-500h-87z" />
    <glyph glyph-name="uni0136" unicode="&#x136;" horiz-adv-x="625" 
d="M490 0l-305 359l288 341h115l-292 -341l318 -359h-124zM60 0v700h100v-700h-100zM235 -305l49 228h88l-89 -228h-48z" />
    <glyph glyph-name="uni0137" unicode="&#x137;" horiz-adv-x="499" 
d="M387 0l-214 264l204 236h97l-204 -236l214 -264h-97zM50 710h87v-710h-87v710zM160 -305l49 228h88l-89 -228h-48z" />
    <glyph glyph-name="Lacute" unicode="&#x139;" horiz-adv-x="544" 
d="M531 91v-91h-471v700h100v-609h371zM340 945l-151 -165h-62l108 165h105z" />
    <glyph glyph-name="lacute" unicode="&#x13a;" horiz-adv-x="185" 
d="M47 710h87v-710h-87v710zM248 945l-151 -165h-62l108 165h105z" />
    <glyph glyph-name="uni013B" unicode="&#x13b;" horiz-adv-x="544" 
d="M531 91v-91h-471v700h100v-609h371zM215 -305l49 228h88l-89 -228h-48z" />
    <glyph glyph-name="uni013C" unicode="&#x13c;" horiz-adv-x="185" 
d="M47 710h87v-710h-87v710zM21 -305l49 228h88l-89 -228h-48z" />
    <glyph glyph-name="Lcaron" unicode="&#x13d;" horiz-adv-x="544" 
d="M531 91v-91h-471v700h100v-609h371zM269 418l57 282h108l-106 -282h-59z" />
    <glyph glyph-name="lcaron" unicode="&#x13e;" horiz-adv-x="424" 
d="M47 710h87v-710h-87v710zM229 430l57 282h108l-106 -282h-59z" />
    <glyph glyph-name="Lslash" unicode="&#x141;" horiz-adv-x="546" 
d="M0 216v66l60 43v375h100v-302l118 86v-65l-118 -86v-242h371v-91h-471v259z" />
    <glyph glyph-name="lslash" unicode="&#x142;" horiz-adv-x="183" 
d="M0 216v66l50 42v386h87v-313l65 55v-65l-65 -55v-332h-87v258z" />
    <glyph glyph-name="Nacute" unicode="&#x143;" horiz-adv-x="687" 
d="M627 700v-707h-49l-418 509v-502h-100v707h48l418 -511v504h101zM455 945l-151 -165h-62l108 165h105z" />
    <glyph glyph-name="nacute" unicode="&#x144;" horiz-adv-x="542" 
d="M414 0v279q0 75 -34 111.5t-86 36.5q-80 0 -160 -100v-327h-87v500h78v-91q90 104 198 104q82 0 130.5 -52.5t48.5 -148.5v-312h-88zM394 745l-151 -165h-62l108 165h105z" />
    <glyph glyph-name="uni0145" unicode="&#x145;" horiz-adv-x="687" 
d="M627 700v-707h-49l-418 509v-502h-100v707h48l418 -511v504h101zM259 -305l49 228h88l-89 -228h-48z" />
    <glyph glyph-name="uni0146" unicode="&#x146;" horiz-adv-x="542" 
d="M414 0v279q0 75 -34 111.5t-86 36.5q-80 0 -160 -100v-327h-87v500h78v-91q90 104 198 104q82 0 130.5 -52.5t48.5 -148.5v-312h-88zM190 -305l49 228h88l-89 -228h-48z" />
    <glyph glyph-name="Ncaron" unicode="&#x147;" horiz-adv-x="687" 
d="M627 700v-707h-49l-418 509v-502h-100v707h48l418 -511v504h101zM513 945l-126 -165h-88l-126 165h62l107 -112l108 112h63z" />
    <glyph glyph-name="ncaron" unicode="&#x148;" horiz-adv-x="542" 
d="M414 0v279q0 75 -34 111.5t-86 36.5q-80 0 -160 -100v-327h-87v500h78v-91q90 104 198 104q82 0 130.5 -52.5t48.5 -148.5v-312h-88zM432 745l-126 -165h-88l-126 165h62l107 -112l108 112h63z" />
    <glyph glyph-name="Omacron" unicode="&#x14c;" horiz-adv-x="789" 
d="M394 -15q-151 0 -255 106.5t-104 258.5t104 258.5t255 106.5q150 0 255 -106.5t105 -258.5t-105 -258.5t-255 -106.5zM651 350q0 112 -72.5 188.5t-184.5 76.5t-184 -76.5t-72 -188.5q0 -113 72 -190t184 -77q113 0 185 77t72 190zM244 805v57h301v-57h-301z" />
    <glyph glyph-name="omacron" unicode="&#x14d;" horiz-adv-x="584" 
d="M292 -15q-109 0 -184.5 77.5t-75.5 187.5t75.5 187.5t184.5 77.5t184 -77.5t75 -187.5t-75 -187.5t-184 -77.5zM464 250q0 75 -49 128t-123 53t-123.5 -53t-49.5 -128q0 -77 49.5 -130t123.5 -53t123 53t49 130zM141 605v57h301v-57h-301z" />
    <glyph glyph-name="Ohungarumlaut" unicode="&#x150;" horiz-adv-x="789" 
d="M394 -15q-151 0 -255 106.5t-104 258.5t104 258.5t255 106.5q150 0 255 -106.5t105 -258.5t-105 -258.5t-255 -106.5zM651 350q0 112 -72.5 188.5t-184.5 76.5t-184 -76.5t-72 -188.5q0 -113 72 -190t184 -77q113 0 185 77t72 190zM466 945l-151 -165h-62l108 165h105z
M615 945l-151 -165h-62l107 165h106z" />
    <glyph glyph-name="ohungarumlaut" unicode="&#x151;" horiz-adv-x="584" 
d="M292 -15q-109 0 -184.5 77.5t-75.5 187.5t75.5 187.5t184.5 77.5t184 -77.5t75 -187.5t-75 -187.5t-184 -77.5zM464 250q0 75 -49 128t-123 53t-123.5 -53t-49.5 -128q0 -77 49.5 -130t123.5 -53t123 53t49 130zM360 745l-151 -165h-62l108 165h105zM509 745l-151 -165
h-62l107 165h106z" />
    <glyph glyph-name="OE" unicode="&#x152;" horiz-adv-x="1162" 
d="M752 400h295v-88h-295v-222h374v-90h-475v111q-97 -123 -262 -123q-152 0 -252 104.5t-100 257.5q0 152 100.5 257t251.5 105q162 0 262 -125v113h469v-91h-368v-209zM651 348v11q-3 109 -74.5 182.5t-180.5 73.5q-112 0 -184.5 -76.5t-72.5 -188.5q0 -113 72 -190
t185 -77q111 0 183 76.5t72 188.5z" />
    <glyph glyph-name="oe" unicode="&#x153;" horiz-adv-x="996" 
d="M288 -15q-109 0 -183 77.5t-74 187.5t74 187.5t183 77.5q70 0 127 -34.5t90 -93.5q32 58 89 93t127 35q109 0 174.5 -69t65.5 -193q0 -17 -2 -33h-409q10 -69 63 -115.5t120 -46.5q91 0 165 78l37 -51q-76 -98 -206 -98q-72 0 -131 33t-93 92q-32 -58 -89.5 -92.5
t-127.5 -34.5zM463 250q-3 74 -53 127.5t-122 53.5q-74 0 -123 -53t-49 -128q0 -77 49 -130t123 -53q75 0 125 51.5t50 131.5zM721 445q-71 0 -119 -46.5t-55 -119.5h337q-4 75 -48.5 120.5t-114.5 45.5z" />
    <glyph glyph-name="Racute" unicode="&#x154;" horiz-adv-x="627" 
d="M489 0l-184 257h-145v-257h-100v700h287q97 0 163.5 -65t66.5 -158q0 -76 -48 -132.5t-122 -71.5l193 -273h-111zM160 608v-260h178q58 0 98 37t40 92t-40.5 93t-97.5 38h-178zM429 945l-151 -165h-62l108 165h105z" />
    <glyph glyph-name="racute" unicode="&#x155;" horiz-adv-x="316" 
d="M303 513v-89q-111 0 -166 -104v-320h-87v500h81v-88q55 101 172 101zM287 745l-151 -165h-62l108 165h105z" />
    <glyph glyph-name="uni0156" unicode="&#x156;" horiz-adv-x="627" 
d="M489 0l-184 257h-145v-257h-100v700h287q97 0 163.5 -65t66.5 -158q0 -76 -48 -132.5t-122 -71.5l193 -273h-111zM160 608v-260h178q58 0 98 37t40 92t-40.5 93t-97.5 38h-178zM219 -305l49 228h88l-89 -228h-48z" />
    <glyph glyph-name="uni0157" unicode="&#x157;" horiz-adv-x="316" 
d="M303 513v-89q-111 0 -166 -104v-320h-87v500h81v-88q55 101 172 101zM24 -305l49 228h88l-89 -228h-48z" />
    <glyph glyph-name="Rcaron" unicode="&#x158;" horiz-adv-x="627" 
d="M489 0l-184 257h-145v-257h-100v700h287q97 0 163.5 -65t66.5 -158q0 -76 -48 -132.5t-122 -71.5l193 -273h-111zM160 608v-260h178q58 0 98 37t40 92t-40.5 93t-97.5 38h-178zM467 945l-126 -165h-88l-126 165h62l107 -112l108 112h63z" />
    <glyph glyph-name="rcaron" unicode="&#x159;" horiz-adv-x="316" 
d="M303 513v-89q-111 0 -166 -104v-320h-87v500h81v-88q55 101 172 101zM329 745l-126 -165h-88l-126 165h62l107 -112l108 112h63z" />
    <glyph glyph-name="Sacute" unicode="&#x15a;" horiz-adv-x="588" 
d="M146 523q0 -42 42 -67.5t102 -40t120 -34t102 -64.5t42 -117q0 -91 -72 -153t-191 -62q-152 0 -256 107l56 76q92 -87 200 -87q65 0 116 35t51 84q0 35 -30 58.5t-75 33.5t-97 26t-97 35t-75 62t-30 105q0 84 67 139.5t174 55.5q79 0 135.5 -24t113.5 -77l-56 -76
q-45 43 -90 63t-104 20q-61 0 -104.5 -24t-43.5 -74zM429 945l-151 -165h-62l108 165h105z" />
    <glyph glyph-name="sacute" unicode="&#x15b;" horiz-adv-x="477" 
d="M364 140q0 25 -23 39.5t-58 19.5t-75 15t-75 22.5t-58 44.5t-23 81q0 64 50 108.5t143 44.5q114 0 193 -78l-44 -53q-36 35 -70 48t-79 13q-48 0 -78.5 -25.5t-30.5 -56.5q0 -33 32 -50t78 -24t92.5 -17.5t78.5 -42t32 -85.5q0 -74 -53.5 -116.5t-154.5 -42.5
q-126 0 -213 80l43 59q82 -69 170 -69q59 0 91 25t32 60zM355 745l-151 -165h-62l108 165h105z" />
    <glyph glyph-name="Scaron" unicode="&#x160;" horiz-adv-x="588" 
d="M146 523q0 -42 42 -67.5t102 -40t120 -34t102 -64.5t42 -117q0 -91 -72 -153t-191 -62q-152 0 -256 107l56 76q92 -87 200 -87q65 0 116 35t51 84q0 35 -30 58.5t-75 33.5t-97 26t-97 35t-75 62t-30 105q0 84 67 139.5t174 55.5q79 0 135.5 -24t113.5 -77l-56 -76
q-45 43 -90 63t-104 20q-61 0 -104.5 -24t-43.5 -74zM453 945l-126 -165h-88l-126 165h62l107 -112l108 112h63z" />
    <glyph glyph-name="scaron" unicode="&#x161;" horiz-adv-x="477" 
d="M364 140q0 25 -23 39.5t-58 19.5t-75 15t-75 22.5t-58 44.5t-23 81q0 64 50 108.5t143 44.5q114 0 193 -78l-44 -53q-36 35 -70 48t-79 13q-48 0 -78.5 -25.5t-30.5 -56.5q0 -33 32 -50t78 -24t92.5 -17.5t78.5 -42t32 -85.5q0 -74 -53.5 -116.5t-154.5 -42.5
q-126 0 -213 80l43 59q82 -69 170 -69q59 0 91 25t32 60zM418 745l-126 -165h-88l-126 165h62l107 -112l108 112h63z" />
    <glyph glyph-name="Tcaron" unicode="&#x164;" horiz-adv-x="620" 
d="M368 608v-608h-101v608h-235v92h571v-92h-235zM486 945l-126 -165h-88l-126 165h62l107 -112l108 112h63z" />
    <glyph glyph-name="tcaron" unicode="&#x165;" horiz-adv-x="565" 
d="M196 428v-259q0 -60 16.5 -84.5t55.5 -24.5q45 0 87 18v-70q-52 -20 -118 -20q-68 0 -98.5 45t-30.5 149v246h-98v72h98v117h88v-117h158v-72h-158zM397 389l49 228h88l-89 -228h-48z" />
    <glyph glyph-name="Umacron" unicode="&#x16a;" horiz-adv-x="673" 
d="M153 700v-442q0 -74 51 -127t132 -53q83 0 132.5 50.5t49.5 129.5v442h101v-437q0 -119 -77 -198.5t-206 -79.5q-131 0 -207.5 78.5t-76.5 199.5v437h101zM185 805v57h301v-57h-301z" />
    <glyph glyph-name="umacron" unicode="&#x16b;" horiz-adv-x="539" 
d="M124 500v-291q0 -138 120 -138q84 0 159 101v328h89v-500h-79v90q-89 -103 -197 -103q-83 0 -131 51.5t-48 148.5v313h87zM118 605v57h301v-57h-301z" />
    <glyph glyph-name="Uring" unicode="&#x16e;" horiz-adv-x="673" 
d="M153 700v-442q0 -74 51 -127t132 -53q83 0 132.5 50.5t49.5 129.5v442h101v-437q0 -119 -77 -198.5t-206 -79.5q-131 0 -207.5 78.5t-76.5 199.5v437h101zM398 886q0 26 -18 43.5t-45 17.5q-26 0 -44 -17.5t-18 -43.5q0 -27 18 -45t44 -18t44.5 18t18.5 45zM445 886
q0 -45 -32.5 -76t-77.5 -31t-77.5 31t-32.5 76q0 43 33 74.5t77 31.5q45 0 77.5 -31.5t32.5 -74.5z" />
    <glyph glyph-name="uring" unicode="&#x16f;" horiz-adv-x="539" 
d="M124 500v-291q0 -138 120 -138q84 0 159 101v328h89v-500h-79v90q-89 -103 -197 -103q-83 0 -131 51.5t-48 148.5v313h87zM331 686q0 26 -18 43.5t-45 17.5q-26 0 -44 -17.5t-18 -43.5q0 -27 18 -45t44 -18t44.5 18t18.5 45zM378 686q0 -45 -32.5 -76t-77.5 -31t-77.5 31
t-32.5 76q0 43 33 74.5t77 31.5q45 0 77.5 -31.5t32.5 -74.5z" />
    <glyph glyph-name="Uhungarumlaut" unicode="&#x170;" horiz-adv-x="673" 
d="M153 700v-442q0 -74 51 -127t132 -53q83 0 132.5 50.5t49.5 129.5v442h101v-437q0 -119 -77 -198.5t-206 -79.5q-131 0 -207.5 78.5t-76.5 199.5v437h101zM378 945l-151 -165h-62l108 165h105zM527 945l-151 -165h-62l107 165h106z" />
    <glyph glyph-name="uhungarumlaut" unicode="&#x171;" horiz-adv-x="539" 
d="M124 500v-291q0 -138 120 -138q84 0 159 101v328h89v-500h-79v90q-89 -103 -197 -103q-83 0 -131 51.5t-48 148.5v313h87zM308 745l-151 -165h-62l108 165h105zM457 745l-151 -165h-62l107 165h106z" />
    <glyph glyph-name="Uogonek" unicode="&#x172;" horiz-adv-x="673" 
d="M479 -181q-29 0 -58 4.5t-58 15t-46.5 31.5t-17.5 49q0 39 42 66q-134 0 -211.5 78.5t-77.5 199.5v437h101v-442q0 -74 51 -127t132 -53q83 0 132.5 50.5t49.5 129.5v442h101v-437q0 -95 -50.5 -167t-139.5 -98q-62 -30 -62 -70q0 -32 30.5 -52t81.5 -21v-36z" />
    <glyph glyph-name="uogonek" unicode="&#x173;" horiz-adv-x="538" 
d="M515 -181q-29 0 -58 4.5t-58 15t-46.5 31.5t-17.5 49q0 22 18 44.5t54 36.5v93q-85 -106 -197 -106q-80 0 -126.5 51.5t-46.5 148.5v313h87v-284q0 -76 34 -112t86 -36q88 0 159 112v320h89v-500h-22q-67 -31 -67 -72q0 -32 31 -52t81 -21v-36z" />
    <glyph glyph-name="Ydieresis" unicode="&#x178;" horiz-adv-x="651" 
d="M5 700h112l207 -358l208 358h113l-270 -454v-246h-100v246zM376 838q0 23 16 39.5t39 16.5t39 -16.5t16 -39.5t-16 -38t-39 -15t-39 15t-16 38zM164 838q0 23 16 39.5t38 16.5q23 0 39 -16.5t16 -39.5t-16 -38t-39 -15t-38.5 15t-15.5 38z" />
    <glyph glyph-name="Zacute" unicode="&#x179;" horiz-adv-x="581" 
d="M550 700v-66l-387 -543h396v-91h-538v65l387 543h-375v92h517zM406 945l-151 -165h-62l108 165h105z" />
    <glyph glyph-name="zacute" unicode="&#x17a;" horiz-adv-x="510" 
d="M163 77h319v-77h-455v53l310 369h-304v78h440v-54zM371 745l-151 -165h-62l108 165h105z" />
    <glyph glyph-name="Zdotaccent" unicode="&#x17b;" horiz-adv-x="581" 
d="M550 700v-66l-387 -543h396v-91h-538v65l387 543h-375v92h517zM239 831q0 22 14.5 36.5t35.5 14.5q22 0 36.5 -14.5t14.5 -36.5q0 -21 -14.5 -35t-36.5 -14q-21 0 -35.5 14t-14.5 35z" />
    <glyph glyph-name="zdotaccent" unicode="&#x17c;" horiz-adv-x="510" 
d="M163 77h319v-77h-455v53l310 369h-304v78h440v-54zM204 631q0 22 14.5 36.5t35.5 14.5q22 0 36.5 -14.5t14.5 -36.5q0 -21 -14.5 -35t-36.5 -14q-21 0 -35.5 14t-14.5 35z" />
    <glyph glyph-name="Zcaron" unicode="&#x17d;" horiz-adv-x="581" 
d="M550 700v-66l-387 -543h396v-91h-538v65l387 543h-375v92h517zM460 945l-126 -165h-88l-126 165h62l107 -112l108 112h63z" />
    <glyph glyph-name="zcaron" unicode="&#x17e;" horiz-adv-x="510" 
d="M163 77h319v-77h-455v53l310 369h-304v78h440v-54zM424 745l-126 -165h-88l-126 165h62l107 -112l108 112h63z" />
    <glyph glyph-name="circumflex" unicode="&#x2c6;" horiz-adv-x="406" 
d="M253 745l126 -165h-63l-108 113l-107 -113h-62l126 165h88z" />
    <glyph glyph-name="caron" unicode="&#x2c7;" horiz-adv-x="406" 
d="M379 745l-126 -165h-88l-126 165h62l107 -112l108 112h63z" />
    <glyph glyph-name="breve" unicode="&#x2d8;" horiz-adv-x="470" 
d="M234 574q-179 0 -200 149h43q7 -39 49.5 -65t107.5 -26q64 0 107 26t50 65h43q-21 -149 -200 -149z" />
    <glyph glyph-name="dotaccent" unicode="&#x2d9;" horiz-adv-x="545" 
d="M175 631q0 22 14.5 36.5t35.5 14.5q22 0 36.5 -14.5t14.5 -36.5q0 -21 -14.5 -35t-36.5 -14q-21 0 -35.5 14t-14.5 35z" />
    <glyph glyph-name="ring" unicode="&#x2da;" horiz-adv-x="412" 
d="M271 686q0 26 -18 43.5t-45 17.5q-26 0 -44 -17.5t-18 -43.5q0 -27 18 -45t44 -18t44.5 18t18.5 45zM318 686q0 -45 -32.5 -76t-77.5 -31t-77.5 31t-32.5 76q0 43 33 74.5t77 31.5q45 0 77.5 -31.5t32.5 -74.5z" />
    <glyph glyph-name="ogonek" unicode="&#x2db;" horiz-adv-x="500" 
d="M356 -181q-29 0 -58 4.5t-57.5 15t-46.5 31.5t-18 49q0 22 18 44.5t54 36.5h63q-67 -31 -67 -72q0 -32 30.5 -52t81.5 -21v-36z" />
    <glyph glyph-name="tilde" unicode="&#x2dc;" horiz-adv-x="506" 
d="M178 720q34 0 87.5 -28t78.5 -28q46 0 70 59h50q-13 -58 -45 -89.5t-75 -31.5q-38 0 -92 27.5t-74 27.5q-47 0 -68 -59h-52q13 58 45.5 90t74.5 32z" />
    <glyph glyph-name="hungarumlaut" unicode="&#x2dd;" horiz-adv-x="562" 
d="M270 745l-151 -165h-62l108 165h105zM419 745l-151 -165h-62l107 165h106z" />
    <glyph glyph-name="afii10023" unicode="&#x401;" horiz-adv-x="569" 
d="M160 400h295v-88h-295v-222h375v-90h-475v700h469v-91h-369v-209zM353 838q0 23 16 39.5t39 16.5t39 -16.5t16 -39.5t-16 -38t-39 -15t-39 15t-16 38zM141 838q0 23 16 39.5t38 16.5q23 0 39 -16.5t16 -39.5t-16 -38t-39 -15t-38.5 15t-15.5 38z" />
    <glyph glyph-name="afii10051" unicode="&#x402;" horiz-adv-x="762" 
d="M623 176v39q0 63 -39 99.5t-109 36.5q-66 0 -124 -19v-332h-100v608h-235v92h571v-92h-236v-194q72 23 139 23q106 0 170.5 -55t64.5 -166v-40q0 -33 -8 -63t-27 -60t-57.5 -48t-91.5 -18q-84 0 -143 50l32 69q45 -42 99 -42q52 0 73 27.5t21 84.5z" />
    <glyph glyph-name="afii10052" unicode="&#x403;" horiz-adv-x="533" 
d="M520 700v-92h-360v-608h-100v700h460zM398 945l-151 -165h-62l108 165h105z" />
    <glyph glyph-name="afii10053" unicode="&#x404;" horiz-adv-x="730" 
d="M498 404v-84h-357q8 -98 82.5 -167t176.5 -69q68 0 124.5 30.5t91.5 83.5l82 -58q-50 -72 -128.5 -113.5t-169.5 -41.5q-152 0 -258.5 106.5t-106.5 258.5t106.5 258.5t258.5 106.5q91 0 169.5 -41.5t128.5 -113.5l-82 -59q-35 53 -91.5 83.5t-124.5 30.5q-97 0 -168 -60
t-86 -151h352z" />
    <glyph glyph-name="afii10054" unicode="&#x405;" horiz-adv-x="588" 
d="M146 523q0 -42 42 -67.5t102 -40t120 -34t102 -64.5t42 -117q0 -91 -72 -153t-191 -62q-152 0 -256 107l56 76q92 -87 200 -87q65 0 116 35t51 84q0 35 -30 58.5t-75 33.5t-97 26t-97 35t-75 62t-30 105q0 84 67 139.5t174 55.5q79 0 135.5 -24t113.5 -77l-56 -76
q-45 43 -90 63t-104 20q-61 0 -104.5 -24t-43.5 -74z" />
    <glyph glyph-name="afii10055" unicode="&#x406;" horiz-adv-x="222" 
d="M160 700v-700h-100v700h100z" />
    <glyph glyph-name="afii10056" unicode="&#x407;" horiz-adv-x="221" 
d="M126 809q0 20 12.5 35t30.5 15t31 -15t13 -35q0 -21 -13 -35t-31 -14t-30.5 14t-12.5 35zM7 809q0 21 12.5 35.5t30.5 14.5t31 -15t13 -35q0 -21 -13 -35t-31 -14q-19 0 -31 13.5t-12 35.5zM160 700v-700h-100v700h100z" />
    <glyph glyph-name="afii10057" unicode="&#x408;" horiz-adv-x="434" 
d="M275 193v507h102v-508q0 -32 -1.5 -53t-12 -53.5t-29.5 -51.5t-57 -34t-92 -15q-102 0 -180 68l45 71q60 -50 121 -50q55 0 79.5 30t24.5 89z" />
    <glyph glyph-name="afii10058" unicode="&#x409;" horiz-adv-x="1092" 
d="M10 0v91q53 0 84 20.5t55 84.5t33 184.5t9 319.5h454v-259h170q95 0 169 -61.5t74 -158.5q0 -95 -67.5 -158t-175.5 -63h-271v608h-256q0 -134 -7.5 -233.5t-25 -166t-39 -108t-55.5 -63.5t-68 -29.5t-83 -7.5zM818 349h-173v-258h173q58 0 98 37.5t40 92.5t-40 91.5
t-98 36.5z" />
    <glyph glyph-name="afii10059" unicode="&#x40a;" horiz-adv-x="1073" 
d="M627 439h199q87 0 149.5 -65t62.5 -153t-62.5 -154.5t-149.5 -66.5h-300v349h-366v-349h-100v700h100v-260h366v260h101v-261zM799 349h-172v-258h172q58 0 98.5 37.5t40.5 92.5t-40.5 91.5t-98.5 36.5z" />
    <glyph glyph-name="afii10060" unicode="&#x40b;" horiz-adv-x="768" 
d="M730 207v-207h-101v212q0 62 -39.5 101t-114.5 39q-61 0 -123 -20v-332h-101v608h-235v92h571v-92h-235v-194q78 23 143 23q105 0 170 -59t65 -171z" />
    <glyph glyph-name="afii10061" unicode="&#x40c;" horiz-adv-x="626" 
d="M498 0l-313 359q18 21 128 147.5t168 193.5h107l-297 -341q37 -41 102 -113.5t119 -132.5t102 -113h-116zM60 0v700h100v-700h-100zM434 945l-151 -165h-62l108 165h105z" />
    <glyph glyph-name="afii10062" unicode="&#x40e;" horiz-adv-x="648" 
d="M329 815q96 0 165 39l31 -65q-83 -44 -196 -44t-197 44l31 65q70 -39 166 -39zM187 0l84 170l-266 530h116l206 -414l201 414h114l-341 -700h-114z" />
    <glyph glyph-name="afii10145" unicode="&#x40f;" horiz-adv-x="687" 
d="M526 91v609h101v-700h-240v-154h-88v154h-239v700h100v-609h366z" />
    <glyph glyph-name="afii10017" unicode="&#x410;" horiz-adv-x="699" 
d="M307 707h106q47 -117 140.5 -353.5t140.5 -353.5h-103l-60 150h-343l-59 -150h-103q47 117 140.5 353.5t140.5 353.5zM360 591q-10 -26 -62 -156t-79 -200h282q-10 26 -62 156t-79 200z" />
    <glyph glyph-name="afii10018" unicode="&#x411;" horiz-adv-x="624" 
d="M526 700v-80h-366v-205h213q88 0 150 -59t62 -149q0 -89 -60.5 -148t-151.5 -59h-313v700h466zM160 78h185q58 0 98 37.5t40 93.5q0 54 -40 90.5t-98 36.5h-185v-258z" />
    <glyph glyph-name="afii10019" unicode="&#x412;" horiz-adv-x="614" 
d="M371 0h-311v700h289q80 0 133.5 -50t53.5 -123q0 -56 -29.5 -100t-78.5 -63q69 -18 109 -67t40 -109q0 -81 -59 -134.5t-147 -53.5zM338 318h-178v-236h178q59 0 98.5 33t39.5 88q0 49 -39.5 82t-98.5 33zM160 617v-220h174q47 0 78 32t31 78q0 49 -35.5 79.5t-88.5 30.5
h-159z" />
    <glyph glyph-name="afii10020" unicode="&#x413;" horiz-adv-x="533" 
d="M520 700v-92h-360v-608h-100v700h460z" />
    <glyph glyph-name="afii10021" unicode="&#x414;" horiz-adv-x="776" 
d="M100 0v-154h-88v244h77q111 192 111 610h454v-610h102v-244h-88v154h-568zM553 90v518h-257q0 -316 -102 -518h359z" />
    <glyph glyph-name="afii10022" unicode="&#x415;" horiz-adv-x="569" 
d="M160 400h295v-88h-295v-222h375v-90h-475v700h469v-91h-369v-209z" />
    <glyph glyph-name="afii10024" unicode="&#x416;" horiz-adv-x="938" 
d="M519 700v-700h-101v700h101zM544 356l242 344h115l-242 -344l270 -356h-124zM393 356l-261 -356h-124l270 356l-242 344h115z" />
    <glyph glyph-name="afii10025" unicode="&#x417;" horiz-adv-x="584" 
d="M279 74q66 0 106.5 36t40.5 82q0 58 -36 93.5t-88 35.5h-108v77h117q39 0 80 36.5t41 84.5q0 53 -38 81.5t-101 28.5q-64 0 -109.5 -17.5t-91.5 -55.5l-47 72q110 87 252 87q107 0 168.5 -51.5t61.5 -132.5q0 -54 -36.5 -102t-97.5 -67q71 -15 111 -63t40 -110
q0 -90 -71 -147t-192 -57q-138 0 -246 86l46 75q46 -38 91 -55t107 -17z" />
    <glyph glyph-name="afii10026" unicode="&#x418;" horiz-adv-x="693" 
d="M60 -7v707h100v-513l409 520h63v-707h-101v511l-409 -518h-62z" />
    <glyph glyph-name="afii10027" unicode="&#x419;" horiz-adv-x="693" 
d="M350 815q95 0 165 39l31 -65q-83 -44 -196 -44t-197 44l31 65q70 -39 166 -39zM60 -7v707h100v-513l409 520h63v-707h-101v511l-409 -518h-62z" />
    <glyph glyph-name="afii10028" unicode="&#x41a;" horiz-adv-x="625" 
d="M490 0l-305 359l288 341h115l-292 -341l318 -359h-124zM60 0v700h100v-700h-100z" />
    <glyph glyph-name="afii10029" unicode="&#x41b;" horiz-adv-x="706" 
d="M10 0v91q53 0 84 20.5t55 84.5t33 184.5t9 319.5h454v-700h-101v608h-256q0 -134 -7.5 -233.5t-25 -166t-39 -108t-55.5 -63.5t-68 -29.5t-83 -7.5z" />
    <glyph glyph-name="afii10030" unicode="&#x41c;" horiz-adv-x="800" 
d="M408 205h-17l-240 329v-534h-91v707h69l270 -371l271 371h70v-707h-92v534z" />
    <glyph glyph-name="afii10031" unicode="&#x41d;" horiz-adv-x="687" 
d="M526 0v316h-366v-316h-100v700h100v-292h366v292h101v-700h-101z" />
    <glyph glyph-name="afii10032" unicode="&#x41e;" horiz-adv-x="789" 
d="M394 -15q-151 0 -255 106.5t-104 258.5t104 258.5t255 106.5q150 0 255 -106.5t105 -258.5t-105 -258.5t-255 -106.5zM651 350q0 112 -72.5 188.5t-184.5 76.5t-184 -76.5t-72 -188.5q0 -113 72 -190t184 -77q113 0 185 77t72 190z" />
    <glyph glyph-name="afii10033" unicode="&#x41f;" horiz-adv-x="687" 
d="M526 0v608h-366v-608h-100v700h567v-700h-101z" />
    <glyph glyph-name="afii10034" unicode="&#x420;" horiz-adv-x="608" 
d="M347 257h-187v-257h-100v700h287q97 0 163.5 -65t66.5 -158t-66.5 -156.5t-163.5 -63.5zM160 608v-259h178q58 0 97.5 36.5t39.5 91.5t-40 93t-97 38h-178z" />
    <glyph glyph-name="afii10035" unicode="&#x421;" horiz-adv-x="730" 
d="M137 350q0 -112 75 -189t188 -77q68 0 124.5 30.5t91.5 83.5l82 -58q-50 -72 -128.5 -113.5t-169.5 -41.5q-152 0 -258.5 106.5t-106.5 258.5t106.5 258.5t258.5 106.5q91 0 169.5 -41.5t128.5 -113.5l-82 -59q-35 53 -91.5 83.5t-124.5 30.5q-113 0 -188 -77t-75 -188z
" />
    <glyph glyph-name="afii10036" unicode="&#x422;" horiz-adv-x="620" 
d="M368 608v-608h-101v608h-235v92h571v-92h-235z" />
    <glyph glyph-name="afii10037" unicode="&#x423;" horiz-adv-x="648" 
d="M187 0l84 170l-266 530h116l206 -414l201 414h114l-341 -700h-114z" />
    <glyph glyph-name="afii10038" unicode="&#x424;" horiz-adv-x="806" 
d="M336 158h16v412h-16q-96 0 -152.5 -59.5t-56.5 -146.5q0 -88 56.5 -147t152.5 -59zM352 75h-20q-130 0 -214.5 81.5t-84.5 207.5q0 128 84.5 208.5t214.5 80.5h20v67h101v-67h20q129 0 214 -82t85 -207q0 -128 -84.5 -208.5t-214.5 -80.5h-20v-75h-101v75zM453 158h16
q96 0 152.5 59t56.5 147q0 87 -56.5 146.5t-152.5 59.5h-16v-412z" />
    <glyph glyph-name="afii10039" unicode="&#x425;" horiz-adv-x="668" 
d="M15 0l257 357l-247 343h123l185 -258l186 258h123l-248 -343l258 -357h-123l-196 271l-195 -271h-123z" />
    <glyph glyph-name="afii10040" unicode="&#x426;" horiz-adv-x="749" 
d="M526 91v609h101v-609h102v-245h-89v154h-580v700h100v-609h366z" />
    <glyph glyph-name="afii10041" unicode="&#x427;" horiz-adv-x="590" 
d="M32 472v228h101v-228q0 -65 39 -101.5t112 -36.5q71 0 144 19v347h102v-700h-102v263q-83 -20 -156 -20q-105 0 -172.5 59t-67.5 170z" />
    <glyph glyph-name="afii10042" unicode="&#x428;" horiz-adv-x="1027" 
d="M463 91v609h100v-609h303v609h100v-700h-906v700h100v-609h303z" />
    <glyph glyph-name="afii10043" unicode="&#x429;" horiz-adv-x="1089" 
d="M60 0v700h100v-609h303v609h100v-609h303v609h100v-609h103v-245h-89v154h-920z" />
    <glyph glyph-name="afii10044" unicode="&#x42a;" horiz-adv-x="752" 
d="M718 221q0 -93 -65.5 -157t-162.5 -64h-285v608h-195v92h296v-258h184q97 0 162.5 -64t65.5 -157zM479 349h-173v-258h173q57 0 97.5 37.5t40.5 92.5t-40 91.5t-98 36.5z" />
    <glyph glyph-name="afii10045" unicode="&#x42b;" horiz-adv-x="798" 
d="M160 700v-259h184q94 0 161 -63t67 -157t-66 -157.5t-162 -63.5h-284v700h100zM333 349h-173v-258h173q57 0 97.5 37.5t40.5 92.5t-40 91.5t-98 36.5zM636 0v700h102v-700h-102z" />
    <glyph glyph-name="afii10046" unicode="&#x42c;" horiz-adv-x="606" 
d="M160 700v-259h184q94 0 161 -63t67 -157t-66 -157.5t-162 -63.5h-284v700h100zM333 349h-173v-258h173q57 0 97.5 37.5t40.5 92.5t-40 91.5t-98 36.5z" />
    <glyph glyph-name="afii10047" unicode="&#x42d;" horiz-adv-x="730" 
d="M231 320v84h352q-15 91 -86 151t-168 60q-68 0 -124.5 -30.5t-91.5 -83.5l-82 59q50 72 128.5 113.5t169.5 41.5q151 0 258 -106.5t107 -258.5t-107 -258.5t-258 -106.5q-91 0 -169.5 41.5t-128.5 113.5l82 58q35 -53 91.5 -83.5t124.5 -30.5q102 0 176.5 69t82.5 167
h-357z" />
    <glyph glyph-name="afii10048" unicode="&#x42e;" horiz-adv-x="1044" 
d="M644 -15q-143 0 -244 95.5t-116 235.5h-124v-316h-100v700h100v-292h127q20 131 121 219t236 88q151 0 258 -107t107 -258t-107 -258t-258 -107zM907 350q0 111 -75.5 188t-187.5 77q-113 0 -187.5 -77t-74.5 -188q0 -113 74.5 -190t187.5 -77t188 77t75 190z" />
    <glyph glyph-name="afii10049" unicode="&#x42f;" horiz-adv-x="627" 
d="M322 257l-184 -257h-111l193 273q-74 15 -122 71.5t-48 132.5q0 93 66.5 158t163.5 65h287v-700h-100v257h-145zM467 348v260h-178q-57 0 -97.5 -38t-40.5 -93t40 -92t98 -37h178z" />
    <glyph glyph-name="afii10065" unicode="&#x430;" horiz-adv-x="531" 
d="M200 -15q-74 0 -117 39t-43 107q0 53 24 88t72.5 53.5t108 26t144.5 7.5v17q0 121 -131 121q-86 0 -161 -65l-40 55q93 81 212 81q110 0 158.5 -54.5t48.5 -136.5v-324h-87v93q-30 -48 -80.5 -78t-108.5 -30zM230 59q86 0 159 109v81q-43 0 -67.5 -0.5t-60 -3.5
t-55.5 -10.5t-40.5 -19t-29.5 -31.5t-9 -46q0 -42 25.5 -60.5t77.5 -18.5z" />
    <glyph glyph-name="afii10066" unicode="&#x431;" horiz-adv-x="593" 
d="M298 -15q-125 0 -195 82.5t-70 216.5q0 202 53.5 285.5t191.5 111.5q191 40 233 51l16 -72q-37 -9 -81 -18.5t-73 -15t-63 -13t-55.5 -14.5t-45.5 -18t-39 -24.5t-29.5 -32.5t-23 -43.5t-14 -57t-7.5 -72.5q21 61 80 100.5t127 39.5q115 0 186 -70t71 -173
q0 -114 -74 -188.5t-188 -74.5zM473 241q0 74 -51.5 126t-124.5 52t-124.5 -52t-51.5 -126t51.5 -127t124.5 -53t124.5 53t51.5 127z" />
    <glyph glyph-name="afii10067" unicode="&#x432;" horiz-adv-x="506" 
d="M456 377q0 -40 -24 -72t-64 -44q49 -11 79.5 -47t30.5 -83q0 -55 -41 -93t-109 -38h-283v500h272q62 0 100.5 -35.5t38.5 -87.5zM294 225h-162v-163h163q43 0 69 22.5t26 57.5q0 36 -27 59.5t-69 23.5zM132 436v-150h154q37 0 63 22.5t26 54.5t-25 52.5t-64 20.5h-154z
" />
    <glyph glyph-name="afii10068" unicode="&#x433;" horiz-adv-x="435" 
d="M425 500v-79h-291v-421h-87v500h378z" />
    <glyph glyph-name="afii10069" unicode="&#x434;" horiz-adv-x="626" 
d="M91 0v-131h-74v206h56q65 97 65 295v130h391v-425h77v-206h-84v131h-431zM442 75v349h-219v-71q0 -78 -15.5 -155t-42.5 -123h277z" />
    <glyph glyph-name="afii10070" unicode="&#x435;" 
d="M33 250q0 111 73 188t182 77t175 -69t66 -193q0 -9 -3 -33h-405q9 -69 60.5 -115.5t119.5 -46.5q93 0 164 78l42 -50q-81 -101 -215 -101q-109 0 -184 77.5t-75 187.5zM288 445q-70 0 -117 -46.5t-53 -119.5h331q-4 75 -47.5 120.5t-113.5 45.5z" />
    <glyph glyph-name="afii10072" unicode="&#x436;" horiz-adv-x="732" 
d="M124 500l188 -240l-203 -260h-99l206 260l-192 240h100zM321 0v500h87v-500h-87zM417 260l188 240h99l-191 -240l206 -260h-99z" />
    <glyph glyph-name="afii10073" unicode="&#x437;" horiz-adv-x="469" 
d="M229 52q52 0 82 27t30 58q0 39 -25.5 64t-69.5 25h-73v61h75q34 0 63.5 22.5t29.5 55.5q0 34 -28 57t-72 23q-50 0 -83.5 -13t-63.5 -48l-46 46q71 85 200 85q85 0 130 -38.5t45 -93.5q0 -92 -95 -123q52 -11 82 -46t30 -80q0 -63 -50 -106t-156 -43q-66 0 -110.5 16.5
t-85.5 58.5l40 50q39 -34 69 -46t82 -12z" />
    <glyph glyph-name="afii10074" unicode="&#x438;" horiz-adv-x="536" 
d="M134 500v-352l300 359h54v-507h-88v350l-298 -357h-55v507h87z" />
    <glyph glyph-name="afii10075" unicode="&#x439;" horiz-adv-x="544" 
d="M275 645q76 0 147 34q22 -46 26 -56q-77 -40 -173 -40t-175 40l26 56q71 -34 149 -34zM134 500v-352l300 359h54v-507h-88v350l-298 -357h-55v507h87z" />
    <glyph glyph-name="afii10076" unicode="&#x43a;" horiz-adv-x="495" 
d="M378 0l-234 259l224 241h100l-229 -241l239 -259h-100zM47 500h87v-500h-87v500z" />
    <glyph glyph-name="afii10077" unicode="&#x43b;" horiz-adv-x="553" 
d="M10 0v69h22q57 0 75 89t18 342h380v-500h-87v424h-214q0 -242 -32 -333t-124 -91h-38z" />
    <glyph glyph-name="afii10078" unicode="&#x43c;" horiz-adv-x="612" 
d="M306 261l200 246h58v-507h-87v355l-166 -200h-12l-165 199v-354h-87v507h58z" />
    <glyph glyph-name="afii10079" unicode="&#x43d;" horiz-adv-x="543" 
d="M408 220h-274v-220h-87v500h87v-202h274v202h87v-500h-87v220z" />
    <glyph glyph-name="afii10080" unicode="&#x43e;" horiz-adv-x="584" 
d="M292 -15q-109 0 -184.5 77.5t-75.5 187.5t75.5 187.5t184.5 77.5t184 -77.5t75 -187.5t-75 -187.5t-184 -77.5zM464 250q0 75 -49 128t-123 53t-123.5 -53t-49.5 -128q0 -77 49.5 -130t123.5 -53t123 53t49 130z" />
    <glyph glyph-name="afii10081" unicode="&#x43f;" horiz-adv-x="543" 
d="M408 424h-274v-424h-87v500h448v-500h-87v424z" />
    <glyph glyph-name="afii10082" unicode="&#x440;" horiz-adv-x="596" 
d="M311 -14q-58 0 -104.5 23.5t-72.5 66.5v-280h-87v704h78v-90q26 46 77.5 75.5t108.5 29.5q109 0 180 -77t71 -188t-71 -187.5t-180 -76.5zM475 250q0 75 -51.5 128t-126.5 53q-50 0 -94.5 -26.5t-68.5 -68.5v-173q23 -43 67.5 -69.5t95.5 -26.5q75 0 126.5 53t51.5 130z
" />
    <glyph glyph-name="afii10083" unicode="&#x441;" horiz-adv-x="543" 
d="M33 250q0 110 75.5 187.5t184.5 77.5q67 0 122.5 -30.5t91.5 -83.5l-63 -49q-62 81 -150 81q-71 0 -124.5 -55t-53.5 -128q0 -74 53.5 -129t124.5 -55q88 0 150 81l63 -48q-36 -53 -91.5 -83.5t-122.5 -30.5q-109 0 -184.5 77.5t-75.5 187.5z" />
    <glyph glyph-name="afii10084" unicode="&#x442;" horiz-adv-x="471" 
d="M462 500v-81h-184v-419h-87v419h-184v81h455z" />
    <glyph glyph-name="afii10085" unicode="&#x443;" horiz-adv-x="520" 
d="M126 -204l86 204l-207 500h95l160 -388l159 388h96l-296 -704h-93z" />
    <glyph glyph-name="afii10086" unicode="&#x444;" horiz-adv-x="710" 
d="M291 62h20v375h-20q-72 0 -121 -55.5t-49 -131.5t49 -132t121 -56zM311 -15h-24q-107 0 -180.5 77.5t-73.5 187.5q0 111 73 188t181 77h24v195h87v-195h24q106 0 180 -78.5t74 -186.5q0 -110 -73 -187.5t-181 -77.5h-24v-189h-87v189zM398 62h19q72 0 121 56t49 132
t-49 131.5t-121 55.5h-19v-375z" />
    <glyph glyph-name="afii10087" unicode="&#x445;" horiz-adv-x="535" 
d="M267 309l134 191h110l-191 -245l201 -255h-111l-143 196l-142 -196h-112l196 255l-186 245h111z" />
    <glyph glyph-name="afii10088" unicode="&#x446;" horiz-adv-x="596" 
d="M134 75h274v425h87v-425h81v-206h-83v131h-446v500h87v-425z" />
    <glyph glyph-name="afii10089" unicode="&#x447;" horiz-adv-x="488" 
d="M30 332v168h87v-160q0 -40 31.5 -66.5t79.5 -26.5q69 0 125 16v237h88v-500h-88v189q-74 -17 -144 -17q-71 0 -125 42t-54 118z" />
    <glyph glyph-name="afii10090" unicode="&#x448;" horiz-adv-x="804" 
d="M134 75h223v425h88v-425h223v425h87v-500h-708v500h87v-425z" />
    <glyph glyph-name="afii10091" unicode="&#x449;" horiz-adv-x="862" 
d="M132 75h223v425h88v-425h223v425h87v-425h88v-206h-75v131h-721v500h87v-425z" />
    <glyph glyph-name="afii10092" unicode="&#x44a;" horiz-adv-x="620" 
d="M262 320h151q85 0 131.5 -41.5t46.5 -118.5q0 -70 -47.5 -115t-130.5 -45h-238v419h-168v81h255v-180zM399 254h-137v-189h137q49 0 77 27t28 68q0 40 -28 67t-77 27z" />
    <glyph glyph-name="afii10093" unicode="&#x44b;" horiz-adv-x="658" 
d="M463 160q0 -70 -47.5 -115t-130.5 -45h-238v500h87v-180h151q81 0 129.5 -45t48.5 -115zM522 0v500h88v-500h-88zM271 254h-137v-189h137q49 0 77 27t28 68q0 40 -28 67t-77 27z" />
    <glyph glyph-name="afii10094" unicode="&#x44c;" horiz-adv-x="492" 
d="M463 160q0 -70 -47.5 -115t-130.5 -45h-238v500h87v-180h151q81 0 129.5 -45t48.5 -115zM271 254h-137v-189h137q49 0 77 27t28 68q0 40 -28 67t-77 27z" />
    <glyph glyph-name="afii10095" unicode="&#x44d;" horiz-adv-x="538" 
d="M504 250q0 -110 -76 -187.5t-186 -77.5q-134 0 -212 114l55 43q62 -84 157 -84q67 0 116 48t61 118h-238v64h237q-12 70 -59 111.5t-117 41.5q-95 0 -157 -84l-55 44q79 114 212 114q110 0 186 -77.5t76 -187.5z" />
    <glyph glyph-name="afii10096" unicode="&#x44e;" horiz-adv-x="775" 
d="M484 -15q-102 0 -174.5 69t-80.5 170h-95v-224h-87v500h87v-206h98q14 94 84.5 157.5t167.5 63.5q109 0 183 -77.5t74 -187.5t-74 -187.5t-183 -77.5zM656 250q0 75 -49 128t-123 53t-123 -53t-49 -128q0 -77 49 -130t123 -53t123 53t49 130z" />
    <glyph glyph-name="afii10097" unicode="&#x44f;" horiz-adv-x="511" 
d="M376 179h-120l-125 -179h-99l135 190q-60 10 -95 51t-35 98q0 70 48 115.5t131 45.5h247v-500h-87v179zM230 248h146v182h-146q-49 0 -77 -25.5t-28 -65.5q0 -41 28 -66t77 -25z" />
    <glyph glyph-name="afii10071" unicode="&#x451;" 
d="M33 250q0 111 73 188t182 77t175 -69t66 -193q0 -9 -3 -33h-405q9 -69 60.5 -115.5t119.5 -46.5q93 0 164 78l42 -50q-81 -101 -215 -101q-109 0 -184 77.5t-75 187.5zM288 445q-70 0 -117 -46.5t-53 -119.5h331q-4 75 -47.5 120.5t-113.5 45.5zM333 638q0 23 16 39.5
t39 16.5t39 -16.5t16 -39.5t-16 -38t-39 -15t-39 15t-16 38zM121 638q0 23 16 39.5t38 16.5q23 0 39 -16.5t16 -39.5t-16 -38t-39 -15t-38.5 15t-15.5 38z" />
    <glyph glyph-name="afii10099" unicode="&#x452;" 
d="M426 -204v468q0 165 -121 165q-86 0 -159 -108v-321h-87v572h-59v60h59v78h87v-78h222v-60h-222v-163q88 104 194 104q91 0 132 -60.5t41 -176.5v-480h-87z" />
    <glyph glyph-name="afii10100" unicode="&#x453;" horiz-adv-x="435" 
d="M425 500v-79h-291v-421h-87v500h378zM355 745l-151 -165h-62l108 165h105z" />
    <glyph glyph-name="afii10101" unicode="&#x454;" horiz-adv-x="537" 
d="M35 250q0 110 75.5 187.5t185.5 77.5q133 0 213 -114q-6 -4 -28.5 -22l-27.5 -22q-62 84 -156 84q-61 0 -112 -42t-64 -111h237v-64h-239q7 -69 59 -117.5t119 -48.5q94 0 156 84l56 -43q-79 -114 -213 -114q-110 0 -185.5 77.5t-75.5 187.5z" />
    <glyph glyph-name="afii10102" unicode="&#x455;" horiz-adv-x="477" 
d="M364 140q0 25 -23 39.5t-58 19.5t-75 15t-75 22.5t-58 44.5t-23 81q0 64 50 108.5t143 44.5q114 0 193 -78l-44 -53q-36 35 -70 48t-79 13q-48 0 -78.5 -25.5t-30.5 -56.5q0 -33 32 -50t78 -24t92.5 -17.5t78.5 -42t32 -85.5q0 -74 -53.5 -116.5t-154.5 -42.5
q-126 0 -213 80l43 59q82 -69 170 -69q59 0 91 25t32 60z" />
    <glyph glyph-name="afii10103" unicode="&#x456;" horiz-adv-x="187" 
d="M50 0v500h87v-500h-87zM40 629q0 22 16 38t38 16q21 0 36.5 -16t15.5 -38t-15.5 -37t-36.5 -15q-22 0 -38 15t-16 37z" />
    <glyph glyph-name="afii10104" unicode="&#x457;" horiz-adv-x="187" 
d="M117 629q0 21 12 36t30 15q17 0 29.5 -15t12.5 -36t-12.5 -35.5t-29.5 -14.5q-18 0 -30 14t-12 36zM2 629q0 21 12 36t29 15q18 0 30.5 -15t12.5 -36q0 -22 -12.5 -36t-30.5 -14q-17 0 -29 14t-12 36zM50 0v500h87v-500h-87z" />
    <glyph glyph-name="afii10105" unicode="&#x458;" horiz-adv-x="187" 
d="M50 -204v704h87v-704h-87zM40 629q0 22 16 38t38 16q21 0 36.5 -16t15.5 -38t-15.5 -37t-36.5 -15q-22 0 -38 15t-16 37z" />
    <glyph glyph-name="afii10106" unicode="&#x459;" horiz-adv-x="873" 
d="M844 160q0 -69 -48.5 -114.5t-130.5 -45.5h-247v424h-214q0 -238 -30 -331t-114 -93h-50v69h24q37 0 56 36.5t27 127.5t8 267h380v-180h160q86 0 132.5 -40t46.5 -120zM651 246h-146v-173h146q50 0 77.5 23.5t27.5 63.5t-27.5 63t-77.5 23z" />
    <glyph glyph-name="afii10107" unicode="&#x45a;" horiz-adv-x="862" 
d="M833 160q0 -70 -47.5 -115t-130.5 -45h-244v250h-279v-250h-87v500h87v-180h279v180h88v-180h156q178 0 178 -160zM641 250h-142v-180h142q49 0 77 24.5t28 65.5q0 40 -28 65t-77 25z" />
    <glyph glyph-name="afii10108" unicode="&#x45b;" 
d="M426 0v282q0 147 -121 147q-86 0 -159 -108v-321h-87v572h-59v60h59v78h87v-78h222v-60h-222v-163q88 104 194 104q73 0 117 -43.5t51 -130.5q5 -72 5 -134v-205h-87z" />
    <glyph glyph-name="afii10109" unicode="&#x45c;" horiz-adv-x="495" 
d="M378 0l-234 259l224 241h100l-229 -241l239 -259h-100zM47 500h87v-500h-87v500zM372 745l-151 -165h-62l108 165h105z" />
    <glyph glyph-name="afii10110" unicode="&#x45e;" horiz-adv-x="520" 
d="M260 645q76 0 147 34l26 -56q-77 -40 -173 -40t-175 40l26 56q72 -34 149 -34zM126 -204l86 204l-207 500h95l160 -388l159 388h96l-296 -704h-93z" />
    <glyph glyph-name="afii10193" unicode="&#x45f;" horiz-adv-x="552" 
d="M134 75h282v425h89v-500h-189v-135h-82v135h-187v500h87v-425z" />
    <glyph glyph-name="afii10050" unicode="&#x490;" horiz-adv-x="535" 
d="M520 824v-216h-360v-608h-100v700h381v124h79z" />
    <glyph glyph-name="afii10098" unicode="&#x491;" horiz-adv-x="440" 
d="M427 624v-205h-290v-419h-87v500h308v124h69z" />
    <glyph glyph-name="endash" unicode="&#x2013;" horiz-adv-x="558" 
d="M35 249v65h488v-65h-488z" />
    <glyph glyph-name="emdash" unicode="&#x2014;" horiz-adv-x="821" 
d="M2 249v65h815v-65h-815z" />
    <glyph glyph-name="quoteleft" unicode="&#x2018;" horiz-adv-x="270" 
d="M209 712l-57 -282h-108l107 282h58z" />
    <glyph glyph-name="quoteright" unicode="&#x2019;" horiz-adv-x="270" 
d="M44 430l57 282h108l-106 -282h-59z" />
    <glyph glyph-name="quotesinglbase" unicode="&#x201a;" horiz-adv-x="290" 
d="M44 -148l57 281h108l-106 -281h-59z" />
    <glyph glyph-name="quotedblleft" unicode="&#x201c;" horiz-adv-x="500" 
d="M209 712l-57 -282h-108l107 282h58zM423 712l-57 -282h-108l106 282h59z" />
    <glyph glyph-name="quotedblright" unicode="&#x201d;" horiz-adv-x="500" 
d="M258 430l57 282h108l-106 -282h-59zM44 430l57 282h108l-106 -282h-59z" />
    <glyph glyph-name="quotedblbase" unicode="&#x201e;" horiz-adv-x="492" 
d="M258 -148l57 281h108l-106 -281h-59zM44 -148l57 281h108l-106 -281h-59z" />
    <glyph glyph-name="dagger" unicode="&#x2020;" horiz-adv-x="471" 
d="M298 -108h-104l11 505l-165 -9v98l165 -10l-11 224h102l-11 -224l164 10v-98l-165 9z" />
    <glyph glyph-name="daggerdbl" unicode="&#x2021;" horiz-adv-x="471" 
d="M284 420l13 -124l-13 -126l165 10v-98l-164 9l11 -199h-102l11 199l-165 -9v98l165 -10l-12 126l12 124l-165 -9v98l165 -10l-11 201h102l-11 -201l164 10v-98z" />
    <glyph glyph-name="bullet" unicode="&#x2022;" horiz-adv-x="320" 
d="M55 319q0 43 31 74t73 31t73.5 -31t31.5 -74t-30.5 -73t-74.5 -30q-43 0 -73.5 30t-30.5 73z" />
    <glyph glyph-name="ellipsis" unicode="&#x2026;" horiz-adv-x="787" 
d="M69 55q0 25 18 43t43 18t43 -18t18 -43t-18 -42t-43 -17q-26 0 -43.5 17t-17.5 42zM332 55q0 25 17.5 43t42.5 18t43 -18t18 -43t-18 -42t-43 -17q-26 0 -43 17t-17 42zM594 55q0 25 18 43t43 18t43 -18t18 -43t-18 -42t-43 -17q-26 0 -43.5 17t-17.5 42z" />
    <glyph glyph-name="perthousand" unicode="&#x2030;" horiz-adv-x="1045" 
d="M866 283q63 0 101 -40t38 -102q0 -61 -38 -101t-101 -40t-101 40t-38 101q0 62 38 102t101 40zM866 45q42 0 68 27.5t26 68.5q0 42 -26 69t-68 27q-43 0 -68 -27t-25 -69t25 -69t68 -27zM534 283q63 0 101 -40t38 -102q0 -61 -38 -101t-101 -40t-101 40t-38 101
q0 62 38 102t101 40zM534 45q42 0 68 27.5t26 68.5q0 42 -26 69t-68 27q-43 0 -68.5 -27t-25.5 -69q0 -41 25.5 -68.5t68.5 -27.5zM183 699q63 0 101.5 -40.5t38.5 -101.5q0 -62 -38.5 -102t-101.5 -40t-101 40t-38 102q0 61 38 101.5t101 40.5zM183 460q43 0 68.5 27.5
t25.5 69.5q0 41 -25.5 68.5t-68.5 27.5t-68 -27t-25 -69t25 -69.5t68 -27.5zM127 0h-67l533 700h66z" />
    <glyph glyph-name="guilsinglleft" unicode="&#x2039;" horiz-adv-x="294" 
d="M30 244l201 212l33 -31l-151 -188l151 -188l-33 -31l-201 212v14z" />
    <glyph glyph-name="guilsinglright" unicode="&#x203a;" horiz-adv-x="294" 
d="M63 456l201 -212v-14l-201 -212l-33 31l151 188l-151 188z" />
    <glyph glyph-name="fraction" unicode="&#x2044;" horiz-adv-x="718" 
d="M127 0h-67l533 700h66z" />
    <glyph glyph-name="Euro" unicode="&#x20ac;" horiz-adv-x="568" 
d="M462 248h-263q36 -169 156 -169q104 0 176 106l49 -68q-36 -63 -97 -97.5t-128 -34.5q-62 0 -110.5 21t-80.5 58.5t-51.5 82.5t-29.5 101h-71v60h63q-1 12 -1 42q0 29 1 41h-63v60h71q10 54 30 99t51.5 83.5t80.5 60t110 21.5q67 0 128 -35t97 -98l-49 -68
q-71 106 -176 106q-120 0 -156 -169h263v-60h-281q-1 -15 -1 -41q0 -28 1 -42h281v-60z" />
    <glyph glyph-name="afii61352" unicode="&#x2116;" horiz-adv-x="1013" 
d="M627 700v-707h-49l-418 509v-502h-100v707h48l418 -511v504h101zM833 699q63 0 101 -40.5t38 -101.5q0 -62 -38 -102t-101 -40t-101.5 40t-38.5 102q0 61 38.5 101.5t101.5 40.5zM833 649q-41 0 -66 -26t-25 -66t25 -66.5t66 -26.5q40 0 65 26.5t25 66.5t-24.5 66
t-65.5 26zM691 358h284v-64h-284v64z" />
    <glyph glyph-name="trademark" unicode="&#x2122;" horiz-adv-x="682" 
d="M334 391v309h54l100 -142l101 142h52v-309h-55v229l-88 -126h-21l-88 126v-229h-55zM128 391v258h-106v51h266v-51h-105v-258h-55z" />
    <glyph glyph-name="minus" unicode="&#x2212;" horiz-adv-x="640" 
d="M59 319h520v-66h-520v66z" />
    <glyph glyph-name="infinity" unicode="&#x221e;" horiz-adv-x="718" 
d="M626 287q0 52 -28 80t-72 28q-21 0 -41.5 -10.5t-38.5 -31.5t-27 -33t-23 -34q14 -22 23 -34t27 -33t38.5 -31.5t41.5 -10.5q45 0 72.5 28.5t27.5 81.5zM358 344q2 3 13.5 17.5t18 22t19.5 21.5t24.5 22t26.5 17.5t31.5 13.5t34.5 4q74 0 120 -48t46 -127q0 -84 -46 -130
t-120 -46q-17 0 -33.5 4t-31.5 13.5t-26.5 17.5t-25 22t-20 21t-18 21.5t-13.5 17.5q-1 -1 -13.5 -17.5t-18 -22t-19.5 -21t-25 -22.5t-26 -16.5t-31.5 -13.5t-34.5 -4q-72 0 -118.5 47t-46.5 129q0 80 45 127.5t120 47.5q18 0 34.5 -4t31.5 -13.5t26 -17t24.5 -22.5
t19.5 -21.5t18.5 -22t13.5 -17.5zM91 287q0 -53 27.5 -81.5t71.5 -28.5q21 0 41 10.5t38.5 31.5t27 33.5t22.5 34.5q-13 21 -22 33.5t-27 33t-38.5 31t-41.5 10.5q-44 0 -71.5 -28t-27.5 -80z" />
    <glyph glyph-name="approxequal" unicode="&#x2248;" horiz-adv-x="640" 
d="M59 368v66q56 56 126 56q45 0 134 -33t133 -33q69 0 127 58v-66q-58 -58 -127 -58q-46 0 -135 33t-133 33q-69 0 -125 -56zM59 123v67q56 55 126 55q45 0 134 -32.5t133 -32.5q70 0 127 57v-66q-57 -57 -127 -57q-46 0 -135 33t-133 33q-69 0 -125 -57z" />
    <glyph glyph-name="notequal" unicode="&#x2260;" horiz-adv-x="640" 
d="M59 379v66h285l62 154l57 -22l-52 -132h168v-66h-193l-76 -191h269v-65h-295l-53 -133q-6 3 -18 7.5t-21.5 8.5t-17.5 8l43 109h-158v65h183l77 191h-260z" />
    <glyph glyph-name="lessequal" unicode="&#x2264;" horiz-adv-x="640" 
d="M67 362l499 183v-65l-421 -150l421 -148v-65l-499 181v64zM566 0h-499v65h499v-65z" />
    <glyph glyph-name="greaterequal" unicode="&#x2265;" horiz-adv-x="640" 
d="M67 545l499 -183v-64l-499 -181v65l422 148l-422 150v65zM566 0h-499v65h499v-65z" />
    <glyph glyph-name="lozenge" unicode="&#x25ca;" horiz-adv-x="548" 
d="M106 350l166 -273l166 273l-166 271zM30 350l218 350h49l218 -350l-218 -350h-49z" />
    <glyph glyph-name="zerosmall" unicode="&#xf326;" horiz-adv-x="543" 
d="M137 271q0 -108 41.5 -163.5t91.5 -55.5q51 0 92.5 55.5t41.5 163.5q0 107 -41.5 162t-92.5 55q-50 0 -91.5 -55t-41.5 -162zM489 271q0 -137 -63.5 -209.5t-155.5 -72.5q-91 0 -154.5 73t-63.5 209t64 209t154 73q92 0 155.5 -73t63.5 -209z" />
    <glyph glyph-name="onesmall" unicode="&#xf327;" horiz-adv-x="500" 
d="M464 70v-70h-410v70h161v388l-151 -86l-30 54l220 126h49v-482h161z" />
    <glyph glyph-name="twosmall" unicode="&#xf328;" horiz-adv-x="510" 
d="M97 389l-51 44q84 120 209 120q92 0 147 -47.5t55 -117.5q0 -81 -62.5 -148.5t-221.5 -167.5h294v-72h-420v60q191 126 257 189.5t66 131.5q0 44 -31 70t-83 26q-53 0 -87.5 -19t-71.5 -69z" />
    <glyph glyph-name="threesmall" unicode="&#xf329;" horiz-adv-x="500" 
d="M246 484q-95 0 -134 -74l-56 34q29 52 81.5 80.5t114.5 28.5q85 0 133 -42.5t48 -101.5q0 -93 -108 -128q59 -11 91 -50t32 -91q0 -66 -57.5 -110t-146.5 -44q-63 0 -114 28t-79 80l57 34q17 -32 53 -53t79 -21q48 0 85 25.5t37 67.5q0 43 -34 71.5t-92 28.5h-70v62h71
q52 0 82.5 26.5t30.5 63.5q0 34 -28.5 59.5t-75.5 25.5z" />
    <glyph glyph-name="foursmall" unicode="&#xf32a;" horiz-adv-x="545" 
d="M418 0h-87v124h-292l-13 45l328 383h64v-366h106v-62h-106v-124zM331 436l-218 -250h218v250z" />
    <glyph glyph-name="fivesmall" unicode="&#xf32b;" horiz-adv-x="517" 
d="M244 54q52 0 96 37.5t44 89.5q0 57 -38 92t-98 35q-78 0 -128 -53l-47 24l40 262h329v-75h-274l-24 -134q50 39 125 39q91 0 143.5 -56t52.5 -134q0 -81 -63.5 -138t-157.5 -57q-63 0 -114 28t-79 80l57 34q17 -32 54.5 -53t81.5 -21z" />
    <glyph glyph-name="sixsmall" unicode="&#xf32c;" horiz-adv-x="532" 
d="M408 189q0 62 -39 99.5t-100 37.5t-100.5 -37.5t-39.5 -99.5q0 -61 39.5 -98t100.5 -37t100 37t39 98zM489 186q0 -90 -64 -144t-156 -54q-96 0 -159.5 58.5t-63.5 149.5q0 197 76 276t242 79q26 0 38 -1v-69q-52 0 -85 -2.5t-70.5 -11.5t-60 -26.5t-41.5 -49t-28 -77.5
q20 32 62 52t91 20q94 0 156.5 -56t62.5 -144z" />
    <glyph glyph-name="sevensmall" unicode="&#xf32d;" horiz-adv-x="511" 
d="M471 479l-215 -479h-95l214 464h-341v77h437v-62z" />
    <glyph glyph-name="eightsmall" unicode="&#xf32e;" horiz-adv-x="526" 
d="M262 -12q-92 0 -151 42t-59 111q0 56 32 91t87 48q-98 31 -98 130q0 63 53.5 103t135.5 40q84 0 137.5 -40.5t53.5 -102.5q0 -54 -28.5 -86t-70.5 -44q118 -29 118 -139q0 -70 -58.5 -111.5t-151.5 -41.5zM262 250q-58 0 -94.5 -26t-36.5 -73q0 -46 36.5 -71t94.5 -25
t95 25t37 71q0 47 -37 73t-95 26zM262 486q-49 0 -81.5 -23t-32.5 -64q0 -40 32.5 -64t81.5 -24t82 24t33 64q0 41 -32.5 64t-82.5 23z" />
    <glyph glyph-name="ninesmall" unicode="&#xf32f;" horiz-adv-x="532" 
d="M127 352q0 -62 39 -99.5t100 -37.5t100.5 37.5t39.5 99.5q0 61 -39.5 98t-100.5 37t-100 -37t-39 -98zM46 355q0 90 64 144t156 54q96 0 159.5 -58.5t63.5 -149.5q0 -197 -76 -276t-242 -79q-26 0 -38 1v69q52 0 85 2.5t70.5 11.5t60 26.5t41.5 49t28 77.5
q-20 -32 -62 -52t-91 -20q-94 0 -156.5 56t-62.5 144z" />
    <glyph glyph-name="afii10017small" unicode="&#xf350;" horiz-adv-x="552" 
d="M454 0l-45 110h-269l-45 -110h-88l221 550h94l222 -550h-90zM275 444l-110 -264h219z" />
    <glyph glyph-name="afii10018small" unicode="&#xf351;" horiz-adv-x="529" 
d="M443 543v-70h-294v-149h171q71 0 120.5 -46.5t49.5 -116.5t-48.5 -115.5t-121.5 -45.5h-259v543h382zM149 69h148q44 0 74.5 26.5t30.5 66.5q0 41 -30.5 66.5t-74.5 25.5h-148v-185z" />
    <glyph glyph-name="afii10019small" unicode="&#xf352;" horiz-adv-x="528" 
d="M322 0h-261v543h244q64 0 107.5 -39t43.5 -96q0 -42 -22.5 -75.5t-63.5 -50.5q57 -15 88 -52.5t31 -83.5q0 -63 -48 -104.5t-119 -41.5zM295 245h-145v-177h145q45 0 75 24.5t30 64.5q0 37 -30.5 62.5t-74.5 25.5zM150 474v-164h142q35 0 58.5 24t23.5 58q0 36 -26.5 59
t-66.5 23h-131z" />
    <glyph glyph-name="afii10020small" unicode="&#xf353;" horiz-adv-x="452" 
d="M441 543v-76h-292v-467h-88v543h380z" />
    <glyph glyph-name="afii10021small" unicode="&#xf354;" horiz-adv-x="646" 
d="M93 0v-117h-76v192h62q41 71 63 173t22 295h378v-468h81v-192h-77v117h-453zM453 75v392h-204q0 -100 -13.5 -181.5t-28 -122.5t-37.5 -88h283z" />
    <glyph glyph-name="afii10022small" unicode="&#xf355;" horiz-adv-x="478" 
d="M444 74v-74h-382v543h377v-74h-290v-154h227v-72h-227v-169h295z" />
    <glyph glyph-name="afii10024small" unicode="&#xf356;" horiz-adv-x="759" 
d="M30 543h99l186 -267l-196 -276h-102l200 277zM335 543h88v-543h-88v543zM630 543h99l-188 -267l200 -276h-102l-196 276z" />
    <glyph glyph-name="afii10025small" unicode="&#xf357;" horiz-adv-x="478" 
d="M230 61q49 0 78.5 27.5t29.5 63.5q0 52 -31.5 74t-78.5 22h-80v63h103q33 0 64 24t31 60q0 43 -30.5 66t-75.5 23q-101 0 -155 -72l-44 50q33 43 86 67.5t114 24.5q86 0 135.5 -40t49.5 -103q0 -43 -27.5 -81t-78.5 -49q55 -12 87 -50t32 -83q0 -68 -60.5 -114
t-148.5 -46q-60 0 -112.5 24.5t-84.5 67.5l45 53q23 -31 64.5 -51.5t87.5 -20.5z" />
    <glyph glyph-name="afii10026small" unicode="&#xf358;" horiz-adv-x="584" 
d="M61 -7v550h88v-386l322 393h51v-550h-88v384l-322 -391h-51z" />
    <glyph glyph-name="afii10027small" unicode="&#xf359;" horiz-adv-x="584" 
d="M295 656q75 0 135 30l26 -56q-70 -35 -161 -35t-162 35l27 56q59 -30 135 -30zM61 -7v550h88v-386l322 393h51v-550h-88v384l-322 -391h-51z" />
    <glyph glyph-name="afii10028small" unicode="&#xf35a;" horiz-adv-x="524" 
d="M394 0l-227 278l221 265h109l-231 -265l245 -278h-117zM61 0v543h88v-543h-88z" />
    <glyph glyph-name="afii10029small" unicode="&#xf35b;" horiz-adv-x="600" 
d="M7 0v75q55 0 82 39q34 35 48 131t14 298h387v-543h-89v467h-215q0 -125 -9.5 -210t-25.5 -136t-46 -77.5t-62.5 -35t-83.5 -8.5z" />
    <glyph glyph-name="afii10030small" unicode="&#xf35c;" horiz-adv-x="664" 
d="M322 149q-118 162 -178 243v-392h-83v550h58l213 -293q112 154 212 293h59v-550h-83v393l-179 -244h-19z" />
    <glyph glyph-name="afii10031small" unicode="&#xf35d;" horiz-adv-x="589" 
d="M440 0v243h-290v-243h-89v543h89v-225h290v225h87v-543h-87z" />
    <glyph glyph-name="afii10032small" unicode="&#xf35e;" horiz-adv-x="630" 
d="M315 -12q-117 0 -198.5 82.5t-81.5 200.5t81.5 201t198.5 83t198.5 -83t81.5 -201t-81.5 -200.5t-198.5 -82.5zM510 271q0 84 -56 144t-139 60t-139 -60t-56 -144q0 -86 56 -145.5t139 -59.5t139 59.5t56 145.5z" />
    <glyph glyph-name="afii10033small" unicode="&#xf35f;" horiz-adv-x="589" 
d="M440 0v467h-291v-467h-88v543h466v-543h-87z" />
    <glyph glyph-name="afii10034small" unicode="&#xf360;" horiz-adv-x="509" 
d="M293 198h-143v-198h-89v543h232q77 0 131 -51t54 -124q0 -72 -54 -121t-131 -49zM150 467v-194h134q45 0 75 27.5t30 69.5q0 41 -30.5 69t-74.5 28h-134z" />
    <glyph glyph-name="afii10035small" unicode="&#xf361;" horiz-adv-x="577" 
d="M315 67q50 0 92.5 24.5t68.5 65.5l69 -49q-38 -56 -99 -88t-131 -32q-117 0 -198.5 82.5t-81.5 200.5t81.5 201t198.5 83q70 0 131 -32.5t99 -88.5l-69 -49q-26 41 -68.5 65.5t-92.5 24.5q-83 0 -139 -60t-56 -144q0 -85 56 -144.5t139 -59.5z" />
    <glyph glyph-name="afii10036small" unicode="&#xf362;" horiz-adv-x="522" 
d="M304 467v-467h-89v467h-201v76h492v-76h-202z" />
    <glyph glyph-name="afii10037small" unicode="&#xf363;" horiz-adv-x="530" 
d="M145 0l77 150l-215 393h101l163 -299l152 299h99l-279 -543h-98z" />
    <glyph glyph-name="afii10038small" unicode="&#xf364;" horiz-adv-x="663" 
d="M387 57h-11v-57h-89v57h-13q-104 0 -171.5 63.5t-67.5 160.5q0 100 68.5 162.5t172.5 62.5h11v51h89v-51h12q103 0 171.5 -64.5t68.5 -160.5q0 -101 -68 -162.5t-173 -61.5zM376 128q79 0 124.5 41.5t45.5 111.5q0 68 -46 110.5t-124 43.5v-307zM116 281q0 -70 46 -111.5
t125 -41.5v307q-79 -1 -125 -43t-46 -111z" />
    <glyph glyph-name="afii10039small" unicode="&#xf365;" horiz-adv-x="549" 
d="M274 204l-152 -204h-107l206 276l-198 267h106l145 -196l145 196h106l-198 -267l206 -276h-107z" />
    <glyph glyph-name="afii10040small" unicode="&#xf366;" horiz-adv-x="621" 
d="M429 75v468h87v-468h82v-192h-78v117h-459v543h89v-468h279z" />
    <glyph glyph-name="afii10041small" unicode="&#xf367;" horiz-adv-x="508" 
d="M35 365v178h87v-178q0 -49 30.5 -76.5t89.5 -27.5q60 0 116 14v268h88v-543h-88v202q-62 -15 -125 -15q-89 0 -143.5 45.5t-54.5 132.5z" />
    <glyph glyph-name="afii10042small" unicode="&#xf368;" horiz-adv-x="849" 
d="M380 75v468h88v-468h231v468h88v-543h-726v543h89v-468h230z" />
    <glyph glyph-name="afii10043small" unicode="&#xf369;" horiz-adv-x="890" 
d="M380 75v468h88v-468h230v468h89v-468h80v-192h-77v117h-729v543h88v-468h231z" />
    <glyph glyph-name="afii10044small" unicode="&#xf36a;" horiz-adv-x="598" 
d="M241 344h143q76 0 129 -50t53 -122q0 -73 -52.5 -122.5t-129.5 -49.5h-231v467h-141v76h229v-199zM241 267v-192h132q44 0 74.5 27.5t30.5 68.5t-31 68.5t-74 27.5h-132z" />
    <glyph glyph-name="afii10045small" unicode="&#xf36b;" horiz-adv-x="670" 
d="M608 0h-88v543h88v-543zM149 344h143q76 0 129 -49.5t53 -122.5q0 -74 -52 -123t-130 -49h-231v543h88v-199zM149 267v-192h132q44 0 74.5 27.5t30.5 68.5t-31.5 68.5t-73.5 27.5h-132z" />
    <glyph glyph-name="afii10046small" unicode="&#xf36c;" horiz-adv-x="507" 
d="M149 344h144q76 0 128.5 -49.5t52.5 -122.5q0 -74 -52 -123t-129 -49h-232v543h88v-199zM149 267v-192h132q44 0 74.5 27.5t30.5 68.5t-31 68.5t-74 27.5h-132z" />
    <glyph glyph-name="afii10047small" unicode="&#xf36d;" horiz-adv-x="577" 
d="M196 247v66h253q-11 70 -64 116t-124 46q-50 0 -92.5 -24.5t-68.5 -65.5l-69 49q38 56 98.5 88.5t131.5 32.5q117 0 198.5 -83t81.5 -201t-81.5 -200.5t-198.5 -82.5q-71 0 -131.5 32t-98.5 88l69 49q26 -41 68.5 -65.5t92.5 -24.5q76 0 130.5 52t61.5 128h-257z" />
    <glyph glyph-name="afii10048small" unicode="&#xf36e;" horiz-adv-x="829" 
d="M512 -12q-110 0 -189 73.5t-88 181.5h-85v-243h-89v543h89v-225h87q16 102 93 169.5t182 67.5q117 0 198.5 -83t81.5 -201t-81.5 -200.5t-198.5 -82.5zM707 271q0 85 -55.5 144.5t-139.5 59.5q-82 0 -138.5 -60t-56.5 -144q0 -85 56 -145t139 -60q84 0 139.5 59.5
t55.5 145.5z" />
    <glyph glyph-name="afii10049small" unicode="&#xf36f;" horiz-adv-x="521" 
d="M371 0v198h-108l-144 -198h-97l151 209q-57 14 -94 58t-37 101q0 72 54.5 123.5t131.5 51.5h231v-543h-88zM132 369q0 -41 29.5 -68.5t73.5 -27.5h136v194h-136q-43 0 -73 -28.5t-30 -69.5z" />
    <glyph glyph-name="afii10023small" unicode="&#xf371;" horiz-adv-x="478" 
d="M444 74v-74h-382v543h377v-74h-290v-154h227v-72h-227v-169h295zM304 681q0 23 16 39.5t39 16.5t39 -16.5t16 -39.5t-16 -38t-39 -15t-39 15t-16 38zM92 681q0 23 16 39.5t38 16.5q23 0 39 -16.5t16 -39.5t-16 -38t-39 -15t-38.5 15t-15.5 38z" />
    <glyph glyph-name="afii10051small" unicode="&#xf372;" horiz-adv-x="645" 
d="M523 141v23q0 48 -31 75t-88 27q-55 0 -100 -14v-252h-89v467h-201v76h492v-76h-202v-142q58 15 113 15q89 0 141.5 -42.5t52.5 -129.5v-27q0 -62 -37.5 -106.5t-114.5 -44.5q-66 0 -119 39l27 58q42 -33 82 -33q74 0 74 87z" />
    <glyph glyph-name="afii10052small" unicode="&#xf373;" horiz-adv-x="452" 
d="M441 543v-76h-292v-467h-88v543h380zM370 788l-151 -165h-62l108 165h105z" />
    <glyph glyph-name="afii10053small" unicode="&#xf374;" horiz-adv-x="577" 
d="M379 313v-66h-256q7 -76 61 -128t131 -52q50 0 92.5 24.5t68.5 65.5l69 -49q-38 -56 -99 -88t-131 -32q-117 0 -198.5 82.5t-81.5 200.5t81.5 201t198.5 83q70 0 131 -32.5t99 -88.5l-69 -49q-26 41 -68.5 65.5t-92.5 24.5q-72 0 -124.5 -46t-63.5 -116h252z" />
    <glyph glyph-name="afii10054small" unicode="&#xf375;" horiz-adv-x="480" 
d="M236 61q56 0 92.5 26t36.5 68q0 31 -33 50t-80.5 30t-94.5 26.5t-80 51t-33 90.5q0 66 52.5 108.5t137.5 42.5q127 0 197 -83l-46 -54q-32 36 -67 51.5t-85 15.5q-46 0 -80 -21t-34 -60q0 -32 33.5 -51t81.5 -30.5t96.5 -27t82 -50t33.5 -89.5q0 -70 -58.5 -118.5
t-153.5 -48.5q-60 0 -114.5 25.5t-86.5 68.5l47 56q24 -32 67.5 -54.5t88.5 -22.5z" />
    <glyph glyph-name="afii10055small" unicode="&#xf376;" horiz-adv-x="213" 
d="M149 543v-543h-87v543h87z" />
    <glyph glyph-name="afii10056small" unicode="&#xf377;" horiz-adv-x="213" 
d="M149 543v-543h-87v543h87zM120 650q0 21 12.5 36t29.5 15q19 0 31.5 -15t12.5 -36q0 -20 -12.5 -34.5t-31.5 -14.5q-17 0 -29.5 14.5t-12.5 34.5zM1 650q0 21 12 36t31 15q18 0 30.5 -15t12.5 -36q0 -20 -12.5 -34.5t-30.5 -14.5q-19 0 -31 14t-12 35z" />
    <glyph glyph-name="afii10057small" unicode="&#xf378;" horiz-adv-x="362" 
d="M221 153v390h87v-368q0 -42 -5 -71.5t-20 -58t-47.5 -43t-81.5 -14.5q-82 0 -148 54l40 59q49 -40 96 -40q39 0 59 24.5t20 67.5z" />
    <glyph glyph-name="afii10058small" unicode="&#xf379;" horiz-adv-x="895" 
d="M538 344h143q11 0 23 -5q67 -6 113 -53t46 -114q0 -74 -52 -123t-130 -49h-231v467h-216q0 -124 -10 -209.5t-26.5 -136.5t-47 -78t-62 -35t-81.5 -8v75q55 0 82 39q34 35 48 131t14 298h387v-199zM669 268h-131v-193h131q43 0 74 28t31 69t-31 68.5t-74 27.5z" />
    <glyph glyph-name="afii10059small" unicode="&#xf37a;" horiz-adv-x="885" 
d="M660 268h-132v-193h132q42 0 73.5 28t31.5 69q0 40 -31.5 68t-73.5 28zM528 344h144q10 0 22 -5q68 -6 113.5 -53t45.5 -114q0 -74 -52 -123t-129 -49h-232v258h-291v-258h-87v543h87v-210h291v210h88v-199z" />
    <glyph glyph-name="afii10060small" unicode="&#xf37b;" horiz-adv-x="651" 
d="M616 162v-162h-88v162q0 49 -31 76.5t-92 27.5q-60 0 -101 -15v-251h-89v467h-201v76h493v-76h-203v-142q54 15 117 15q88 0 141.5 -45.5t53.5 -132.5z" />
    <glyph glyph-name="afii10061small" unicode="&#xf37c;" horiz-adv-x="524" 
d="M394 0l-227 278l221 265h109l-231 -265l245 -278h-117zM61 0v543h88v-543h-88zM391 788l-151 -165h-62l108 165h105z" />
    <glyph glyph-name="afii10062small" unicode="&#xf37e;" horiz-adv-x="530" 
d="M271 656q75 0 135 30l26 -56q-70 -35 -161 -35t-162 35l27 56q59 -30 135 -30zM145 0l77 150l-215 393h101l163 -299l152 299h99l-279 -543h-98z" />
    <glyph glyph-name="afii10145small" unicode="&#xf37f;" horiz-adv-x="579" 
d="M429 75v468h88v-543h-189v-117h-77v117h-189v543h87v-468h280z" />
    <glyph glyph-name="afii10050small" unicode="&#xf393;" horiz-adv-x="452" 
d="M442 636v-169h-293v-467h-87v543h310v93h70z" />
    <glyph glyph-name="afii61352small" unicode="&#xf3cf;" horiz-adv-x="842" 
d="M62 550h50l330 -387v380h87v-550h-51l-329 385v-378h-87v550zM686 542q51 0 81.5 -31.5t30.5 -79.5q0 -49 -30.5 -80.5t-81.5 -31.5t-80.5 31.5t-29.5 80.5t29.5 80t80.5 31zM686 501q-31 0 -49 -19.5t-18 -51.5q0 -31 18 -50.5t49 -19.5q32 0 50 19.5t18 50.5
q0 32 -18 51.5t-50 19.5zM573 281h227v-55h-227v55z" />
    <glyph glyph-name="sterlingsmall" unicode="&#xf628;" horiz-adv-x="470" 
d="M28 277v57h61v43q0 86 46 132.5t130 46.5q87 0 169 -67l-31 -51q-71 55 -134 55q-49 0 -77.5 -31t-28.5 -85v-43h201v-57h-201v-209h271v-68h-345v277h-61z" />
    <glyph glyph-name="yensmall" unicode="&#xf629;" horiz-adv-x="516" 
d="M15 541h95l148 -272l146 272h96l-175 -311h138v-47h-162v-44h162v-47h-162v-92h-87v92h-164v47h164v44h-164v47h139z" />
    <glyph glyph-name="Eurosmall" unicode="&#xf630;" horiz-adv-x="500" 
d="M10 334h45q16 107 80.5 164t146.5 57q60 0 113 -31t84 -92l-66 -43q-20 46 -57 68.5t-74 22.5q-44 0 -85 -35.5t-53 -110.5h182v-41h-191v-45h191v-40h-182q13 -75 53 -110.5t85 -35.5q37 0 74 23t57 68l66 -43q-31 -60 -84 -91t-113 -31q-81 0 -146 56.5t-81 163.5h-45
v40h40v45h-40v41z" />
    <glyph glyph-name="Amacronsmall" unicode="&#xf66e;" horiz-adv-x="552" 
d="M454 0l-45 110h-269l-45 -110h-88l221 550h94l222 -550h-90zM275 444l-110 -264h219zM124 648v57h301v-57h-301z" />
    <glyph glyph-name="Aogoneksmall" unicode="&#xf66f;" horiz-adv-x="552" 
d="M562 -181q-29 0 -58 4.5t-57.5 15t-46.5 31.5t-18 49q0 22 18 44.5t54 36.5l-45 110h-269l-45 -110h-88q42 103 117.5 292.5t103.5 258.5h94l222 -551h-27q-67 -31 -67 -72q0 -32 31 -52t81 -21v-36zM275 444l-57.5 -138l-52.5 -126h219q-83 202 -109 264z" />
    <glyph glyph-name="Cacutesmall" unicode="&#xf671;" horiz-adv-x="577" 
d="M315 67q50 0 92.5 24.5t68.5 65.5l69 -49q-38 -56 -99 -88t-131 -32q-117 0 -198.5 82.5t-81.5 200.5t81.5 201t198.5 83q70 0 131 -32.5t99 -88.5l-69 -49q-26 41 -68.5 65.5t-92.5 24.5q-83 0 -139 -60t-56 -144q0 -85 56 -144.5t139 -59.5zM422 788l-151 -165h-62
l108 165h105z" />
    <glyph glyph-name="Ccaronsmall" unicode="&#xf672;" horiz-adv-x="577" 
d="M315 67q50 0 92.5 24.5t68.5 65.5l69 -49q-38 -56 -99 -88t-131 -32q-117 0 -198.5 82.5t-81.5 200.5t81.5 201t198.5 83q70 0 131 -32.5t99 -88.5l-69 -49q-26 41 -68.5 65.5t-92.5 24.5q-83 0 -139 -60t-56 -144q0 -85 56 -144.5t139 -59.5zM480 788l-126 -165h-88
l-126 165h62l107 -112l108 112h63z" />
    <glyph glyph-name="Dcaronsmall" unicode="&#xf675;" horiz-adv-x="574" 
d="M61 543h205q113 0 191 -79.5t78 -192.5q0 -115 -77 -193t-192 -78h-205v543zM149 80h107q82 0 135.5 55t53.5 135q0 79 -54 136t-135 57h-107v-383zM420 788l-126 -165h-88l-126 165h62l107 -112l108 112h63z" />
    <glyph glyph-name="Ecaronsmall" unicode="&#xf678;" horiz-adv-x="478" 
d="M444 74v-74h-382v543h377v-74h-290v-154h227v-72h-227v-169h295zM426 788l-126 -165h-88l-126 165h62l107 -112l108 112h63z" />
    <glyph glyph-name="Edotaccentsmall" unicode="&#xf679;" horiz-adv-x="478" 
d="M444 74v-74h-382v543h377v-74h-290v-154h227v-72h-227v-169h295zM197 674q0 22 14.5 36.5t35.5 14.5q22 0 36.5 -14.5t14.5 -36.5q0 -21 -14.5 -35t-36.5 -14q-21 0 -35.5 14t-14.5 35z" />
    <glyph glyph-name="Emacronsmall" unicode="&#xf67a;" horiz-adv-x="478" 
d="M444 74v-74h-382v543h377v-74h-290v-154h227v-72h-227v-169h295zM99 648v57h301v-57h-301z" />
    <glyph glyph-name="Eogoneksmall" unicode="&#xf67c;" horiz-adv-x="478" 
d="M444 -181q-29 0 -57.5 4.5t-57.5 15t-46.5 31.5t-17.5 49q0 23 17.5 45t54.5 36h-275v543h377v-74h-290v-154h227v-72h-227v-169h295v-74h-45q-67 -31 -67 -72q0 -32 31 -52t81 -21v-36z" />
    <glyph glyph-name="Imacronsmall" unicode="&#xf685;" horiz-adv-x="210" 
d="M149 543v-543h-88v543h88zM0 617v57h213v-57h-213z" />
    <glyph glyph-name="Iogoneksmall" unicode="&#xf686;" horiz-adv-x="213" 
d="M169 -181q-41 0 -78 7.5t-68.5 31.5t-31.5 61q0 54 71 81v543h87v-543h-24q-67 -31 -67 -72q0 -27 30 -49.5t81 -23.5v-36z" />
    <glyph glyph-name="Lacutesmall" unicode="&#xf68a;" horiz-adv-x="455" 
d="M440 75v-75h-379v543h88v-468h291zM312 788l-151 -165h-62l108 165h105z" />
    <glyph glyph-name="Lcaronsmall" unicode="&#xf68b;" horiz-adv-x="455" 
d="M440 75v-75h-379v543h88v-468h291zM217 315l49 228h88l-89 -228h-48z" />
    <glyph glyph-name="Nacutesmall" unicode="&#xf68e;" horiz-adv-x="590" 
d="M477 -7l-328 385v-378h-88v550h51l329 -387v380h87v-550h-51zM434 788l-151 -165h-62l108 165h105z" />
    <glyph glyph-name="Ncaronsmall" unicode="&#xf68f;" horiz-adv-x="590" 
d="M477 -7l-328 385v-378h-88v550h51l329 -387v380h87v-550h-51zM464 788l-126 -165h-88l-126 165h62l107 -112l108 112h63z" />
    <glyph glyph-name="Ohungarumlautsmall" unicode="&#xf692;" horiz-adv-x="630" 
d="M315 -12q-117 0 -198.5 82.5t-81.5 200.5t81.5 201t198.5 83t198.5 -83t81.5 -201t-81.5 -200.5t-198.5 -82.5zM510 271q0 84 -56 144t-139 60t-139 -60t-56 -144q0 -86 56 -145.5t139 -59.5t139 59.5t56 145.5zM389 757l-151 -165h-62l108 165h105zM538 757l-151 -165
h-62l107 165h106z" />
    <glyph glyph-name="Omacronsmall" unicode="&#xf693;" horiz-adv-x="630" 
d="M315 -12q-117 0 -198.5 82.5t-81.5 200.5t81.5 201t198.5 83t198.5 -83t81.5 -201t-81.5 -200.5t-198.5 -82.5zM510 271q0 84 -56 144t-139 60t-139 -60t-56 -144q0 -86 56 -145.5t139 -59.5t139 59.5t56 145.5zM164 648v57h301v-57h-301z" />
    <glyph glyph-name="Racutesmall" unicode="&#xf695;" horiz-adv-x="521" 
d="M389 369q0 41 -30 69.5t-74 28.5h-135v-194h135q44 0 74 27.5t30 68.5zM150 198v-198h-89v543h232q77 0 131 -51t54 -124q0 -57 -37 -101.5t-94 -57.5l151 -209h-97l-144 198h-107zM367 788l-151 -165h-62l108 165h105z" />
    <glyph glyph-name="Rcaronsmall" unicode="&#xf696;" horiz-adv-x="521" 
d="M389 369q0 41 -30 69.5t-74 28.5h-135v-194h135q44 0 74 27.5t30 68.5zM150 198v-198h-89v543h232q77 0 131 -51t54 -124q0 -57 -37 -101.5t-94 -57.5l151 -209h-97l-144 198h-107zM423 788l-126 -165h-88l-126 165h62l107 -112l108 112h63z" />
    <glyph glyph-name="Sacutesmall" unicode="&#xf698;" horiz-adv-x="480" 
d="M236 61q56 0 92.5 26t36.5 68q0 31 -33 50t-80.5 30t-94.5 26.5t-80 51t-33 90.5q0 66 52.5 108.5t137.5 42.5q127 0 197 -83l-46 -54q-32 36 -67 51.5t-85 15.5q-46 0 -80 -21t-34 -60q0 -32 33.5 -51t81.5 -30.5t96.5 -27t82 -50t33.5 -89.5q0 -70 -58.5 -118.5
t-153.5 -48.5q-60 0 -114.5 25.5t-86.5 68.5l47 56q24 -32 67.5 -54.5t88.5 -22.5zM360 788l-151 -165h-62l108 165h105z" />
    <glyph glyph-name="Tcaronsmall" unicode="&#xf69d;" horiz-adv-x="522" 
d="M304 467v-467h-89v467h-201v76h492v-76h-202zM430 788l-126 -165h-88l-126 165h62l107 -112l108 112h63z" />
    <glyph glyph-name="Uhungarumlautsmall" unicode="&#xf6a0;" horiz-adv-x="567" 
d="M138 543v-342q0 -60 40.5 -98.5t105.5 -38.5q63 0 103.5 38.5t40.5 98.5v342h88v-338q0 -92 -64.5 -154.5t-167.5 -62.5q-106 0 -170 61.5t-64 155.5v338h88zM360 788l-151 -165h-62l108 165h105zM509 788l-151 -165h-62l107 165h106z" />
    <glyph glyph-name="Umacronsmall" unicode="&#xf6a1;" horiz-adv-x="567" 
d="M138 543v-342q0 -60 40.5 -98.5t105.5 -38.5q63 0 103.5 38.5t40.5 98.5v342h88v-338q0 -92 -64.5 -154.5t-167.5 -62.5q-106 0 -170 61.5t-64 155.5v338h88zM132 648v57h301v-57h-301z" />
    <glyph glyph-name="Uogoneksmall" unicode="&#xf6a2;" horiz-adv-x="567" 
d="M409 -181q-29 0 -58 4.5t-58 15t-46.5 31.5t-17.5 49q0 41 46 69q-103 3 -164 64t-61 153v338h88v-342q0 -60 40.5 -98.5t105.5 -38.5q63 0 103.5 38.5t40.5 98.5v342h88v-338q0 -73 -42 -129t-112 -77q-65 -30 -65 -71q0 -32 30.5 -52t81.5 -21v-36z" />
    <glyph glyph-name="Uringsmall" unicode="&#xf6a3;" horiz-adv-x="567" 
d="M138 543v-342q0 -60 40.5 -98.5t105.5 -38.5q63 0 103.5 38.5t40.5 98.5v342h88v-338q0 -92 -64.5 -154.5t-167.5 -62.5q-106 0 -170 61.5t-64 155.5v338h88zM346 729q0 26 -18 43.5t-45 17.5q-26 0 -44 -17.5t-18 -43.5q0 -27 18 -45t44 -18t44.5 18t18.5 45zM393 729
q0 -45 -32.5 -76t-77.5 -31t-77.5 31t-32.5 76q0 43 33 74.5t77 31.5q45 0 77.5 -31.5t32.5 -74.5z" />
    <glyph glyph-name="Zacutesmall" unicode="&#xf6ab;" horiz-adv-x="493" 
d="M460 543v-43l-311 -425h318v-75h-443v43l310 424h-301v76h427zM364 788l-151 -165h-62l108 165h105z" />
    <glyph glyph-name="Zdotaccentsmall" unicode="&#xf6ac;" horiz-adv-x="493" 
d="M460 543v-43l-311 -425h318v-75h-443v43l310 424h-301v76h427zM194 674q0 22 14.5 36.5t35.5 14.5q22 0 36.5 -14.5t14.5 -36.5q0 -21 -14.5 -35t-36.5 -14q-21 0 -35.5 14t-14.5 35z" />
    <glyph glyph-name="commaaccent" unicode="&#xf6c3;" horiz-adv-x="250" 
d="M50 -305l49 228h88l-89 -228h-48z" />
    <glyph glyph-name="Lslashsmall" unicode="&#xf6f9;" horiz-adv-x="456" 
d="M7 127v61l55 39v316h88v-256l107 75v-61l-107 -75v-151h291v-75h-379v165z" />
    <glyph glyph-name="OEsmall" unicode="&#xf6fa;" horiz-adv-x="922" 
d="M892 74v-74h-382v81q-73 -93 -195 -93q-117 0 -198.5 82.5t-81.5 200.5q0 115 79.5 198.5t193.5 83.5q123 0 202 -93v83h377v-74h-290v-154h227v-72h-227v-169h295zM510 269q0 86 -56 146t-139 60t-139 -60t-56 -144q0 -86 56 -145.5t139 -59.5q82 0 138.5 58t56.5 145z
" />
    <glyph glyph-name="Scaronsmall" unicode="&#xf6fd;" horiz-adv-x="480" 
d="M236 61q56 0 92.5 26t36.5 68q0 31 -33 50t-80.5 30t-94.5 26.5t-80 51t-33 90.5q0 66 52.5 108.5t137.5 42.5q127 0 197 -83l-46 -54q-32 36 -67 51.5t-85 15.5q-46 0 -80 -21t-34 -60q0 -32 33.5 -51t81.5 -30.5t96.5 -27t82 -50t33.5 -89.5q0 -70 -58.5 -118.5
t-153.5 -48.5q-60 0 -114.5 25.5t-86.5 68.5l47 56q24 -32 67.5 -54.5t88.5 -22.5zM407 788l-126 -165h-88l-126 165h62l107 -112l108 112h63z" />
    <glyph glyph-name="Zcaronsmall" unicode="&#xf6ff;" horiz-adv-x="493" 
d="M460 543v-43l-311 -425h318v-75h-443v43l310 424h-301v76h427zM415 788l-126 -165h-88l-126 165h62l107 -112l108 112h63z" />
    <glyph glyph-name="zero.onum" unicode="&#xf730;" horiz-adv-x="589" 
d="M158 250q0 -95 41 -138.5t94 -43.5t94 43.5t41 138.5t-41 137.5t-94 42.5t-94 -43t-41 -137zM527 250q0 -66 -20.5 -118t-54.5 -83t-74.5 -47.5t-84.5 -16.5q-93 0 -163 68.5t-70 196.5q0 127 70 196t163 69q94 0 164 -69t70 -196z" />
    <glyph glyph-name="one.onum" unicode="&#xf731;" horiz-adv-x="556" 
d="M513 76v-76h-455v76h177v332l-170 -88l-27 70l247 125h51v-439h177z" />
    <glyph glyph-name="two.onum" unicode="&#xf732;" horiz-adv-x="572" 
d="M97 335l-54 46q95 134 238 134q107 0 163.5 -45.5t56.5 -121.5q0 -33 -13.5 -62.5t-33.5 -52.5t-62.5 -52.5t-79.5 -51t-106 -59.5h307v-70h-466v54q33 19 88 50t79 45t61.5 36.5t53 36.5t34 33.5t24.5 37t6 38.5q0 48 -35 75.5t-96 27.5q-90 0 -165 -99z" />
    <glyph glyph-name="three.onum" unicode="&#xf733;" horiz-adv-x="555" 
d="M276 431q-49 0 -89 -24.5t-60 -66.5l-71 38q34 67 91.5 102t128.5 35q95 0 153.5 -52t58.5 -126q0 -59 -35.5 -105.5t-95.5 -62.5q71 -15 111.5 -61t40.5 -113q0 -86 -67.5 -148t-169.5 -62q-71 0 -132 35t-94 101l71 38q18 -40 62 -66t90 -26q55 0 97.5 37t42.5 88
q0 62 -48.5 97t-123.5 35h-60v84h76q57 0 96 36t39 93q0 37 -31 65.5t-81 28.5z" />
    <glyph glyph-name="four.onum" unicode="&#xf734;" horiz-adv-x="589" 
d="M455 -204h-101v204h-318l-21 45l350 467h90v-441h116v-71h-116v-204zM354 399l-242 -328h242v328z" />
    <glyph glyph-name="five.onum" unicode="&#xf735;" horiz-adv-x="566" 
d="M251 -133q60 0 103.5 41t43.5 106q0 67 -34 108t-104 41q-65 0 -125 -50l-58 34l88 353h330v-92h-269l-54 -201q47 31 116 31q106 0 164.5 -67.5t58.5 -156.5q0 -92 -72 -160.5t-178 -68.5q-70 0 -127 35t-89 101l71 38q44 -92 135 -92z" />
    <glyph glyph-name="six.onum" unicode="&#xf736;" horiz-adv-x="582" 
d="M291 -15q-121 0 -185 82.5t-64 207.5q0 198 105 316.5t306 118.5v-87q-134 0 -219 -67.5t-102 -183.5q46 80 166 80q107 0 174 -67t67 -167q0 -103 -72 -168t-176 -65zM142 221q0 -67 43.5 -111.5t105.5 -44.5t106.5 44.5t44.5 111.5q0 66 -44.5 111.5t-106.5 45.5
q-61 0 -105 -45.5t-44 -111.5z" />
    <glyph glyph-name="seven.onum" unicode="&#xf737;" horiz-adv-x="551" 
d="M517 440q-40 -87 -139.5 -305.5t-153.5 -336.5h-110l277 605h-357v97h483v-60z" />
    <glyph glyph-name="eight.onum" unicode="&#xf738;" horiz-adv-x="576" 
d="M52 185q0 71 41 117.5t106 63.5q-55 15 -89.5 57t-34.5 108q0 75 60.5 129.5t152.5 54.5q95 0 154.5 -54.5t59.5 -129.5q0 -66 -35 -108.5t-90 -57.5q65 -17 105 -63t40 -117q0 -86 -65 -143t-169 -57t-170 57t-66 143zM153 193q0 -56 38.5 -93t96.5 -37t95.5 37t37.5 93
q0 57 -37.5 96.5t-95.5 39.5q-59 0 -97 -40t-38 -96zM171 523q0 -48 33 -83.5t83 -35.5t83.5 35.5t33.5 83.5t-33 80t-83 32q-51 0 -84 -32t-33 -80z" />
    <glyph glyph-name="nine.onum" unicode="&#xf739;" horiz-adv-x="582" 
d="M290 514q121 0 185 -82.5t64 -207.5q0 -198 -105 -316.5t-306 -118.5v87q134 0 219 67.5t102 183.5q-46 -80 -166 -80q-107 0 -174 67t-67 167q0 103 72 168t176 65zM439 278q0 67 -43.5 111.5t-105.5 44.5t-106.5 -44.5t-44.5 -111.5q0 -66 44.5 -111.5t106.5 -45.5
q61 0 105 45.5t44 111.5z" />
    <glyph glyph-name="Asmall" unicode="&#xf761;" horiz-adv-x="552" 
d="M454 0l-45 110h-269l-45 -110h-88l221 550h94l222 -550h-90zM275 444l-110 -264h219z" />
    <glyph glyph-name="Bsmall" unicode="&#xf762;" horiz-adv-x="528" 
d="M322 0h-261v543h244q64 0 107.5 -39t43.5 -96q0 -42 -22.5 -75.5t-63.5 -50.5q57 -15 88 -52.5t31 -83.5q0 -63 -48 -104.5t-119 -41.5zM295 245h-145v-177h145q45 0 75 24.5t30 64.5q0 37 -30.5 62.5t-74.5 25.5zM150 474v-164h142q35 0 58.5 24t23.5 58q0 36 -26.5 59
t-66.5 23h-131z" />
    <glyph glyph-name="Csmall" unicode="&#xf763;" horiz-adv-x="577" 
d="M315 67q50 0 92.5 24.5t68.5 65.5l69 -49q-38 -56 -99 -88t-131 -32q-117 0 -198.5 82.5t-81.5 200.5t81.5 201t198.5 83q70 0 131 -32.5t99 -88.5l-69 -49q-26 41 -68.5 65.5t-92.5 24.5q-83 0 -139 -60t-56 -144q0 -85 56 -144.5t139 -59.5z" />
    <glyph glyph-name="Dsmall" unicode="&#xf764;" horiz-adv-x="574" 
d="M61 543h205q113 0 191 -79.5t78 -192.5q0 -115 -77 -193t-192 -78h-205v543zM149 80h107q82 0 135.5 55t53.5 135q0 79 -54 136t-135 57h-107v-383z" />
    <glyph glyph-name="Esmall" unicode="&#xf765;" horiz-adv-x="478" 
d="M444 74v-74h-382v543h377v-74h-290v-154h227v-72h-227v-169h295z" />
    <glyph glyph-name="Fsmall" unicode="&#xf766;" horiz-adv-x="461" 
d="M149 229v-229h-88v543h378v-76h-290v-163h240v-75h-240z" />
    <glyph glyph-name="Gsmall" unicode="&#xf767;" horiz-adv-x="587" 
d="M315 67q91 0 150 74v78h-161v65h241v-176q-38 -56 -99 -88t-131 -32q-117 0 -198.5 82.5t-81.5 200.5t81.5 201t198.5 83q70 0 131 -32.5t99 -88.5l-69 -49q-26 41 -68.5 65.5t-92.5 24.5q-83 0 -139 -60t-56 -144q0 -85 56 -144.5t139 -59.5z" />
    <glyph glyph-name="Hsmall" unicode="&#xf768;" horiz-adv-x="589" 
d="M440 0v243h-290v-243h-89v543h89v-225h290v225h87v-543h-87z" />
    <glyph glyph-name="Ismall" unicode="&#xf769;" horiz-adv-x="210" 
d="M149 543v-543h-88v543h88z" />
    <glyph glyph-name="Jsmall" unicode="&#xf76a;" horiz-adv-x="362" 
d="M221 153v390h87v-368q0 -42 -5 -71.5t-20 -58t-47.5 -43t-81.5 -14.5q-82 0 -148 54l40 59q49 -40 96 -40q39 0 59 24.5t20 67.5z" />
    <glyph glyph-name="Ksmall" unicode="&#xf76b;" horiz-adv-x="524" 
d="M394 0l-227 278l221 265h109l-231 -265l245 -278h-117zM61 0v543h88v-543h-88z" />
    <glyph glyph-name="Lsmall" unicode="&#xf76c;" horiz-adv-x="455" 
d="M440 75v-75h-379v543h88v-468h291z" />
    <glyph glyph-name="Msmall" unicode="&#xf76d;" horiz-adv-x="664" 
d="M322 149q-118 162 -178 243v-392h-83v550h58l213 -293q112 154 212 293h59v-550h-83v393l-179 -244h-19z" />
    <glyph glyph-name="Nsmall" unicode="&#xf76e;" horiz-adv-x="590" 
d="M477 -7l-328 385v-378h-88v550h51l329 -387v380h87v-550h-51z" />
    <glyph glyph-name="Osmall" unicode="&#xf76f;" horiz-adv-x="630" 
d="M315 -12q-117 0 -198.5 82.5t-81.5 200.5t81.5 201t198.5 83t198.5 -83t81.5 -201t-81.5 -200.5t-198.5 -82.5zM510 271q0 84 -56 144t-139 60t-139 -60t-56 -144q0 -86 56 -145.5t139 -59.5t139 59.5t56 145.5z" />
    <glyph glyph-name="Psmall" unicode="&#xf770;" horiz-adv-x="509" 
d="M293 198h-143v-198h-89v543h232q77 0 131 -51t54 -124q0 -72 -54 -121t-131 -49zM150 467v-194h134q45 0 75 27.5t30 69.5q0 41 -30.5 69t-74.5 28h-134z" />
    <glyph glyph-name="Qsmall" unicode="&#xf771;" horiz-adv-x="630" 
d="M558 -38l-84 75q-71 -49 -159 -49q-117 0 -198.5 82.5t-81.5 200.5t81.5 201t198.5 83t198.5 -83t81.5 -201q0 -100 -60 -176l78 -69zM510 271q0 84 -56 144t-139 60t-139 -60t-56 -144q0 -86 56 -145.5t139 -59.5q54 0 98 26l-67 61l55 64l73 -66q36 56 36 120z" />
    <glyph glyph-name="Rsmall" unicode="&#xf772;" horiz-adv-x="521" 
d="M389 369q0 41 -30 69.5t-74 28.5h-135v-194h135q44 0 74 27.5t30 68.5zM150 198v-198h-89v543h232q77 0 131 -51t54 -124q0 -57 -37 -101.5t-94 -57.5l151 -209h-97l-144 198h-107z" />
    <glyph glyph-name="Ssmall" unicode="&#xf773;" horiz-adv-x="480" 
d="M236 61q56 0 92.5 26t36.5 68q0 31 -33 50t-80.5 30t-94.5 26.5t-80 51t-33 90.5q0 66 52.5 108.5t137.5 42.5q127 0 197 -83l-46 -54q-32 36 -67 51.5t-85 15.5q-46 0 -80 -21t-34 -60q0 -32 33.5 -51t81.5 -30.5t96.5 -27t82 -50t33.5 -89.5q0 -70 -58.5 -118.5
t-153.5 -48.5q-60 0 -114.5 25.5t-86.5 68.5l47 56q24 -32 67.5 -54.5t88.5 -22.5z" />
    <glyph glyph-name="Tsmall" unicode="&#xf774;" horiz-adv-x="522" 
d="M304 467v-467h-89v467h-201v76h492v-76h-202z" />
    <glyph glyph-name="Usmall" unicode="&#xf775;" horiz-adv-x="567" 
d="M138 543v-342q0 -60 40.5 -98.5t105.5 -38.5q63 0 103.5 38.5t40.5 98.5v342h88v-338q0 -92 -64.5 -154.5t-167.5 -62.5q-106 0 -170 61.5t-64 155.5v338h88z" />
    <glyph glyph-name="Vsmall" unicode="&#xf776;" horiz-adv-x="552" 
d="M97 543l178 -443l178 443h91l-222 -551h-94l-221 551h90z" />
    <glyph glyph-name="Wsmall" unicode="&#xf777;" horiz-adv-x="781" 
d="M430 551l126 -416l124 408h93l-172 -551h-82l-129 420l-129 -420h-83l-171 551h93l123 -408l127 416h80z" />
    <glyph glyph-name="Xsmall" unicode="&#xf778;" horiz-adv-x="549" 
d="M274 204l-152 -204h-107l206 276l-198 267h106l145 -196l145 196h106l-198 -267l206 -276h-107z" />
    <glyph glyph-name="Ysmall" unicode="&#xf779;" horiz-adv-x="535" 
d="M7 543h99l160 -272l161 272h100l-217 -353v-190h-88v190z" />
    <glyph glyph-name="Zsmall" unicode="&#xf77a;" horiz-adv-x="493" 
d="M460 543v-43l-311 -425h318v-75h-443v43l310 424h-301v76h427z" />
    <glyph glyph-name="Agravesmall" unicode="&#xf7e0;" horiz-adv-x="552" 
d="M454 0l-45 110h-269l-45 -110h-88l221 550h94l222 -550h-90zM275 444l-110 -264h219zM292 623l-151 165h106l107 -165h-62z" />
    <glyph glyph-name="Aacutesmall" unicode="&#xf7e1;" horiz-adv-x="552" 
d="M454 0l-45 110h-269l-45 -110h-88l221 550h94l222 -550h-90zM275 444l-110 -264h219zM390 788l-151 -165h-62l108 165h105z" />
    <glyph glyph-name="Acircumflexsmall" unicode="&#xf7e2;" horiz-adv-x="552" 
d="M454 0l-45 110h-269l-45 -110h-88l221 550h94l222 -550h-90zM275 444l-110 -264h219zM319 788l126 -165h-63l-108 113l-107 -113h-62l126 165h88z" />
    <glyph glyph-name="Atildesmall" unicode="&#xf7e3;" horiz-adv-x="552" 
d="M454 0l-45 110h-269l-45 -110h-88l221 550h94l222 -550h-90zM275 444l-110 -264h219zM192 763q34 0 87.5 -28t78.5 -28q46 0 70 59h50q-13 -58 -45 -89.5t-75 -31.5q-38 0 -92 27.5t-74 27.5q-47 0 -68 -59h-52q13 58 45.5 90t74.5 32z" />
    <glyph glyph-name="Adieresissmall" unicode="&#xf7e4;" horiz-adv-x="552" 
d="M454 0l-45 110h-269l-45 -110h-88l221 550h94l222 -550h-90zM275 444l-110 -264h219zM327 681q0 23 16 39.5t39 16.5t39 -16.5t16 -39.5t-16 -38t-39 -15t-39 15t-16 38zM115 681q0 23 16 39.5t38 16.5q23 0 39 -16.5t16 -39.5t-16 -38t-39 -15t-38.5 15t-15.5 38z" />
    <glyph glyph-name="Aringsmall" unicode="&#xf7e5;" horiz-adv-x="552" 
d="M454 0l-45 110h-269l-45 -110h-88l221 550h94l222 -550h-90zM275 444l-110 -264h219zM338 729q0 26 -18 43.5t-45 17.5q-26 0 -44 -17.5t-18 -43.5q0 -27 18 -45t44 -18t44.5 18t18.5 45zM385 729q0 -45 -32.5 -76t-77.5 -31t-77.5 31t-32.5 76q0 43 33 74.5t77 31.5
q45 0 77.5 -31.5t32.5 -74.5z" />
    <glyph glyph-name="AEsmall" unicode="&#xf7e6;" horiz-adv-x="848" 
d="M431 119h-249l-88 -119h-89l403 543h401v-74h-289v-154h226v-72h-226v-169h293v-74h-382v119zM431 456l-200 -271h200v271z" />
    <glyph glyph-name="Ccedillasmall" unicode="&#xf7e7;" horiz-adv-x="577" 
d="M315 67q50 0 92.5 24.5t68.5 65.5l69 -49q-35 -50 -88 -81t-116 -37l-44 -58q21 8 47 8q34 0 55 -20.5t21 -54.5q0 -38 -32.5 -63.5t-91.5 -25.5q-54 0 -109 25l11 32q43 -19 84 -19q35 0 54.5 14.5t19.5 36.5q0 18 -12.5 30t-32.5 12q-32 0 -49 -10l-30 20l51 73
q-106 11 -177 91t-71 190q0 118 81.5 201t198.5 83q70 0 131 -32.5t99 -88.5l-69 -49q-26 41 -68.5 65.5t-92.5 24.5q-83 0 -139 -60t-56 -144q0 -85 56 -144.5t139 -59.5z" />
    <glyph glyph-name="Egravesmall" unicode="&#xf7e8;" horiz-adv-x="478" 
d="M444 74v-74h-382v543h377v-74h-290v-154h227v-72h-227v-169h295zM271 623l-151 165h106l107 -165h-62z" />
    <glyph glyph-name="Eacutesmall" unicode="&#xf7e9;" horiz-adv-x="478" 
d="M444 74v-74h-382v543h377v-74h-290v-154h227v-72h-227v-169h295zM374 788l-151 -165h-62l108 165h105z" />
    <glyph glyph-name="Ecircumflexsmall" unicode="&#xf7ea;" horiz-adv-x="478" 
d="M444 74v-74h-382v543h377v-74h-290v-154h227v-72h-227v-169h295zM298 788l126 -165h-63l-108 113l-107 -113h-62l126 165h88z" />
    <glyph glyph-name="Edieresissmall" unicode="&#xf7eb;" horiz-adv-x="478" 
d="M444 74v-74h-382v543h377v-74h-290v-154h227v-72h-227v-169h295zM311 681q0 23 16 39.5t39 16.5t39 -16.5t16 -39.5t-16 -38t-39 -15t-39 15t-16 38zM99 681q0 23 16 39.5t38 16.5q23 0 39 -16.5t16 -39.5t-16 -38t-39 -15t-38.5 15t-15.5 38z" />
    <glyph glyph-name="Igravesmall" unicode="&#xf7ec;" horiz-adv-x="210" 
d="M145 623l-142 165h106l98 -165h-62zM149 543v-543h-88v543h88z" />
    <glyph glyph-name="Iacutesmall" unicode="&#xf7ed;" horiz-adv-x="210" 
d="M207 788l-141 -165h-63l98 165h106zM149 543v-543h-88v543h88z" />
    <glyph glyph-name="Icircumflexsmall" unicode="&#xf7ee;" horiz-adv-x="210" 
d="M149 769l70 -165h-63l-51 113l-50 -113h-61l68 165h87zM149 543v-543h-88v543h88z" />
    <glyph glyph-name="Idieresissmall" unicode="&#xf7ef;" horiz-adv-x="213" 
d="M149 543v-543h-87v543h87zM117 651q0 21 13 36t30 15q18 0 31 -15t13 -36q0 -22 -13 -36.5t-31 -14.5t-30.5 15t-12.5 36zM7 651q0 21 12 36t31 15q18 0 31 -15t13 -36q0 -22 -13 -36.5t-31 -14.5q-19 0 -31 14.5t-12 36.5z" />
    <glyph glyph-name="Ethsmall" unicode="&#xf7f0;" horiz-adv-x="575" 
d="M7 310h55v233h205q114 0 191.5 -79t77.5 -193q0 -115 -77 -193t-192 -78h-205v247h-55v63zM149 80h108q82 0 135.5 55t53.5 135q0 81 -54 137t-135 56h-108v-153h119v-63h-119v-167z" />
    <glyph glyph-name="Ntildesmall" unicode="&#xf7f1;" horiz-adv-x="590" 
d="M477 -7l-328 385v-378h-88v550h51l329 -387v380h87v-550h-51zM211 763q34 0 87.5 -28t78.5 -28q46 0 70 59h50q-13 -58 -45 -89.5t-75 -31.5q-39 0 -92 27.5t-74 27.5q-47 0 -68 -59h-52q13 58 45.5 90t74.5 32z" />
    <glyph glyph-name="Ogravesmall" unicode="&#xf7f2;" horiz-adv-x="630" 
d="M315 -12q-117 0 -198.5 82.5t-81.5 200.5t81.5 201t198.5 83t198.5 -83t81.5 -201t-81.5 -200.5t-198.5 -82.5zM510 271q0 84 -56 144t-139 60t-139 -60t-56 -144q0 -86 56 -145.5t139 -59.5t139 59.5t56 145.5zM347 623l-151 165h106l107 -165h-62z" />
    <glyph glyph-name="Oacutesmall" unicode="&#xf7f3;" horiz-adv-x="630" 
d="M315 -12q-117 0 -198.5 82.5t-81.5 200.5t81.5 201t198.5 83t198.5 -83t81.5 -201t-81.5 -200.5t-198.5 -82.5zM510 271q0 84 -56 144t-139 60t-139 -60t-56 -144q0 -86 56 -145.5t139 -59.5t139 59.5t56 145.5zM431 788l-151 -165h-62l108 165h105z" />
    <glyph glyph-name="Ocircumflexsmall" unicode="&#xf7f4;" horiz-adv-x="630" 
d="M315 -12q-117 0 -198.5 82.5t-81.5 200.5t81.5 201t198.5 83t198.5 -83t81.5 -201t-81.5 -200.5t-198.5 -82.5zM510 271q0 84 -56 144t-139 60t-139 -60t-56 -144q0 -86 56 -145.5t139 -59.5t139 59.5t56 145.5zM359 788l126 -165h-63l-108 113l-107 -113h-62l126 165h88
z" />
    <glyph glyph-name="Otildesmall" unicode="&#xf7f5;" horiz-adv-x="630" 
d="M315 -12q-117 0 -198.5 82.5t-81.5 200.5t81.5 201t198.5 83t198.5 -83t81.5 -201t-81.5 -200.5t-198.5 -82.5zM510 271q0 84 -56 144t-139 60t-139 -60t-56 -144q0 -86 56 -145.5t139 -59.5t139 59.5t56 145.5zM232 763q34 0 87.5 -28t78.5 -28q46 0 70 59h50
q-13 -58 -45 -89.5t-75 -31.5q-38 0 -91.5 27.5t-74.5 27.5q-47 0 -68 -59h-52q13 58 45.5 90t74.5 32z" />
    <glyph glyph-name="Odieresissmall" unicode="&#xf7f6;" horiz-adv-x="630" 
d="M315 -12q-117 0 -198.5 82.5t-81.5 200.5t81.5 201t198.5 83t198.5 -83t81.5 -201t-81.5 -200.5t-198.5 -82.5zM510 271q0 84 -56 144t-139 60t-139 -60t-56 -144q0 -86 56 -145.5t139 -59.5t139 59.5t56 145.5zM366 681q0 23 16 39.5t39 16.5t39 -16.5t16 -39.5t-16 -38
t-39 -15t-39 15t-16 38zM154 681q0 23 16 39.5t38 16.5q23 0 39 -16.5t16 -39.5t-16 -38t-39 -15t-38.5 15t-15.5 38z" />
    <glyph glyph-name="Oslashsmall" unicode="&#xf7f8;" horiz-adv-x="636" 
d="M318 -12q-95 0 -166 55l-41 -43h-76l73 81q-71 79 -71 190q0 118 82 201t199 83q92 0 165 -57l42 45h76l-75 -83q72 -80 72 -189q0 -118 -81.5 -200.5t-198.5 -82.5zM512 271q0 69 -41 124l-266 -289q49 -40 120 -40q80 0 133.5 60.5t53.5 144.5zM123 271q0 -71 41 -125
l265 289q-51 40 -118 40q-80 0 -134 -60.5t-54 -143.5z" />
    <glyph glyph-name="Ugravesmall" unicode="&#xf7f9;" horiz-adv-x="567" 
d="M138 543v-342q0 -60 40.5 -98.5t105.5 -38.5q63 0 103.5 38.5t40.5 98.5v342h88v-338q0 -92 -64.5 -154.5t-167.5 -62.5q-106 0 -170 61.5t-64 155.5v338h88zM311 622l-151 165h106l107 -165h-62z" />
    <glyph glyph-name="Uacutesmall" unicode="&#xf7fa;" horiz-adv-x="567" 
d="M138 543v-342q0 -60 40.5 -98.5t105.5 -38.5q63 0 103.5 38.5t40.5 98.5v342h88v-338q0 -92 -64.5 -154.5t-167.5 -62.5q-106 0 -170 61.5t-64 155.5v338h88zM404 788l-151 -165h-62l108 165h105z" />
    <glyph glyph-name="Ucircumflexsmall" unicode="&#xf7fb;" horiz-adv-x="567" 
d="M138 543v-342q0 -60 40.5 -98.5t105.5 -38.5q63 0 103.5 38.5t40.5 98.5v342h88v-338q0 -92 -64.5 -154.5t-167.5 -62.5q-106 0 -170 61.5t-64 155.5v338h88zM326 788l126 -165h-63l-108 113l-107 -113h-62l126 165h88z" />
    <glyph glyph-name="Udieresissmall" unicode="&#xf7fc;" horiz-adv-x="567" 
d="M138 543v-342q0 -60 40.5 -98.5t105.5 -38.5q63 0 103.5 38.5t40.5 98.5v342h88v-338q0 -92 -64.5 -154.5t-167.5 -62.5q-106 0 -170 61.5t-64 155.5v338h88zM335 681q0 23 16 39.5t39 16.5t39 -16.5t16 -39.5t-16 -38t-39 -15t-39 15t-16 38zM123 681q0 23 16 39.5
t38 16.5q23 0 39 -16.5t16 -39.5t-16 -38t-39 -15t-38.5 15t-15.5 38z" />
    <glyph glyph-name="Yacutesmall" unicode="&#xf7fd;" horiz-adv-x="535" 
d="M7 543h99l160 -272l161 272h100l-217 -353v-190h-88v190zM395 788l-151 -165h-62l108 165h105z" />
    <glyph glyph-name="Thornsmall" unicode="&#xf7fe;" horiz-adv-x="510" 
d="M151 543v-103h147q76 0 128 -50.5t52 -122.5q0 -73 -51.5 -122t-128.5 -49h-147v-96h-89v543h89zM151 364v-194h134q44 0 74 27.5t30 69.5q0 41 -30 69t-74 28h-134z" />
    <glyph glyph-name="Ydieresissmall" unicode="&#xf7ff;" horiz-adv-x="535" 
d="M7 543h99l160 -272l161 272h100l-217 -353v-190h-88v190zM319 681q0 23 16 39.5t39 16.5t39 -16.5t16 -39.5t-16 -38t-39 -15t-39 15t-16 38zM107 681q0 23 16 39.5t38 16.5q23 0 39 -16.5t16 -39.5t-16 -38t-39 -15t-38.5 15t-15.5 38z" />
    <glyph glyph-name="parenleftsmall" unicode="&#xfe59;" horiz-adv-x="334" 
d="M123 230q0 -203 188 -310l-33 -42q-233 118 -233 352t233 353l33 -43q-188 -108 -188 -310z" />
    <glyph glyph-name="parenrightsmall" unicode="&#xfe5a;" horiz-adv-x="335" 
d="M210 230q0 203 -188 310l32 43q234 -120 234 -353q0 -234 -234 -352l-32 42q188 107 188 310z" />
    <glyph glyph-name="braceleftsmall" unicode="&#xfe5b;" horiz-adv-x="336" 
d="M32 250h27q62 0 62 116v28q0 32 1.5 50t7 40t16.5 34.5t31 26t50.5 23t73.5 17.5l10 -50q-42 -11 -64.5 -20t-33 -24t-12.5 -27.5t-2 -41.5v-90q0 -37 -20 -66.5t-54 -40.5q34 -13 54 -42.5t20 -65.5v-89q0 -30 2 -42.5t12.5 -27.5t33 -23.5t64.5 -19.5l-10 -51
q-61 12 -98 26.5t-54.5 37t-22.5 45t-5 62.5v58q0 43 -15 75t-47 32h-27v50z" />
    <glyph glyph-name="bracerightsmall" unicode="&#xfe5c;" horiz-adv-x="336" 
d="M273 250h27v-50h-27q-62 0 -62 -107v-58q0 -40 -5 -62.5t-22.5 -45t-54.5 -37t-98 -26.5l-10 51q42 11 64.5 19.5t33 23.5t12.5 28t2 42v89q0 36 20 65.5t54 42.5q-74 23 -74 130v90q-2 38 -22 55.5t-90 34.5l10 50q62 -12 98 -26t54 -36.5t23 -45.5t5 -64v-57
q0 -46 15.5 -76t46.5 -30z" />
    <glyph glyph-name="bracketleftsmall" unicode="&#xfe5d;" horiz-adv-x="278" 
d="M47 -129v711h195v-57h-117v-597h117v-57h-195z" />
    <glyph glyph-name="bracketrightsmall" unicode="&#xfe5e;" horiz-adv-x="273" 
d="M222 582v-711h-195v57h117v597h-117v57h195z" />
    <glyph glyph-name="numbersignsmall" unicode="&#xfe5f;" horiz-adv-x="561" 
d="M106 0l22 125h-82v58h94l30 176h-93v58h104l22 126h63l-22 -126h125l22 126h63l-22 -126h83v-58h-93l-32 -176h92v-58h-103l-21 -125h-63l21 125h-124l-22 -125h-64zM202 183h125l31 176h-125z" />
    <glyph glyph-name="ampersandsmall" unicode="&#xfe60;" horiz-adv-x="567" 
d="M447 0l-61 55q-76 -66 -166 -66t-138.5 41.5t-48.5 103.5q0 47 31 77.5t89 60.5q-80 80 -80 137q0 58 51 100.5t131 42.5t121.5 -39t41.5 -99q0 -27 -14 -51.5t-39 -43.5t-48 -31.5t-54 -26.5l128 -116q28 35 68 115h86q-8 -13 -22.5 -39.5t-24 -43.5t-25 -39.5
t-31.5 -40.5l105 -97h-100zM231 46q57 0 110 51l-144 129q-25 -14 -38.5 -23.5t-28.5 -28.5t-15 -40q0 -39 31.5 -63.5t84.5 -24.5zM150 410q0 -43 71 -110q25 12 42 21t37 24t30.5 32t10.5 37q0 37 -25.5 58.5t-64.5 21.5q-41 0 -71 -22.5t-30 -61.5z" />
    <glyph glyph-name="dollarsmall" unicode="&#xfe69;" horiz-adv-x="486" 
d="M51 403q0 61 45 102t120 48v62h63v-63q100 -13 160 -81l-47 -54q-50 56 -113 64v-169q39 -11 64.5 -20.5t53.5 -27.5t42 -45t14 -64q0 -63 -47.5 -109t-126.5 -56v-65h-63v64q-54 5 -100.5 30t-75.5 63l47 56q20 -27 55.5 -48t73.5 -27v183q-36 10 -61 20t-51 28
t-39.5 45t-13.5 64zM372 155q0 28 -24 44.5t-69 29.5v-165q43 8 68 32.5t25 58.5zM127 403q0 -28 23 -44.5t66 -29.5v153q-38 -5 -63.5 -25.5t-25.5 -53.5z" />
    </font>
</defs>
</svg>
